<?xml version="1.0" encoding="utf-8"?>
<!-- Generator: Adobe Illustrator 22.0.1, SVG Export Plug-In . SVG Version: 6.00 Build 0)  -->
<svg version="1.1" xmlns="http://www.w3.org/2000/svg" xmlns:xlink="http://www.w3.org/1999/xlink" x="0px" y="0px"
	 viewBox="0 0 261 256" style="enable-background:new 0 0 261 256;" xml:space="preserve">
<style type="text/css">
	.st0{fill:url(#SVGID_1_);}
	.st1{fill:url(#SVGID_2_);}
	.st2{fill:#A7A9AC;}
	.st3{fill:url(#SVGID_3_);}
	.st4{fill:url(#SVGID_4_);}
	.st5{fill:url(#SVGID_5_);}
	.st6{fill:url(#SVGID_6_);}
	.st7{fill:url(#SVGID_7_);}
	.st8{fill:url(#SVGID_8_);}
	.st9{fill:url(#SVGID_9_);}
	.st10{fill:url(#SVGID_10_);}
	.st11{fill:#1F6B9D;}
	.st12{fill:#515254;}
	.st13{fill:#F1F2F2;}
	.st14{fill:#74C1EC;}
	.st15{fill:url(#SVGID_11_);}
	.st16{fill:url(#SVGID_12_);}
	.st17{fill:#BED7E7;}
	.st18{fill:#145179;}
</style>
<g id="Layer_1">
	<linearGradient id="SVGID_1_" gradientUnits="userSpaceOnUse" x1="46.0132" y1="44.5866" x2="214.7937" y2="213.3671">
		<stop  offset="0.1166" style="stop-color:#DCDDDE"/>
		<stop  offset="0.182" style="stop-color:#D2D4D5"/>
		<stop  offset="0.2982" style="stop-color:#B9BBBD"/>
		<stop  offset="0.4479" style="stop-color:#939598"/>
		<stop  offset="0.5828" style="stop-color:#939598"/>
		<stop  offset="0.8957" style="stop-color:#D1D3D4"/>
	</linearGradient>
	<path class="st0" d="M131,12.2c-65.5,0-118.7,52.5-118.7,117.3c0,64.8,53.2,117.3,118.7,117.3c65.6,0,118.7-52.5,118.7-117.3
		C249.7,64.8,196.5,12.2,131,12.2L131,12.2z"/>
	<path d="M245.1,129.5c0,63.1-51.1,114.2-114.2,114.2c-63.1,0-114.2-51.1-114.2-114.2C16.8,66.5,67.9,15.4,131,15.4
		C194,15.4,245.1,66.5,245.1,129.5z"/>
	<radialGradient id="SVGID_2_" cx="65.3074" cy="0.3709" r="195.7874" gradientUnits="userSpaceOnUse">
		<stop  offset="0" style="stop-color:#CCD3E0"/>
		<stop  offset="0.201" style="stop-color:#9CA2AC"/>
		<stop  offset="0.5943" style="stop-color:#51555D"/>
		<stop  offset="0.8694" style="stop-color:#20232A"/>
		<stop  offset="1" style="stop-color:#000000"/>
	</radialGradient>
	<path class="st1" d="M244.6,129.5c0,62.8-50.9,113.6-113.7,113.6c-62.8,0-113.6-50.9-113.6-113.6C17.3,66.8,68.2,15.9,131,15.9
		C193.7,15.9,244.6,66.8,244.6,129.5z"/>
	<path d="M207.1,129.5c0,41.5-34.1,75.1-76.2,75.1c-42.1,0-76.2-33.6-76.2-75.1c0-41.5,34.1-75.2,76.2-75.2
		C173,54.4,207.1,88,207.1,129.5z"/>
	<path class="st2" d="M205.2,129.5c0,40.8-33.2,73.8-74.2,73.8c-41,0-74.2-33.1-74.2-73.8c0-40.8,33.2-73.9,74.2-73.9
		C172,55.7,205.2,88.7,205.2,129.5z"/>
	<linearGradient id="SVGID_3_" gradientUnits="userSpaceOnUse" x1="167.2524" y1="58.5" x2="167.2524" y2="128.5171">
		<stop  offset="0.7423" style="stop-color:#FFFFFF"/>
		<stop  offset="1" style="stop-color:#E6E7E8"/>
	</linearGradient>
	<path class="st3" d="M132.2,128.3h70c-0.7-38.4-31.7-69.3-70-70V128.3z"/>
	<radialGradient id="SVGID_4_" cx="129.5" cy="128" r="69.6128" gradientUnits="userSpaceOnUse">
		<stop  offset="0.3374" style="stop-color:#2B93D1"/>
		<stop  offset="0.7975" style="stop-color:#72C6EF"/>
	</radialGradient>
	<path class="st4" d="M129.7,128.3v-70c-38.4,0.7-69.4,31.6-70,70L129.7,128.3z"/>
	<linearGradient id="SVGID_5_" gradientUnits="userSpaceOnUse" x1="94.6802" y1="130.7915" x2="94.6802" y2="200.72">
		<stop  offset="0.4724" style="stop-color:#FFFFFF"/>
		<stop  offset="0.99" style="stop-color:#D1D3D4"/>
	</linearGradient>
	<path class="st5" d="M129.7,130.8l-70,0c0.7,38.4,31.6,69.4,70,70.1V130.8z"/>
	<radialGradient id="SVGID_6_" cx="131.7499" cy="130.25" r="70.5616" gradientUnits="userSpaceOnUse">
		<stop  offset="0.411" style="stop-color:#2B93D1"/>
		<stop  offset="0.8589" style="stop-color:#1F6B9D"/>
	</radialGradient>
	<path class="st6" d="M132.2,130.8v70.1c38.4-0.7,69.4-31.7,70-70.1H132.2z"/>
	<g>
		<polygon points="135.5,51.3 143.1,30.4 143.4,51.6 150.5,52.7 150.1,22.5 140.2,21.4 132.2,42.8 132.3,42.8 124.3,21.4 
			114.4,22.5 114,52.7 121.1,51.6 121.4,30.4 129,51.3 		"/>
		<polygon points="217.3,63.9 207.1,78.9 223.2,70.9 226.7,77.1 201,88.9 197.1,82.7 206.9,67.9 206.9,67.8 190.5,74.8 185,69.5 
			201.4,46.9 206.8,51.3 196.1,65.7 212.6,58.3 		"/>
		<path d="M77.8,59.6c-2.4-2.4-6.1-3.1-9.6-0.9c0.7-1.7,0.4-3.5,0-4.5c-1.5-2.8-2-3.1-3.3-4.1c-4-3.4-8.2-0.5-11.3,3.1L39.1,70.7
			l23,19.3l15.4-18.4C81,67.4,81.5,63.2,77.8,59.6L77.8,59.6z M48.1,68L48.1,68l8.8-10.5c1-1.2,3.3-1.2,4.8,0.1
			c1.6,1.4,1.6,3.3,0.5,4.6l-8.7,10.4L48.1,68L48.1,68z M72.3,69.8L72.3,69.8l-9.1,10.9l-5.8-4.8l9.2-11c1-1.2,3.4-1.6,4.9-0.3
			C73.4,66.1,73.6,68.3,72.3,69.8z"/>
	</g>
	<linearGradient id="SVGID_7_" gradientUnits="userSpaceOnUse" x1="114.0158" y1="50.574" x2="148.7659" y2="22.0739">
		<stop  offset="0.4908" style="stop-color:#FFFFFF"/>
		<stop  offset="0.5991" style="stop-color:#F3F4F4"/>
		<stop  offset="0.7834" style="stop-color:#DDDEDF"/>
		<stop  offset="1" style="stop-color:#BCBEC0"/>
	</linearGradient>
	<polygon class="st7" points="134.1,50.3 141.7,29.4 142,50.6 149.1,51.7 148.6,21.5 138.7,20.4 130.8,41.8 130.8,41.8 122.9,20.4 
		113,21.5 112.5,51.7 119.6,50.6 119.9,29.4 127.5,50.3 	"/>
	<linearGradient id="SVGID_8_" gradientUnits="userSpaceOnUse" x1="38.0767" y1="68.2969" x2="79.3713" y2="68.2969">
		<stop  offset="0.6442" style="stop-color:#FFFFFF"/>
		<stop  offset="0.7199" style="stop-color:#F3F4F4"/>
		<stop  offset="0.8486" style="stop-color:#DDDEDF"/>
		<stop  offset="1" style="stop-color:#BCBEC0"/>
	</linearGradient>
	<path class="st8" d="M76.8,58.6c-2.4-2.4-6.1-3.1-9.6-0.9c0.7-1.7,0.4-3.5,0-4.5c-1.5-2.8-2-3.1-3.3-4.1c-4-3.4-8.2-0.5-11.3,3.1
		L38.1,69.7l23,19.3l15.4-18.4C80,66.4,80.5,62.2,76.8,58.6L76.8,58.6z M47.1,67L47.1,67l8.8-10.5c1-1.2,3.3-1.2,4.8,0.1
		c1.6,1.4,1.6,3.3,0.5,4.6l-8.7,10.4L47.1,67L47.1,67z M71.3,68.8L71.3,68.8l-9.1,10.9l-5.8-4.8l9.2-11c1-1.2,3.4-1.6,4.9-0.3
		C72.4,65.1,72.6,67.3,71.3,68.8z"/>
	<g>
		<linearGradient id="SVGID_9_" gradientUnits="userSpaceOnUse" x1="183.5391" y1="67.1199" x2="225.1953" y2="67.1199">
			<stop  offset="0.2331" style="stop-color:#FFFFFF"/>
			<stop  offset="0.3962" style="stop-color:#F3F4F4"/>
			<stop  offset="0.6738" style="stop-color:#DDDEDF"/>
			<stop  offset="1" style="stop-color:#BCBEC0"/>
		</linearGradient>
		<polygon class="st9" points="216.2,63.5 205.6,78.1 221.7,70.1 225.2,76.3 199.5,88.1 195.6,81.9 205.5,67.1 205.4,67 189.1,74 
			183.5,68.7 200,46.1 205.3,50.5 194.7,64.9 211.5,57.9 		"/>
	</g>
</g>
<g id="Layer_2">
	<linearGradient id="SVGID_10_" gradientUnits="userSpaceOnUse" x1="62.2814" y1="138.9844" x2="116.2811" y2="203.2342">
		<stop  offset="0" style="stop-color:#EFF0F3"/>
		<stop  offset="0.1067" style="stop-color:#E8EAEC"/>
		<stop  offset="0.2464" style="stop-color:#DCDEE1"/>
		<stop  offset="0.4046" style="stop-color:#C8CACE"/>
		<stop  offset="0.5762" style="stop-color:#ACAFB2"/>
		<stop  offset="0.7587" style="stop-color:#898C8F"/>
		<stop  offset="0.9476" style="stop-color:#606163"/>
		<stop  offset="1" style="stop-color:#515254"/>
	</linearGradient>
	<path class="st10" d="M129.7,199.6C92,198.9,61.6,168.5,61,130.8h-1.3c0.7,38.4,31.6,69.4,70,70V199.6z"/>
	<polygon class="st11" points="128.4,58.1 128.4,126.9 59.6,126.9 59.6,128.2 128.4,128.2 129.7,128.2 129.7,126.9 129.7,58.1 	"/>
	<polygon class="st12" points="129.7,130.8 129.7,200.9 128.4,199.5 128.4,132.1 	"/>
	<polygon class="st13" points="128.4,132.1 61,132.1 59.7,130.8 129.7,130.8 	"/>
	<polygon class="st14" points="133.2,200.8 133.2,131.7 202.3,131.7 202.3,130.8 132.2,130.8 132.2,200.9 	"/>
	<linearGradient id="SVGID_11_" gradientUnits="userSpaceOnUse" x1="150.6244" y1="78.5594" x2="167.6246" y2="128.8098">
		<stop  offset="0" style="stop-color:#FFFFFF"/>
		<stop  offset="0.1067" style="stop-color:#F7F8F8"/>
		<stop  offset="0.2464" style="stop-color:#E9EAEB"/>
		<stop  offset="0.4046" style="stop-color:#D3D4D6"/>
		<stop  offset="0.5762" style="stop-color:#B3B5B7"/>
		<stop  offset="0.7587" style="stop-color:#8D8F92"/>
		<stop  offset="0.9476" style="stop-color:#616264"/>
		<stop  offset="1" style="stop-color:#515254"/>
	</linearGradient>
	<polygon class="st15" points="133.6,58.4 133.6,127 202.3,127 202.3,128.4 132.2,128.4 132.2,58.2 	"/>
	<linearGradient id="SVGID_12_" gradientUnits="userSpaceOnUse" x1="142.3577" y1="53.983" x2="208.3577" y2="120.983">
		<stop  offset="0" style="stop-color:#EFF0F3"/>
		<stop  offset="0.1067" style="stop-color:#E8EAEC"/>
		<stop  offset="0.2464" style="stop-color:#DCDEE1"/>
		<stop  offset="0.4046" style="stop-color:#C8CACE"/>
		<stop  offset="0.5762" style="stop-color:#ACAFB2"/>
		<stop  offset="0.7587" style="stop-color:#898C8F"/>
		<stop  offset="0.9476" style="stop-color:#606163"/>
		<stop  offset="1" style="stop-color:#515254"/>
	</linearGradient>
	<path class="st16" d="M201,127l1.3,1.3c-0.7-38.4-31.6-69.4-70-70.1l1.3,1.3c36.6,1.3,66.1,30.8,67.4,67.4L201,127z"/>
	<path class="st17" d="M60.9,126.9c1.3-36.7,30.8-66.1,67.5-67.5l1.3-1.3c-38.4,0.7-69.4,31.7-70.1,70.1L60.9,126.9z"/>
	<path class="st18" d="M201,131.7c-1.2,36.8-30.9,66.6-67.8,67.8l-1,1.3c38.4-0.7,69.4-31.6,70-70C202.3,130.8,201,131.7,201,131.7z
		"/>
</g>
</svg>
