<?xml version="1.0" encoding="UTF-8" standalone="no"?>
<!-- Created with Inkscape (http://www.inkscape.org/) -->

<svg
   xmlns:dc="http://purl.org/dc/elements/1.1/"
   xmlns:cc="http://creativecommons.org/ns#"
   xmlns:rdf="http://www.w3.org/1999/02/22-rdf-syntax-ns#"
   xmlns:svg="http://www.w3.org/2000/svg"
   xmlns="http://www.w3.org/2000/svg"
   xmlns:sodipodi="http://sodipodi.sourceforge.net/DTD/sodipodi-0.dtd"
   xmlns:inkscape="http://www.inkscape.org/namespaces/inkscape"
   width="210mm"
   height="297mm"
   viewBox="0 0 210 297"
   version="1.1"
   id="svg8"
   inkscape:version="0.92+devel (b071ae7561, 2017-11-25, custom)"
   sodipodi:docname="drawing.svg">
  <style
     id="style10">.start { stroke-dasharray: 1100 2200; stroke-dashoffset: 1100; transition: all 5s linear;  }
</style>
  <defs
     id="defs2">
    <clipPath
       clipPathUnits="userSpaceOnUse"
       id="clipPath27">
      <path
         style="fill:none;stroke:#ff0000;stroke-width:0.565;stroke-linecap:butt;stroke-linejoin:round;stroke-miterlimit:4;stroke-opacity:1"
         d="m 38.520222,22.413968 c -1.035653,4.159398 -0.254958,7.462451 -0.250566,7.466843 l -1.236123,-2.939965 4.660514,-1.135895 c 0.17989,-0.107934 2.423692,-1.029927 2.605876,-1.41987 0.573535,-0.47552 -0.09114,-1.445072 -0.384199,-1.38646 -1.410494,-0.992886 -1.74744,-1.095973 -2.505652,-1.436575 -1.293368,-0.197629 -0.384018,-0.324202 -4.142676,-0.601356 -0.434314,0.0071 -0.684879,0.07963 -1.119193,0.567948 3.591436,3.93926 6.999121,5.891064 10.590557,8.853302 0.121406,-0.121407 0.06751,-7.317198 -0.167045,-7.216276 -0.122754,0.05282 0.250566,5.746296 0.334087,5.545842 0.08352,-0.200451 0.668173,-2.956669 1.837478,-3.992338 1.169305,-1.03567 2.305201,-1.553504 2.839738,-1.520095 0.534541,0.03341 3.412517,-0.22 3.412517,-0.22 0,0 1.216612,-0.02362 2.019811,1.441034 0.803201,1.464657 -0.696894,4.122302 -0.696894,4.122302 0,0 -0.921317,1.110305 -1.759951,1.346541 -0.838636,0.236236 -1.287481,0.212611 -1.67727,0 -0.389787,-0.212611 -0.578776,-1.252045 -0.578776,-1.252045 0,0 0.283482,-4.488469 2.433222,-5.622397 2.14974,-1.133929 6.903358,11.627041 6.903358,11.627041 0,0 -1.052373,-3.92552 -0.534538,-7.333207 0.517834,-3.407687 1.520095,-7.734112 1.520095,-7.734112 0,0 0.534537,-1.386461 1.637024,-1.319644 1.102487,0.06682 1.369756,0.367496 1.603619,1.069078 0.23386,0.701583 -7.633886,5.395504 -7.633886,5.395504 l 6.681738,-0.300678 2.00452,-1.219417 c 0,0 -0.902033,5.579251 -0.701582,5.712887 0.200453,0.133633 0.668176,0.935442 1.436573,0.484426 0.768401,-0.45102 2.088044,-1.870888 2.088044,-1.870888 l -1.88759,-8.753077 -2.004523,2.221678 5.896634,-0.417609 -0.217154,6.464583 c 0,0 0.167042,2.321904 1.035669,2.589173 0.868624,0.267268 2.706103,-0.35079 2.706103,-0.35079 0,0 -5.09465,-5.704071 -5.094825,-5.629366 -7.94e-4,0.340929 5.650121,-0.05939 5.662774,-0.116931 l 1.670433,2.104748 c 0,0 1.586913,0.484426 2.45554,-0.701583 0.868625,-1.186008 1.386459,-1.302938 0.851921,-2.138156 -0.53454,-0.835217 -1.870887,-0.03341 -1.870887,-0.03341 0,0 -1.603618,1.753956 -1.77066,3.541321 -0.167045,1.787363 -0.534541,2.037929 0,3.240643 0.534537,1.202711 3.80859,0.734991 4.092564,-0.952148 0.283975,-1.68714 2.372016,-2.873148 2.372016,-2.873148 0,0 1.603619,-0.06682 2.388722,-0.734991 0.785103,-0.668174 0.818512,-2.071338 0.818512,-2.071338 0,0 -0.400904,-0.53454 -1.035669,-0.551244 -0.634764,-0.0167 -1.386459,1.319643 -1.386459,1.319643 l -1.135896,2.889852 c 0,0 -0.434313,2.037929 -0.167044,2.889853 0.267269,0.851921 2.138156,0.668173 2.438834,0.634764 0.30068,-0.03341 1.954408,-1.553503 1.954408,-1.553503 l 2.204974,1.570207 c 0,0 0.317383,-6.23072 -0.06681,-7.082642 -0.384202,-0.851922 0.434311,6.013564 0.434311,6.013564 0,0 0.400904,-3.357573 2.422131,-4.860964 2.021226,-1.503391 2.104747,-0.918739 2.104747,-0.918739 l 8.030752,-0.345876 c 0,0 1.74814,0.47247 2.05524,2.433222 0.30711,1.960751 -1.72451,4.015998 -1.72451,4.015998 0,0 -0.66146,0.826822 -1.93713,0.732327 -1.275674,-0.09449 -1.11031,-0.637834 -1.11031,-0.637834 0,0 -0.307104,-1.039434 0.16537,-2.504094 0.47247,-1.464656 0.99219,-2.574962 0.99219,-2.574962 0,0 0.0236,-1.133928 1.44103,-1.370163 1.41741,-0.236235 7.60677,0.07087 7.60677,0.07087 0,0 0.94494,0.519718 1.44104,1.866258 0.49609,1.34654 -0.68509,3.354539 -0.68509,3.354539 0,0 -1.08668,1.346538 -2.40959,1.795386 -1.32292,0.448847 -1.63003,-0.590588 -1.63003,-0.590588 0,0 -0.37797,-2.267857 0.4016,-3.732514 0.77958,-1.464658 0.94494,-2.102493 1.91351,-2.716704 0.96856,-0.614211 5.0318,6.756323 5.0318,6.756323 0,0 0.16537,-9.567521 0.0945,-10.276226 -0.0709,-0.708706 -0.0236,8.811569 -0.0236,8.811569 0,0 0.4961,-3.921502 1.98438,-4.653831 1.48828,-0.732329 0.92131,-0.637835 0.92131,-0.637835 0,0 0.94495,-0.637835 2.008,-0.543341 1.06306,0.09449 1.72452,0.826823 1.72452,0.826823 0,0 0.56696,0.779576 0.0473,1.511905 -0.51972,0.732329 -0.77958,1.393787 -1.70089,1.700894 -0.92132,0.307104 -2.59859,0.377975 -3.04744,-0.212613 -0.44885,-0.590588 2.10249,2.645832 2.10249,2.645832 0,0 1.84264,1.842635 2.88207,1.535531 1.03944,-0.307108 1.63002,-1.771764 1.46466,-1.842635 -0.16536,-0.07087 11.41016,-4.134115 11.41016,-4.134115 0,0 -1.03944,-2.055245 -2.62221,-2.078869 -1.58278,-0.02362 -2.22061,1.771763 -2.22061,1.771763 0,0 -1.32292,3.543526 -0.94494,4.724703 0.37797,1.181174 1.39378,0.826823 1.39378,0.826823 0,0 4.22861,-4.204985 4.25224,-5.031808 0.0236,-0.826823 0.77957,-4.464844 0.47247,-5.787761 -0.30711,-1.322916 -0.30711,8.646205 -0.30711,8.646205 0,0 -0.14174,1.110305 0.61421,1.842635 0.75595,0.732329 3.68527,-6.52009 3.68527,-6.52009 0,0 -1.13393,5.929503 -0.51972,6.401972 0.61421,0.472469 3.23642,-1.488281 3.23642,-1.488281 l -1.96075,-8.598959 -1.67727,1.606399 5.85863,9.236793 c 0,0 0.21261,-6.520089 -0.21261,-6.992559 -0.42522,-0.47247 0.4016,5.764138 0.4016,5.764138 0,0 0.18899,-2.858446 2.24423,-4.464845 2.05525,-1.606399 2.26786,-1.063058 2.26786,-1.063058 l 1.51191,2.338728 c 0,0 1.34654,0.188988 2.29148,-0.448847 0.94494,-0.637835 0.8032,-2.22061 0.8032,-2.22061 0,0 0.18899,-0.496094 -0.70871,-0.779576 -0.89769,-0.283482 -2.45684,2.952939 -2.45684,2.952939 0,0 -0.8032,2.740328 -0.4961,3.401786 0.30711,0.661459 0.30711,1.700893 1.91351,1.582775 1.6064,-0.118118 2.55134,-1.677271 2.55134,-1.677271 l 5.38616,-3.590772 c 0,0 0.21261,-1.322917 -1.11031,-2.055246 -1.32292,-0.732328 -2.64583,4.323102 -2.64583,4.323102 0,0 -0.28348,2.4096 1.27567,2.574964 1.55915,0.165365 4.06324,-2.645833 4.06324,-2.645833 l 2.22061,-6.779948 -0.18899,7.252417 c 0,0 0.28349,1.441035 1.6064,2.173364 1.32292,0.732327 2.17337,-0.685083 2.17337,-0.685083 l -5.03181,-5.504277 c 1.93396,0.261462 3.79887,0.03931 5.69326,0.02362 L 46.042307,44.299288 c 0,0 1.913504,1.535528 2.102493,3.567147 0.188987,2.031624 1.252046,3.023809 1.252046,3.023809 0,0 1.299292,-1.110303 1.771764,-2.055246 0.472469,-0.944936 2.811197,-5.976747 2.811197,-5.976747 l 6.80357,1.393788 c 0,0 -2.622208,-1.393788 -3.189173,-1.110303 -0.566965,0.28348 -1.204799,0.803198 -1.795386,2.905691 -0.59059,2.102493 -0.685083,4.086868 -0.685083,4.086868 0,0 0.259858,0.992185 0.874069,0.874067 0.614212,-0.118118 2.14974,-2.315104 2.14974,-2.315104 0,0 2.55134,-4.039619 2.480469,-4.323104 -0.07087,-0.283477 -0.779576,4.606589 -0.614212,4.913691 0.165365,0.307107 0.07087,1.299297 0.566965,1.511906 0.496094,0.212611 3.685268,-6.401972 3.708892,-6.283852 0.02363,0.118118 0,5.764136 -0.188989,6.11849 -0.188987,0.354351 1.417413,-1.488284 1.417413,-1.488284 l 3.071055,-4.417597 c 0,0 0.236236,-0.330729 0.377976,0.118118 0.14174,0.448847 1.015812,5.126302 1.015812,5.126302 0,0 0.425223,1.110308 1.55915,0.212611 1.13393,-0.897694 1.346542,-1.96075 1.346542,-1.96075 l 5.835009,-7.630393 c 0,0 0.661459,0.874067 0.614212,3.094678 -0.04725,2.220613 -0.377976,5.220795 -0.377976,5.220795 l 0.02363,1.511906 c 0,0 -0.09449,1.700895 0.897695,-0.779576 0.992187,-2.480469 2.527715,-5.66964 3.590774,-5.362538 1.063059,0.307107 0.661458,2.787578 0.661458,2.787578 0,0 -0.118118,3.236418 0.04725,3.685265 0.165364,0.44885 0.472471,0.543343 0.472471,0.543343 l 2.69308,-4.370353 c 0,0 1.41741,0.637839 2.669456,-0.54334 1.252048,-1.181177 0.850447,-2.126115 0.850447,-2.126115 0,0 -0.07087,-0.968563 -1.252045,-0.732327 -1.181177,0.236233 -2.173364,2.929313 -2.173364,2.929313 0,0 -0.637834,3.236423 -0.18899,3.96875 0.448847,0.732327 1.346542,1.511906 2.669458,0.708705 1.32292,-0.803201 1.535528,-1.535528 1.535528,-1.535528 l 2.244233,-8.07924 c 0,0 0.118121,7.087055 -0.07087,7.394157 -0.188989,0.30711 0.921317,1.819013 1.252046,1.913504 0.330729,0.0945 2.480469,-0.09449 2.55134,-0.519716 0.07087,-0.42522 -5.173549,-5.433409 -5.173549,-5.433409 l 5.622396,-0.09449 10.654204,-0.28348 c 0,0 -0.82683,-1.511906 -2.50409,-0.637836 -1.67727,0.874069 -2.69308,5.079055 -2.69308,5.079055 0,0 -0.0945,2.031622 1.01581,1.84263 1.1103,-0.188984 3.56715,-2.220603 3.56715,-2.220603 l 2.05524,-3.094683 -0.4016,-1.488281 0.99219,6.023996 c 0,0 -0.0945,3.189174 -0.87407,4.086865 -0.77958,0.897697 -2.008,1.157555 -2.43322,1.181177 -0.42523,0.02363 -2.52772,-0.28348 -2.76395,-1.039434 -0.23624,-0.755957 9.09505,-7.606771 9.09505,-7.606771 0,0 1.27567,0.850445 2.66946,-0.448847 1.39378,-1.299295 0.51971,-2.362351 0.51971,-2.362351 0,0 -0.51971,-0.992187 -1.39378,-0.04725 -0.87407,0.944941 -2.07887,4.015999 -2.14974,4.417597 -0.0709,0.401598 -0.0473,2.456847 0.59058,2.858447 0.63784,0.401598 2.45685,0.377976 3.75614,-1.13393 1.2993,-1.511903 2.29148,-6.000374 2.29148,-6.000374 0,0 0,5.551527 -0.0236,6.638208 -0.0236,1.086681 2.26785,-3.567152 2.26785,-3.567152 l 1.81902,-2.574962 c 0,0 0.61421,-0.755952 0.92131,0.755954 0.30711,1.511906 0.18899,3.330916 0.18899,3.330916 l 0.14174,1.960748 c 0,0 0,0.614214 0.54334,-0.165362 0.54334,-0.779579 3.68527,-5.504278 3.68527,-5.504278 0,0 -0.35435,1.771764 -0.33073,2.480469 0.0236,0.708705 0.68508,3.141927 1.55915,3.141927 0.87407,0 1.37017,-0.377976 1.86626,-0.826823 0.49609,-0.448847 7.01618,-5.409787 7.01618,-5.409787 0,0 -2.8112,-1.252043 -3.5199,-0.708705 -0.70871,0.543343 -1.53553,3.354538 -1.53553,3.354538 0,0 -0.68508,3.236423 -0.49609,3.472659 0.18898,0.236236 0.59059,0.708705 1.37016,0.14174 0.77958,-0.566965 3.5199,-4.488466 3.5199,-4.488466 l 0.59059,-1.81901 c 0,0 -1.01581,6.425594 -0.49609,6.638205 0.51972,0.212614 0.7087,0.07087 0.7087,0.07087 l 3.2128,-10.228977 c 0,0 0,9.851006 -0.0709,10.110864 -0.0709,0.259858 0.73233,-3.945128 0.82682,-4.086868 0.0945,-0.14174 0.89769,-1.81901 2.38598,-2.669458 1.48828,-0.850445 3.44903,0.165365 3.44903,0.165365 0,0 0.96856,1.370163 -0.11812,2.291482 -1.08668,0.921316 -1.93713,1.630021 -2.90569,1.582777 -0.96857,-0.04725 -1.51191,-0.661461 -1.51191,-0.661461 l 2.12612,2.83482 c 0,0 1.6064,1.511906 2.14974,1.464657 0.54334,-0.04725 1.72452,-0.519716 2.05525,-1.606397 0.33072,-1.086683 2.81953,-8.3254 2.81953,-8.3254 l -0.20045,6.548104 0.33409,2.40543"
         id="path29"
         inkscape:connector-curvature="0"
         sodipodi:nodetypes="ccccccccccscsccsccccscscccccccscccccscsccsccccsccccccscccccscccccccccccccccccccscccccscscccccccccscsccccsccccsccccsccscsccccccccccscccccscccccsccscccccccccccccccscccccccscccccccccccccccccccccscccccsccssccccccccccccccccccccccc"
         class="start"
         onload="setTimeOut(()=&gt;this.style.strokeDashoffset = &quot;0&quot;, 200)" />
    </clipPath>
  </defs>
  <sodipodi:namedview
     id="base"
     pagecolor="#ffffff"
     bordercolor="#666666"
     borderopacity="1.0"
     inkscape:pageopacity="0.0"
     inkscape:pageshadow="2"
     inkscape:zoom="1.4"
     inkscape:cx="438.90098"
     inkscape:cy="971.51721"
     inkscape:document-units="mm"
     inkscape:current-layer="layer1"
     inkscape:document-rotation="0"
     showgrid="false"
     inkscape:window-width="1920"
     inkscape:window-height="1137"
     inkscape:window-x="1912"
     inkscape:window-y="892"
     inkscape:window-maximized="1" />
  <metadata
     id="metadata5">
    <rdf:RDF>
      <cc:Work
         rdf:about="">
        <dc:format>image/svg+xml</dc:format>
        <dc:type
           rdf:resource="http://purl.org/dc/dcmitype/StillImage" />
        <dc:title></dc:title>
      </cc:Work>
    </rdf:RDF>
  </metadata>
  <g
     inkscape:label="Layer 1"
     inkscape:groupmode="layer"
     id="layer1">
    <text
       xml:space="preserve"
       style="font-size:16.93333244px;font-family:'Bradley Hand ITC';-inkscape-font-specification:'Bradley Hand ITC';text-align:center;text-anchor:middle;stroke-width:0.26458332"
       x="101.29762"
       y="29.770832"
       id="text12"
       clip-path="url(#clipPath27)"
       class="start"
       onload="setTimeout(()=&gt;this.style.strokeDashoffset = &quot;0&quot;, )"><tspan
         sodipodi:role="line"
         id="tspan10"
         x="101.29762"
         y="29.770832"
         style="stroke-width:0.26458332">Profiteer ook direct</tspan><tspan
         sodipodi:role="line"
         x="101.29762"
         y="50.937496"
         style="stroke-width:0.26458332"
         id="tspan14">van het gemak!</tspan></text>
  </g>
</svg>
