<?xml version="1.0" encoding="utf-8"?>
<!-- Generator: Adobe Illustrator 22.0.1, SVG Export Plug-In . SVG Version: 6.00 Build 0)  -->
<svg version="1.1" id="Layer_3" xmlns="http://www.w3.org/2000/svg" xmlns:xlink="http://www.w3.org/1999/xlink" x="0px" y="0px"
	 viewBox="0 0 305 440" style="enable-background:new 0 0 305 440;" xml:space="preserve">
<style type="text/css">
	.st0{fill:#267AFB;}
	.st1{fill:#FFFFFF;}
	.st2{font-family:'ArialMT';}
	.st3{font-size:100px;}
	.st4{fill:#FED23A;}
</style>
<rect class="st0" width="305" height="440"/>
<text transform="matrix(1 0 0 1 95.125 387.3336)" class="st1 st2 st3">NL</text>
<polygon class="st4" points="151.4,75.1 155.4,66.8 159.6,75.1 168.8,76.3 162.2,82.8 163.8,91.9 155.6,87.7 147.5,92.1 149,82.9 
	142.3,76.5 "/>
<polygon class="st4" points="150.9,192.7 154.9,184.4 159.1,192.6 168.2,193.9 161.7,200.4 163.3,209.5 155.1,205.2 147,209.6 
	148.4,200.5 141.8,194.1 "/>
<polygon class="st4" points="91.8,135.4 95.8,127.1 99.9,135.3 109.1,136.6 102.5,143.1 104.2,152.2 95.9,147.9 87.8,152.3 
	89.3,143.2 82.6,136.8 "/>
<polygon class="st4" points="210,133.6 214.1,125.3 218.2,133.5 227.4,134.8 220.8,141.3 222.5,150.4 214.2,146.1 206.1,150.5 
	207.6,141.4 200.9,135 "/>
<polygon class="st4" points="183.6,183.3 187.6,175 191.8,183.3 200.9,184.5 194.4,191 196,200.1 187.8,195.9 179.7,200.2 
	181.1,191.1 174.5,184.7 "/>
<polygon class="st4" points="204.3,161.4 208.3,153.1 212.5,161.4 221.7,162.6 215.1,169.1 216.7,178.2 208.5,174 200.4,178.4 
	201.9,169.2 195.2,162.9 "/>
<polygon class="st4" points="119.3,183.3 123.3,175 127.4,183.3 136.6,184.5 130,191 131.7,200.1 123.5,195.9 115.3,200.2 
	116.8,191.1 110.1,184.7 "/>
<polygon class="st4" points="98.5,162.3 102.5,154 106.7,162.2 115.8,163.5 109.3,170 110.9,179 102.7,174.8 94.6,179.2 96.1,170.1 
	89.4,163.7 "/>
<polygon class="st4" points="100.7,105.4 104.8,97.1 108.9,105.3 118.1,106.6 111.5,113.1 113.1,122.2 104.9,118 96.8,122.3 
	98.3,113.2 91.6,106.8 "/>
<polygon class="st4" points="123,82.5 127,74.2 131.1,82.5 140.3,83.7 133.7,90.2 135.4,99.3 127.1,95.1 119,99.4 120.5,90.3 
	113.8,83.9 "/>
<polygon class="st4" points="177.9,81.4 181.9,73 186.1,81.3 195.2,82.5 188.6,89 190.3,98.1 182.1,93.9 173.9,98.3 175.4,89.1 
	168.8,82.8 "/>
<polygon class="st4" points="200.9,106.6 204.9,98.3 209,106.5 218.2,107.8 211.6,114.3 213.3,123.3 205.1,119.1 196.9,123.5 
	198.4,114.4 191.7,108 "/>
</svg>
