<?xml version="1.0" encoding="utf-8"?>
<!-- Generator: Adobe Illustrator 22.0.1, SVG Export Plug-In . SVG Version: 6.00 Build 0)  -->
<svg version="1.1" id="Layer_1" xmlns="http://www.w3.org/2000/svg" xmlns:xlink="http://www.w3.org/1999/xlink" x="0px" y="0px"
	 viewBox="0 0 128 75.8" style="enable-background:new 0 0 128 75.8;" xml:space="preserve">
<style type="text/css">
	.st0{fill:#ADC941;}
	.st1{fill:#319ED6;stroke:#309DD5;stroke-miterlimit:10;}
	.st2{fill:#FEFFFF;}
	.st3{fill:#FFFFFF;}
	.st4{font-family:'Calibri';}
	.st5{font-size:18px;}
</style>
<polygon class="st0" points="127.3,12.3 89,48.3 72.4,32 82.1,22.6 87.9,28.5 115.3,1.3 "/>
<path class="st0" d="M45.8,21.5L40.9,49h9.3c0,0,0.1-7.5,1.6-9.4s5.6-1.4,6.4-0.1S58,49,58,49h8.9c0,0,1.6-9.4,0.5-10.6
	c-1.1-1.2-3.3-1.7-2.1-3.4c1.4-1.9,5.2-4,4.5-4c0,0,1.1-4.1-0.7-6.8S62.7,21,62.7,21L45.8,21.5z"/>
<polygon class="st1" points="115.9,28.3 115.9,59.3 113.9,60.9 1.4,60.9 2.6,52.4 107.4,51.9 107.4,35.6 "/>
<path class="st1" d="M93.4,18.7l8.3-9.1H21.6c-9.8,2.1-15,6.9-13.1,17c1.1,2.5,5.4,7.5,17.1,9.1c2.6,0.4,1.5,3.8-0.3,4.9
	c-1.8,1.1-5.5,1.8-10.3-2.9L4.3,37.8c-0.6,5.4,1.9,9.5,8.1,11.8c0,0,5.9,0.6,7.1,0.6s7.5-0.6,7.5-0.6c8.1-3,11.6-7.8,11.5-14.1
	c0.9-7-6.8-9.2-12-9.8c-4.1-0.4-7.1-3.8-6.7-4.8c0.5-2.1,2.7-2.9,7.1-2.8L93.4,18.7z"/>
<path class="st2" d="M52.9,32.8c0,0.4,5.1,0.8,6.6,0s2.5-2.2,1.3-4.1c-1-1.7-3.4-1.5-4-1.5c-0.3,0-3.3,0.4-3.3,0.4
	S52.9,32.4,52.9,32.8z"/>
<polyline class="st1" points="115.9,58.7 115.9,57.8 115.9,71.5 112,73.8 50.4,73.8 46.3,71.5 46.3,57.8 115.9,57.8 "/>
<text transform="matrix(1 0 0 1 53.6023 69.1474)" class="st3 st4 st5">AUTO&apos;S</text>
</svg>
