<?xml version="1.0" encoding="utf-8"?>
<!-- Generator: Adobe Illustrator 22.0.1, SVG Export Plug-In . SVG Version: 6.00 Build 0)  -->
<svg version="1.1" xmlns="http://www.w3.org/2000/svg" xmlns:xlink="http://www.w3.org/1999/xlink" x="0px" y="0px"
	 viewBox="0 0 116 117" style="enable-background:new 0 0 116 117;" xml:space="preserve">
<style type="text/css">
	.st0{fill:#7F817A;stroke:#7F817A;stroke-miterlimit:10;}
	.st1{fill:#FFFFFF;stroke:#FFFFFF;stroke-miterlimit:10;}
	.st2{fill:#9A9B98;stroke:#9A9B98;stroke-miterlimit:10;}
</style>
<g id="Layer_1">
	<path class="st0" d="M77.3,14L77.3,14C77.2,14,77.2,14,77.3,14C77.2,14,77.2,14,77.3,14L77.3,14c-1.7,0-2.9,1.2-3.8,3.1
		c-1.1,2.3-1.2,5.4-1.2,8.6c0,3.2,0.1,6.5,1.2,8.7c0.9,1.8,2.1,3,3.7,3v0c0,0,0,0,0,0c0,0,0,0,0,0v0c1.5,0,2.7-1.1,3.6-2.9
		c1.1-2.2,1.3-5.2,1.3-8.4c0-3.3-0.1-6.8-1.2-9.1C80.1,15.3,78.8,14.1,77.3,14z"/>
	<path class="st0" d="M57,24.2h11.5c0,0,0,8.8,1,11.8c0.9,2.7,3.9,6.4,7.8,6.6c3.8,0.2,7.9-3.5,8.2-8c0.2-3.3,0.3-10.4,0.3-10.4
		h14.8v75.1H14V24.2h13.5c0,0,0.4,8.7,1.2,11.6s2.5,7,7.7,7s7.5-5,8-7.5c0.8-3.6,0.7-11.1,0.7-11.1H57z"/>
	<path class="st0" d="M36.7,13.5L36.7,13.5C36.7,13.5,36.6,13.5,36.7,13.5C36.6,13.5,36.6,13.5,36.7,13.5L36.7,13.5
		c-1.7,0-2.9,1.2-3.8,3.1c-1.1,2.3-1.2,5.4-1.2,8.6c0,3.2,0.1,6.5,1.2,8.7c0.9,1.8,2.1,3,3.7,3v0c0,0,0,0,0,0c0,0,0,0,0,0v0
		c1.5,0,2.7-1.1,3.6-2.9c1.1-2.2,1.3-5.2,1.3-8.4c0-3.3-0.1-6.8-1.2-9.1C39.5,14.8,38.3,13.6,36.7,13.5z"/>
</g>
<g id="Layer_2">
	<rect x="19.4" y="49.7" class="st1" width="74.6" height="45.6"/>
</g>
<g id="Layer_3">
	<rect x="70.4" y="53.6" class="st0" width="19.7" height="9.7"/>
	<rect x="46.9" y="53.6" class="st0" width="19.7" height="9.7"/>
	<rect x="23.2" y="53.7" class="st0" width="19.7" height="9.7"/>
	<rect x="70.6" y="82" class="st0" width="19.7" height="9.7"/>
	<rect x="47" y="82" class="st0" width="19.7" height="9.7"/>
	<rect x="23.3" y="82.1" class="st0" width="19.7" height="9.7"/>
	<rect x="70.5" y="67.6" class="st0" width="19.7" height="9.7"/>
	<rect x="47" y="67.6" class="st2" width="19.7" height="9.7"/>
	<rect x="23.3" y="67.7" class="st0" width="19.7" height="9.7"/>
</g>
</svg>
