<?xml version="1.0" encoding="utf-8"?>
<!-- Generator: Adobe Illustrator 22.0.1, SVG Export Plug-In . SVG Version: 6.00 Build 0)  -->
<svg version="1.1" id="Layer_1" xmlns="http://www.w3.org/2000/svg" xmlns:xlink="http://www.w3.org/1999/xlink" x="0px" y="0px"
	 viewBox="0 0 101 99" style="enable-background:new 0 0 101 99;" xml:space="preserve">
<style type="text/css">
	.st0{fill:#7F817A;}
	.st1{fill:none;stroke:#7F817A;stroke-miterlimit:10;}
</style>
<path class="st0" d="M23,64.9c-0.6,2.4-1,25.3-0.8,25.7c0.2,0.5-9.6,0.4-10.8,0.2c-0.7-1.1,2.5-10,4.1-13.8S23.5,62.8,23,64.9z"/>
<path class="st0" d="M66,57.4c1.9-0.7,3.3,0.5,3.5,1.2s0.3,21,0,32.5h-2.4L67,83.8c0,0-14,0.1-14.1-0.1s5.3-4.1,6.5-4.5
	c1.9-0.7,2-10.7,0.4-11c-0.5,1.3-2.5,5.3-3.6,5.5s-4.4-0.8-4.3-2.2c0.1-1.4,1.1-3.2,2.8-5.2c-3.3,0-8.7,3.8-8.3,5.5
	c0.2,1,0,3.7-0.6,5.9c-0.5,1.9-1.5,3.4-1.7,3.6c-0.3,0.4-1,2.2-1.8,2.3c-2.6,0.5-8.6,0-8.6,0v7.6h-2.7c-0.2-11.2,0-30.7,0.6-31.7
	c0.5-1.1,1.3-2.4,2.8-2c0.3,0.1,8.2,6.3,16,6.4C58.6,63.9,64.2,58.1,66,57.4z"/>
<path class="st1" d="M50,57.4c7.6,0.2,15-7.9,18.3-17c0.4-1.1,1.5-1.5,1.7-2.9c0.1-0.7,0.2-2.1,0.2-3.4s0.2-2.6,0-3.4
	c-0.2-0.7-2.2-0.9-2.4-1.7c-1.1-4.2-1.8-8.3-2.2-12.1c-10-8.3-20.4-8.4-31.4,0c-0.5,4.3-0.7,8.4-1.5,11.8c-0.2,0.9-1.8,1.9-2.1,2.7
	c-0.6,1.6,0.1,3,0,4.6c0.1,3.1,1.5,3.5,2.3,5.2C37,50,42.7,57.2,50,57.4z"/>
<path class="st0" d="M77.9,65.4c0.6,2.1,0.8,25.1,0.8,25.7c0.1,0.9,9.2,0.3,10.7,0.2c1.5-0.1-2.5-10-4.1-13.8
	C83.8,73.6,77.3,63.3,77.9,65.4z"/>
<path class="st0" d="M32.3,30.1c1.5,0.6,14.5-3.8,16.6-3.6s1.8,3.4,1,3.4c-3.4,0.1-13.4,1.8-13.8,2.3c-0.4,0.6,2.6,2.7,3.3,2.8
	s7.7-1.8,12.7-2.3c0.7-0.7,9.7,3.1,9.7,2.7c-0.1-0.8,5.9-5.3,7.1-4.5c-2.3-4.1-3.2-8.9-3.4-13.9c0,0-10.4-8.4-15.6-6.3
	c-0.1,0-3.7,0.4-7.2,1.7c-4,1.5-7.9,4-8,4.1c-1.3,1-2.4,13.8-2.4,13.8"/>
</svg>
