<?xml version="1.0" encoding="utf-8"?>
<!-- Generator: Adobe Illustrator 22.0.1, SVG Export Plug-In . SVG Version: 6.00 Build 0)  -->
<svg version="1.1" id="Layer_1" xmlns="http://www.w3.org/2000/svg" xmlns:xlink="http://www.w3.org/1999/xlink" x="0px" y="0px"
	 viewBox="0 0 185 107" style="enable-background:new 0 0 185 107;" xml:space="preserve">
<style type="text/css">
	.st0{enable-background:new    ;}
</style>
<g class="st0">
	<path d="M24,37.8l-0.1,0.3c0,0.1-0.1,0.2-0.2,0.3l-0.3,0.3v0.1c-0.2,0-0.3,0.1-0.4,0.2c-0.1,0.1-0.2,0.2-0.2,0.2
		c-0.1,0.2-0.4,0.4-0.9,0.5c-0.2,0.2-0.4,0.4-0.7,0.4h-0.1v0.1h-0.4l-0.2,0.2l-0.2,0c0,0.1,0,0.2-0.1,0.2l-0.2,0.2h-0.5L19.1,41
		l-0.9,0.2l-0.1,0.1l-0.5,0c0,0-0.1,0.2-0.2,0.4c-0.1,0-0.3-0.1-0.6-0.1l-0.2,0.1l-0.3,0.1c-0.1,0.1-0.3,0.2-0.5,0.2l-0.1,0.4
		l0.2,0.4l-0.1,0.5l0.2,0.6l-0.1,0.1l0.2,0.2v0.4l0.1,0.2v0.4l0.5,0c0.1,0.1,0.1,0.1,0.1,0.2c0,0.2-0.1,0.3-0.4,0.3h-0.1l-0.3,0.1
		l-0.3-0.5l-0.4-0.8v-0.9l-0.2-0.4l0.2-0.2L15,42.5l0-0.3L14.9,42L14,41.9l-0.2-0.3l1-0.1l-0.1-0.1c0,0,0.1,0,0.1,0
		c0.1,0,0.1,0,0.1,0v-0.5l0.1-0.2l0.1-1.3l0.1-0.2l0-1l0.1-0.5l0-1.2l0.1-0.3l0.2-0.1l0-0.3c0-0.1,0.1-0.2,0.2-0.2
		c0.5,0,0.7,0.2,0.7,0.5c0,0.1-0.1,0.2-0.2,0.5c-0.1,0.2-0.2,0.4-0.2,0.5c0,0.1,0.1,0.3,0.2,0.6l-0.2,0.2l0,0.6L16,38.7l0.1,0.4
		l-0.2,0.5l0.1,0.5l-0.1,0.4l0,0.3l-0.2,0.2c0,0.2,0.1,0.4,0.3,0.4l0.5-0.3h0.4c0.2-0.2,0.4-0.3,0.7-0.3l0.1-0.1c0.1,0,0.2,0,0.3,0
		c0.3,0,0.6-0.1,0.8-0.3l0.3,0l0.3-0.2H20l0.1-0.1l1.1-0.3c0.2,0,0.3-0.1,0.3-0.1c0.1-0.1,0.1-0.1,0.1-0.2c0.1,0,0.1,0,0.2,0
		c0.2,0,0.3-0.1,0.4-0.4c0.2,0,0.3-0.1,0.4-0.1c0-0.1,0.1-0.1,0.2-0.1l0.1,0.1l0.1-0.3l0.2-0.1l0.1-0.5c-0.1-0.3-0.3-0.6-0.5-0.8
		l-0.2,0l-0.4-0.3l-0.8-0.3c-0.5-0.4-1-0.6-1.6-0.6v0.1l-0.4-0.2l-0.5,0l-0.3-0.2h-0.3l-0.3-0.2h-0.3c-0.1,0-0.3-0.1-0.3-0.2
		l-0.8-0.1c-0.2,0-0.4,0.1-0.6,0.2l-0.5-0.3L15.1,35l-0.2-0.2L14.4,35v0.1h-0.2l-0.4,0.2l-0.3,0c-0.1,0-0.2,0.1-0.4,0.2
		c-0.2-0.2-0.3-0.5-0.3-0.8l0.2-0.3v-0.1c0-0.1,0.2-0.1,0.4-0.1c0.2,0,0.4-0.1,0.6-0.2c0.2,0,0.3,0.1,0.3,0.1c0.1,0,0.1,0,0.2-0.1
		l0.2,0.1c0.1,0,0.2-0.1,0.2-0.1c0.1,0,0.1,0,0.2,0.1h1l0.6,0l0.7,0.1c0,0,0.1,0.1,0.2,0.1c0.1,0,0.1,0.1,0.1,0.1l0.2-0.2h0.1
		c0.2,0,0.2,0,0.2,0.1c0,0,0,0.1,0,0.1h0.3c0.4,0.1,0.7,0.2,0.9,0.2l0.1,0.1h0.6l0.4,0.3c0,0,0.2,0.1,0.4,0.1l0.1,0.2h0.1
		c0.4,0,0.6,0.1,0.8,0.4l0.3-0.1v0.3c0.1,0,0.3,0.1,0.5,0.3h0.2l0.2,0.3l0.7,0.4v0.2L24,37.8z"/>
	<path d="M32.4,37l-0.1,0.3l-0.6,0.1l-0.4,0.3l-0.3,0l-0.3,0.2l-0.3,0.2c-0.2,0.1-0.3,0.2-0.4,0.3v0.1l-0.3,0.2l-0.2,0.3h-0.2
		l-0.1,0.3l-0.2,0.2c-0.1,0.1-0.2,0.1-0.2,0.2L28.5,40c-0.2,0.1-0.2,0.3-0.3,0.6l-0.1,0l0,0.1l-0.2,0.1l-0.1,0.4
		c-0.2,0.2-0.2,0.4-0.2,0.5l-0.2,0.1v0.4c0,0-0.1,0.1-0.1,0.2l0,0.1l-0.2,0.1l0.1,0.2c0,0.1-0.1,0.4-0.3,0.8l0.1,0.3l-0.2,0.3
		c0,0.1,0,0.2,0,0.3l0,0.3l0.1,0.4c0,0,0,0.1,0.1,0.1l0.2,0.2c-0.1,0.2-0.2,0.3-0.3,0.4l-0.3-0.1l0,0.2l-0.5-0.1v-0.3L26,45.3
		l0.1-0.3L26,44.8l0-0.7l0-0.5c-0.1,0-0.1-0.1-0.1-0.1c0-0.1,0-0.1,0.1-0.3v-0.3c0-0.2,0-0.3,0-0.4l0.1-0.1L26,42l0.1-0.3L26,41.5
		l0.1-0.6L26,40.8l0.1-0.2l-0.1-0.4l0-0.3c0-0.1,0-0.2,0-0.4l0.1-0.1l-0.1-0.7l-0.2-0.1l0.2-0.4c-0.1-0.2-0.2-0.4-0.2-0.7v-0.3
		c-0.1-0.1-0.1-0.1-0.1-0.2c0.1-0.1,0.3-0.2,0.5-0.3l0.2,0c0,0.2,0.1,0.3,0.2,0.5l0,0.5l0.2,1.6c0,0.1,0,0.2-0.1,0.3l0.1,0.4
		l-0.1,0.3l0.1,0.3l0,0.3l0.2,0.3l-0.1,0.1l0.1,0.5l0.2,0l0.1-0.4c0,0,0.1-0.2,0.2-0.4c0.2-0.2,0.3-0.3,0.3-0.5v-0.1l0.1-0.1
		c0,0,0,0,0.1-0.1c0-0.1,0-0.1,0.1-0.1h0.1l0.1-0.4l0.3-0.2l0-0.1h0.1l-0.1-0.2l0.3-0.1l0-0.3l0.3,0c0.2-0.1,0.3-0.3,0.3-0.4l0.2,0
		c0-0.1,0.2-0.2,0.4-0.4c0,0,0.1,0,0.1-0.1l0.3-0.2l0.1-0.2l0.2-0.1c0.4-0.3,0.6-0.4,0.7-0.4h0.1c0.1,0,0.2,0,0.3-0.1l0.2,0.1
		c0.1-0.1,0.2-0.1,0.2-0.1C32.3,37,32.4,37,32.4,37z"/>
	<path d="M39.6,40.3l-0.1,0.4l0.1,0.2l-0.1,0.5c0,0.1-0.1,0.2-0.2,0.3v0.2l-0.2,0.4l-0.1,0.2c0,0-0.1,0.2-0.2,0.5l-0.2,0.1l-0.1,0.3
		l-0.2,0.1l-0.2,0.4l-0.3,0.1l0,0.3l-0.3,0.1c-0.1,0.2-0.2,0.3-0.3,0.3s-0.1,0.1-0.3,0.1c-0.1,0-0.2,0.1-0.3,0.1
		c0,0.2-0.2,0.3-0.6,0.4c-0.1,0.1-0.2,0.2-0.3,0.2c0,0-0.1,0-0.2,0c-0.2,0.2-0.4,0.3-0.5,0.3l-0.2,0.3l-0.3-0.2l-0.1,0.1l-0.3-0.1
		l-0.7-0.1c-0.1-0.2-0.3-0.5-0.5-0.7l0.1-0.3l-0.3-0.8l0.1-0.2l-0.1-0.6l0.1-0.3c0,0,0-0.1,0-0.3c0-0.1,0-0.2,0-0.3
		c0-0.1,0.1-0.3,0.2-0.3v-0.1c0-0.2,0-0.3,0.1-0.5h0.1c0.1-0.1,0.2-0.3,0.2-0.4l-0.1-0.1l0.1-0.3v-0.2c0.1-0.2,0.2-0.3,0.2-0.5
		l-0.1-0.3c0-0.1,0-0.2,0.1-0.2c0.2-0.1,0.3-0.2,0.3-0.3c0-0.1,0-0.1-0.1-0.2l0.2-0.4c0-0.1,0.1-0.1,0.1-0.1c0.1,0,0.1-0.1,0.1-0.1
		l0-0.2c0.2,0,0.3-0.1,0.3-0.3c0-0.1,0-0.2-0.1-0.4c0.5,0,0.8-0.2,0.9-0.7h0.1c0.1-0.1,0.2-0.1,0.2-0.1c0,0,0.1,0,0.2,0.1
		c0.1,0,0.3,0.1,0.5,0.1l0.3-0.1v0.1c0.1,0,0.3,0.1,0.5,0.2h0.3c0.1,0.1,0.1,0.2,0.2,0.2l0,0c0.2,0.2,0.3,0.4,0.5,0.5l0.1,0.3
		l0.2,0.1l0.3,0.5l0.3,1v0.2L39.6,40.3z M39,40.8c0.1-0.1,0.1-0.2,0.1-0.3c0,0,0-0.1-0.1-0.1c0-0.1-0.1-0.1-0.1-0.1h0.1
		c0-0.1-0.1-0.2-0.1-0.2l0-0.1l-0.1-0.3l0-0.5l-0.2-0.3c-0.2-0.1-0.2-0.2-0.2-0.2v-0.1c0-0.1,0-0.1-0.1-0.1c-0.1,0-0.1,0-0.1-0.1v0
		c0,0,0-0.1,0.1-0.3l-0.1-0.1l-0.2,0L38,37.9l0.1-0.1l-0.3-0.1l-0.2-0.2L37,37.2l-0.2-0.1c-0.4,0-0.6,0.1-0.6,0.3l0,0.7l-0.4,0
		l-0.7,0.4L35,38.8L34.8,39l-0.1,0.6l-0.2,0.1c0,0-0.1,0.1-0.1,0.3c0,0.2,0,0.3,0,0.4l-0.3,0.1c-0.1,0-0.1,0.2-0.1,0.4
		c0,0.1-0.1,0.2-0.2,0.3v0.2l-0.2,0.3v0.2l-0.1,0.1l0,0.3L33.5,43l0.1,0.2v0.5l-0.1,0.3l0,0.5l0.3,0.4c0,0.1,0.2,0.1,0.4,0.2
		l0.1,0.1l0.1,0l0.1,0l0.2-0.1l0.5,0l0.2-0.1l0.1-0.1l0.2,0c0.2,0,0.3-0.1,0.3-0.2l0.3,0.1l0.1-0.2l0.2,0l0.1-0.2
		c0.2-0.1,0.2-0.2,0.2-0.3h0.3l0.1-0.2l0.4-0.3l0.1-0.2c0.1-0.1,0.1-0.1,0.2-0.2l0.3-0.2c0-0.2,0.1-0.4,0.2-0.6l0-0.2l0.3-0.1l0-0.1
		c0.1-0.1,0.2-0.2,0.2-0.3h-0.1c0.1-0.1,0.1-0.1,0.1-0.2c0,0,0-0.1,0-0.2c0-0.1,0-0.1,0-0.1c0-0.1,0-0.2,0.1-0.3
		c0-0.1,0.1-0.2,0.1-0.2C39.1,40.9,39,40.9,39,40.8z"/>
	<path d="M50.3,32.4c0,0.1,0,0.2-0.1,0.3l-0.1-0.1l-0.2,0.1l-0.2-0.4c-0.1-0.4-0.2-0.6-0.3-0.7c-0.1-0.1-0.2-0.2-0.2-0.2L49,31.5
		c-0.2-0.1-0.4-0.2-0.6-0.2l-0.2,0.2c-0.1-0.1-0.2-0.1-0.3-0.1l-0.5,0.1c-0.1,0.1-0.1,0.2-0.1,0.3c0,0.1-0.1,0.1-0.1,0.1
		c0,0,0,0-0.1,0c0,0,0,0-0.1,0c-0.1,0-0.4,0.4-0.8,1.3c-0.1,0.4-0.1,0.6-0.2,0.7l-0.1,0c-0.1,0.3-0.2,0.5-0.3,0.8l0.2,0.4l-0.3,0.1
		c0,0.4-0.1,0.6-0.2,0.7l0,0.3l-0.3,0.8l0,0.4c0,0.1,0,0.2-0.1,0.4c-0.1,0.1-0.1,0.2-0.1,0.4c0,0.2,0.1,0.4,0.3,0.4h0.1
		c0.1-0.1,0.2-0.1,0.3-0.1h0.1c0.1,0,0.2,0,0.3,0c0,0,0.1,0,0.2,0c0.1,0,0.3,0,0.4,0h0.2c0.1-0.1,0.2-0.1,0.3-0.1
		c0.1,0,0.2,0,0.4,0.1l0.5-0.1c0,0,0,0,0.1,0c0.1,0,0.1,0,0.2,0c0.1,0,0.2,0,0.3,0c0.1,0.1,0.1,0.2,0.2,0.2c0.1-0.1,0.2-0.1,0.3-0.1
		c0,0,0.1,0,0.1,0.1c0,0,0,0.1,0,0.2l-0.6,0.2l-0.6-0.1c-0.1,0.1-0.3,0.2-0.5,0.2c-0.1-0.1-0.2-0.2-0.3-0.2c0,0-0.2,0.1-0.4,0.3
		c-0.1,0-0.2,0-0.4-0.1l-0.1,0.1l-0.3,0.1l-0.2-0.1l-0.2,0h-0.2c0,0-0.1,0.1-0.2,0.2c-0.1,0.1-0.2,0.1-0.3,0.1l-0.2,0.3l0.1,0.3
		l-0.1,0.3l0.1,0.3l-0.2,0.5l0.1,0.9l-0.1,0.3l0.1,0.3l-0.2,0.5l0.1,0.5v0c0,0,0,0.1-0.1,0.3c-0.1,0.2-0.1,0.3-0.1,0.6l0,0.6
		c0,0.2,0.1,0.3,0.2,0.4l-0.1,0.3l0.1,0.5l-0.1,0.3l0.2,1.1l0.1,1.3l0.3,0.5l-0.1,0.1l-0.1,0.3c0.2,0.2,0.3,0.4,0.3,0.6v0.1
		c0,0.2,0.1,0.3,0.1,0.4c0,0.2-0.1,0.3-0.2,0.3L44.6,51l-0.2-0.1l0-0.2L44,49.5v-0.3L43.9,49l0.1-0.2l-0.1-0.5l0.1-0.4
		c0,0,0-0.1,0-0.2c0-0.1,0-0.2-0.1-0.4c0-0.1,0-0.2,0-0.2l-0.2-1.1l0.1,0l-0.1-0.5l0-0.4L43.7,45l0.1-0.1l0-1.1l0.1-0.1v-0.9
		l0.1-0.2l-0.1-0.7l0.1-0.2l0.2-1.4c0-0.1,0-0.1,0.1-0.3c0-0.1,0-0.2,0-0.3c0,0-0.1-0.1-0.2-0.4l-0.3,0.2l-0.3-0.1l-0.2,0.1
		l-0.2-0.2l-0.1,0.1l-0.3,0.1l-0.3-0.1l-0.6,0.1l-0.3-0.1l-0.1,0.1c-0.2-0.1-0.4-0.2-0.5-0.2c-0.1-0.1-0.2-0.2-0.2-0.4l0.1-0.3
		c0-0.1,0.1-0.1,0.2-0.1c0.1,0,0.2,0,0.4,0.1l0.1,0.1l0.7-0.1l0.8,0.1l0.6-0.1l0.4,0c0.2,0,0.3,0,0.4,0.1c0,0,0.1-0.1,0.3-0.2
		l-0.1-0.2l0.1-0.4l0-0.4c0-0.1,0.1-0.3,0.1-0.5l-0.1-0.5c0,0,0-0.1,0.1-0.1s0.1-0.2,0.1-0.2V36l0.2-0.2l0.1-0.7l0.1-0.2L45,34.6
		c0.1-0.2,0.2-0.4,0.2-0.5c0,0,0-0.1,0-0.1c0-0.1,0-0.2,0.1-0.3c0.1-0.1,0.1-0.3,0.1-0.3c0-0.1,0.1-0.2,0.1-0.3
		c0.1-0.1,0.1-0.2,0.1-0.3l0-0.1v-0.1c0-0.1,0.1-0.2,0.2-0.2l-0.1-0.1c0-0.1,0.1-0.1,0.2-0.2c0.2-0.2,0.3-0.5,0.4-0.7
		c0.1,0,0.2-0.2,0.3-0.5l0.3-0.1h0.3l0.1-0.2l0.4,0.1c0.2-0.1,0.4-0.2,0.6-0.2l0.4,0.1c0.2,0.1,0.2,0.1,0.3,0.1c0.1,0,0.2,0,0.3-0.1
		c0.1,0,0.1,0.1,0.2,0.3l0.3,0.2c0.1,0.3,0.3,0.5,0.4,0.7L50.3,32.4L50.3,32.4z"/>
	<path d="M52.9,31.9c0,0.1-0.2,0.2-0.4,0.3v0.1l-0.2,0.2c-0.1,0.1-0.1,0.1-0.2,0.1c0,0-0.1,0-0.1,0l-0.6,0.7l-0.1,0.2l-0.5,0.2
		l-0.3,0.4l-0.2,0.1c-0.1,0-0.2,0.2-0.5,0.4l-0.1-0.1l0-0.3l0.5-0.2c0.1-0.3,0.2-0.5,0.3-0.6c0.1,0,0.2-0.1,0.2-0.1v-0.1l0.1-0.1
		l0,0l0.1-0.2h0.1l-0.1-0.2h0.3v-0.3l0.2,0l0.1-0.2l0.2-0.1l0.2-0.3c0.1,0,0.1,0,0.1-0.1H52l0-0.2c0.1-0.1,0.2-0.3,0.3-0.4
		C52.6,31.5,52.8,31.6,52.9,31.9z M54.9,42.5l0,0.2l-0.2,0.1l-0.1,0.3l-0.3,0.1c-0.1,0.3-0.2,0.4-0.3,0.5l-0.3,0.1L53.6,44
		c-0.1,0-0.2,0.2-0.4,0.4h-0.1c-0.1,0.1-0.2,0.2-0.5,0.2c-0.2,0.2-0.2,0.3-0.3,0.3c-0.1,0.1-0.2,0.1-0.4,0.1c-0.2,0-0.3,0.1-0.3,0.1
		l-0.1,0.1h-0.3L51,45.5l-0.5-0.4l-0.3-0.7l0-1.1l-0.1-0.2l0.2-1.7l0.1-0.1l-0.1-1.1c0-0.1,0-0.3,0.1-0.4c0-0.1,0.1-0.3,0.1-0.5
		l0.1-0.1c0-0.2,0-0.4-0.1-0.6l0.1-0.3v-0.4l0.1-0.1c0-0.1,0-0.2-0.1-0.3c0-0.1-0.1-0.2-0.1-0.2c0-0.1,0-0.2,0.1-0.2c0,0,0,0,0,0
		c-0.1-0.2-0.1-0.4-0.1-0.4c0-0.1,0-0.2,0.1-0.2c0,0,0.1,0,0.1,0.1c0.1,0,0.1,0.1,0.2,0.1c0,0,0,0,0.1,0c0-0.1,0-0.2,0.1-0.2
		c0.1,0,0.1,0,0.1,0c0,0,0,0.2,0.1,0.4l0.2,0.1l-0.2,0.2l-0.2,1.3l0.2,0.3c0,0.2-0.1,0.3-0.2,0.4l-0.1,0.3l0.1,0.2L51,40.8l0,0.1
		l-0.1,0.7v0.5l-0.2,0.3l0,0.3l0,0.5c0,0.4,0.1,0.7,0.2,0.9l0,0.1l0.2,0.1l0.2-0.1l0.2,0.1l0.3-0.1c0.1-0.1,0.2-0.1,0.4-0.2l0.1-0.1
		l0,0.1l0.1-0.2l0.2-0.1c0.2-0.1,0.3-0.2,0.5-0.3c0-0.1,0.1-0.1,0.3-0.2l0.1-0.2l0.2,0l-0.1-0.2h0.1l0-0.1l0.4-0.2l0-0.3l0.4,0
		C54.9,42.4,54.9,42.4,54.9,42.5z"/>
	<path d="M58.2,37.4l1.4,0.1l1.4-0.1l0.3,0l0.1,0h0.8c0.1,0,0.2,0.1,0.2,0.2c0,0.1-0.1,0.2-0.3,0.3c0,0-0.1,0-0.2,0
		c-0.1,0-0.2,0-0.3,0.1l-0.3-0.1l-0.6,0c-0.3,0.1-0.5,0.2-0.8,0.2L59.6,38l-0.2,0.2h-0.2v-0.1l-0.4,0.2h-0.2l-0.1,0.2
		c-0.1,0-0.3-0.1-0.6-0.1c0,0.1-0.1,0.1-0.1,0.1c0,0-0.1,0-0.1-0.1l-0.3,0l-0.2,0.2l-0.1,1l0,0.6l-0.1,0.8l0,0.9l0.1,0.4v0.4
		l0.2,0.5v0.1c0,0.2,0.1,0.5,0.4,0.7l0.1,0.2l0.4,0.1l0.3,0.3l0.8,0.1l1-0.2l0.3,0.1l0.7-0.3l0.3,0c0.1,0.1,0.1,0.2,0.1,0.3
		c0,0.1-0.1,0.2-0.3,0.3l-0.2-0.1l-0.3,0.3l-0.7,0.1l-0.2,0.1L60,45.2c-0.2,0.1-0.5,0.2-0.7,0.2l-0.4-0.1h-0.2l-0.8-0.4l-0.4-0.5
		l-0.2-0.3l-0.4-1l-0.2-0.9l0.1-0.4l-0.2-0.2l0.1-0.2l-0.1-0.4l0.2-0.2l-0.1-0.2l0.1-0.2l-0.1-0.3l0-0.4l0-0.2l0.1-0.1v-0.8
		c0-0.2-0.1-0.3-0.2-0.3c0,0-0.1,0-0.1,0.1l-0.2-0.1l-0.3,0.1l-0.3-0.2h-0.2c-0.2,0-0.2-0.1-0.2-0.3l0-0.3l-0.1-0.1l0.1-0.2l0.3,0
		l0.2,0l0.3,0.1h0.9l0-0.5v-0.5l-0.1-0.4l0.2-0.1c0-0.1,0-0.1,0-0.2c0-0.1-0.1-0.2-0.2-0.2l0-0.8l-0.2-0.3l0-0.2
		c-0.1,0-0.2-0.1-0.2-0.2l0.1-0.6c0.1-0.2,0.2-0.2,0.2-0.3c0.4,0.2,0.6,0.3,0.6,0.4v0l-0.1,0.2c0.1,0.2,0.1,0.4,0.1,0.5v0.1
		c0,0.1-0.1,0.2-0.1,0.3c0,0.1,0,0.1,0.1,0.2l0,0.2l0,0.2l-0.2,0.3l0.1,0.5l-0.1,0.6l0.1,0.1L57.4,37l0.2,0.5h0.4L58.2,37.4z"/>
	<path d="M69.3,43.4c0.1,0.2,0.2,0.3,0.2,0.3c0,0.1-0.1,0.2-0.2,0.3c-0.1,0.2-0.2,0.4-0.3,0.6l-0.2,0l-0.2,0.4l-0.3,0l-0.6,0.4
		l-0.1,0.2l-0.2,0l-0.2,0.2H67L66.9,46l-0.1,0c-0.2,0-0.3,0.1-0.4,0.2l-0.1-0.1c-0.1,0.1-0.3,0.1-0.3,0.1c-0.2,0-0.3,0-0.4-0.1
		c-0.1,0-0.2,0-0.3,0L65.1,46c-0.4,0-0.6-0.1-0.8-0.3v-0.3L64,45.3l-0.1-0.2c0-0.1-0.1-0.2-0.2-0.3v-0.2l-0.2-1l0-0.7l0.1-0.4v-0.4
		l0.1-0.4l0-0.3c0.1-0.1,0.1-0.1,0.1-0.2c0-0.1,0.1-0.2,0.1-0.3c0-0.1-0.1-0.3-0.1-0.5l0.2-0.2L63.9,40c0.1-0.2,0.1-0.3,0.1-0.3
		l-0.1-0.6c0-0.2,0-0.3,0.1-0.4c0.1,0.1,0.2,0.2,0.3,0.2c0.1,0,0.2,0,0.4-0.1c0,0,0-0.1,0-0.1c0-0.1,0.1-0.2,0.2-0.3
		c0.1-0.3,0.3-0.7,0.5-1c0.1-0.1,0.2-0.2,0.2-0.4h0.1l0.1-0.2l0.1-0.1c0-0.1,0.1-0.2,0.2-0.3c0.2,0,0.3-0.2,0.6-0.5c0,0,0.1,0,0.2,0
		c0,0,0.1-0.1,0.2-0.2c0.2-0.1,0.4-0.1,0.4-0.1c0.1,0,0.1,0,0.2,0.1l0.2,0l0.1,0.1h0.1c0.1,0.2,0.2,0.3,0.4,0.3h0.1
		c0,0.1,0.1,0.2,0.1,0.2l-0.1,0c0.2,0.1,0.4,0.4,0.4,0.8l-0.1,0.2l0.1,0.6l-0.1,0.1l-0.2,0.6L68,39.2l0,0.3
		c-0.5,0.4-0.9,0.7-1.2,0.8c0,0.1-0.1,0.1-0.1,0.1c0,0-0.1,0-0.2,0L66,40.7h-0.3l-0.4,0.2l-0.2-0.1c0,0-0.2-0.1-0.4-0.1
		c-0.2,0.2-0.3,0.5-0.3,0.8l-0.1,0.2c0,0.3-0.1,0.4-0.1,0.5L64,42.3l0.1,0.8L64,43.1l0,0.2l0,0.3c0,0,0,0.2,0.1,0.4s0.1,0.3,0.2,0.4
		c0,0.1,0,0.2,0.2,0.3c0.2,0.1,0.3,0.2,0.5,0.3v0.1l0.5,0.1l0.8,0l0.5-0.1c0.2-0.2,0.4-0.2,0.5-0.3l0.2-0.2h0.2l0-0.1
		c0.3-0.1,0.5-0.2,0.5-0.2c0,0,0-0.1,0-0.1c0-0.1,0.1-0.1,0.2-0.1l0.1-0.1c0.3,0,0.5-0.3,0.6-0.6C69.1,43.4,69.2,43.4,69.3,43.4z
		 M67.5,38.6c0.1,0,0.1-0.1,0.3-0.3l0.1-0.2c0.2-0.3,0.3-0.5,0.3-0.5c0-0.1,0-0.2,0-0.3s0-0.3-0.1-0.6l-0.4-0.1c-0.1,0-0.2,0-0.2,0
		l-0.1,0c-0.1,0-0.2,0.1-0.2,0.2c-0.1,0-0.3,0.1-0.6,0.2L66.5,37c0,0-0.1,0-0.1,0c0,0,0,0-0.1,0c0,0,0,0,0,0c0,0,0,0,0,0
		c0,0,0,0,0,0.1c0,0,0,0.1,0,0.1c0,0,0,0.1,0,0.1c0,0-0.1,0.1-0.1,0.2l-0.2,0.2l-0.3,0.6l-0.2,0.1c0,0-0.1,0.1-0.1,0.3
		s-0.2,0.5-0.6,1l0.1,0.1l0.1,0.2l0.3,0.1c0.2-0.1,0.4-0.2,0.6-0.3l0.1-0.1c0.1,0,0.1,0,0.2,0c0.1,0,0.1,0,0.2-0.1l0.2,0l0.2-0.3
		h0.1l0.1-0.2c0.2,0,0.4-0.1,0.5-0.3V38.6z"/>
	<path d="M76.8,43.4c0.1,0.2,0.2,0.3,0.2,0.3c0,0.1-0.1,0.2-0.2,0.3c-0.1,0.2-0.2,0.4-0.3,0.6l-0.2,0l-0.2,0.4l-0.3,0l-0.6,0.4
		l-0.1,0.2l-0.2,0l-0.2,0.2h-0.3L74.5,46l-0.1,0c-0.2,0-0.3,0.1-0.4,0.2l-0.1-0.1c-0.1,0.1-0.3,0.1-0.3,0.1c-0.2,0-0.3,0-0.4-0.1
		c-0.1,0-0.2,0-0.3,0L72.7,46c-0.4,0-0.6-0.1-0.8-0.3v-0.3l-0.3-0.2l-0.1-0.2c0-0.1-0.1-0.2-0.2-0.3v-0.2l-0.2-1l0-0.7l0.1-0.4v-0.4
		l0.1-0.4l0-0.3c0.1-0.1,0.1-0.1,0.1-0.2c0-0.1,0.1-0.2,0.1-0.3c0-0.1-0.1-0.3-0.1-0.5l0.2-0.2L71.4,40c0.1-0.2,0.1-0.3,0.1-0.3
		l-0.1-0.6c0-0.2,0-0.3,0.1-0.4c0.1,0.1,0.2,0.2,0.3,0.2c0.1,0,0.2,0,0.4-0.1c0,0,0-0.1,0-0.1c0-0.1,0.1-0.2,0.2-0.3
		c0.1-0.3,0.3-0.7,0.5-1c0.1-0.1,0.2-0.2,0.2-0.4h0.1l0.1-0.2l0.1-0.1c0-0.1,0.1-0.2,0.2-0.3c0.2,0,0.3-0.2,0.6-0.5c0,0,0.1,0,0.2,0
		c0,0,0.1-0.1,0.2-0.2c0.2-0.1,0.4-0.1,0.4-0.1c0.1,0,0.1,0,0.2,0.1l0.2,0l0.1,0.1h0.1c0.1,0.2,0.2,0.3,0.4,0.3h0.1
		c0,0.1,0.1,0.2,0.1,0.2l-0.1,0c0.2,0.1,0.4,0.4,0.4,0.8l-0.1,0.2l0.1,0.6l-0.1,0.1l-0.2,0.6l-0.4,0.5l0,0.3
		c-0.5,0.4-0.9,0.7-1.2,0.8c0,0.1-0.1,0.1-0.1,0.1c0,0-0.1,0-0.2,0l-0.5,0.3h-0.3l-0.4,0.2l-0.2-0.1c0,0-0.2-0.1-0.4-0.1
		c-0.2,0.2-0.3,0.5-0.3,0.8l-0.1,0.2c0,0.3-0.1,0.4-0.1,0.5l-0.1,0.1l0.1,0.8l-0.1,0.1l0,0.2l0,0.3c0,0,0,0.2,0.1,0.4
		s0.1,0.3,0.2,0.4c0,0.1,0,0.2,0.2,0.3c0.2,0.1,0.3,0.2,0.5,0.3v0.1l0.5,0.1l0.8,0l0.5-0.1c0.2-0.2,0.4-0.2,0.5-0.3l0.2-0.2h0.2
		l0-0.1c0.3-0.1,0.5-0.2,0.5-0.2c0,0,0-0.1,0-0.1c0-0.1,0.1-0.1,0.2-0.1l0.1-0.1c0.3,0,0.5-0.3,0.6-0.6
		C76.6,43.4,76.7,43.4,76.8,43.4z M75.1,38.6c0.1,0,0.1-0.1,0.3-0.3l0.1-0.2c0.2-0.3,0.3-0.5,0.3-0.5c0-0.1,0-0.2,0-0.3
		s0-0.3-0.1-0.6l-0.4-0.1c-0.1,0-0.2,0-0.2,0l-0.1,0c-0.1,0-0.2,0.1-0.2,0.2c-0.1,0-0.3,0.1-0.6,0.2L74,37c0,0-0.1,0-0.1,0
		c0,0,0,0-0.1,0c0,0,0,0,0,0c0,0,0,0,0,0c0,0,0,0,0,0.1c0,0,0,0.1,0,0.1c0,0,0,0.1,0,0.1c0,0-0.1,0.1-0.1,0.2l-0.2,0.2l-0.3,0.6
		L73,38.3c0,0-0.1,0.1-0.1,0.3s-0.2,0.5-0.6,1l0.1,0.1l0.1,0.2l0.3,0.1c0.2-0.1,0.4-0.2,0.6-0.3l0.1-0.1c0.1,0,0.1,0,0.2,0
		c0.1,0,0.1,0,0.2-0.1l0.2,0l0.2-0.3h0.1l0.1-0.2c0.2,0,0.4-0.1,0.5-0.3V38.6z"/>
	<path d="M85.9,37l-0.1,0.3l-0.6,0.1l-0.4,0.3l-0.3,0l-0.3,0.2l-0.3,0.2c-0.2,0.1-0.3,0.2-0.4,0.3v0.1l-0.3,0.2l-0.2,0.3h-0.2
		l-0.1,0.3l-0.2,0.2c-0.1,0.1-0.2,0.1-0.2,0.2L81.9,40c-0.2,0.1-0.2,0.3-0.3,0.6l-0.1,0l0,0.1l-0.2,0.1l-0.1,0.4
		C81,41.4,81,41.5,81,41.6l-0.2,0.1v0.4c0,0-0.1,0.1-0.1,0.2l0,0.1l-0.2,0.1l0.1,0.2c0,0.1-0.1,0.4-0.3,0.8l0.1,0.3l-0.2,0.3
		c0,0.1,0,0.2,0,0.3l0,0.3l0.1,0.4c0,0,0,0.1,0.1,0.1l0.2,0.2c-0.1,0.2-0.2,0.3-0.3,0.4L80,45.6l0,0.2l-0.5-0.1v-0.3l-0.1-0.2
		l0.1-0.3l-0.1-0.1l0-0.7l0-0.5c-0.1,0-0.1-0.1-0.1-0.1c0-0.1,0-0.1,0.1-0.3v-0.3c0-0.2,0-0.3,0-0.4l0.1-0.1L79.4,42l0.1-0.3
		l-0.1-0.2l0.1-0.6l-0.1-0.2l0.1-0.2l-0.1-0.4l0-0.3c0-0.1,0-0.2,0-0.4l0.1-0.1l-0.1-0.7l-0.2-0.1l0.2-0.4c-0.1-0.2-0.2-0.4-0.2-0.7
		v-0.3C79,37.1,79,37.1,78.9,37c0.1-0.1,0.3-0.2,0.5-0.3l0.2,0c0,0.2,0.1,0.3,0.2,0.5l0,0.5l0.2,1.6c0,0.1,0,0.2-0.1,0.3L80,40
		l-0.1,0.3l0.1,0.3l0,0.3l0.2,0.3L80,41.3l0.1,0.5l0.2,0l0.1-0.4c0,0,0.1-0.2,0.2-0.4c0.2-0.2,0.3-0.3,0.3-0.5v-0.1l0.1-0.1
		c0,0,0,0,0.1-0.1c0-0.1,0-0.1,0.1-0.1h0.1l0.1-0.4l0.3-0.2l0-0.1h0.1l-0.1-0.2l0.3-0.1l0-0.3l0.3,0c0.2-0.1,0.3-0.3,0.3-0.4l0.2,0
		c0-0.1,0.2-0.2,0.4-0.4c0,0,0.1,0,0.1-0.1l0.3-0.2l0.1-0.2l0.2-0.1c0.4-0.3,0.6-0.4,0.7-0.4h0.1c0.1,0,0.2,0,0.3-0.1l0.2,0.1
		c0.1-0.1,0.2-0.1,0.2-0.1C85.7,37,85.8,37,85.9,37z"/>
	<path d="M98.4,40.3l-0.1,0.4l0.1,0.2l-0.1,0.5c0,0.1-0.1,0.2-0.2,0.3v0.2L98,42.4l-0.1,0.2c0,0-0.1,0.2-0.2,0.5l-0.2,0.1l-0.1,0.3
		l-0.2,0.1L97,43.9l-0.3,0.1l0,0.3l-0.3,0.1c-0.1,0.2-0.2,0.3-0.3,0.3c0,0-0.1,0.1-0.3,0.1c-0.1,0-0.2,0.1-0.3,0.1
		c0,0.2-0.2,0.3-0.6,0.4c-0.1,0.1-0.2,0.2-0.3,0.2c0,0-0.1,0-0.2,0c-0.2,0.2-0.4,0.3-0.5,0.3l-0.2,0.3l-0.3-0.2l-0.1,0.1l-0.3-0.1
		l-0.7-0.1c-0.1-0.2-0.3-0.5-0.5-0.7l0.1-0.3l-0.3-0.8l0.1-0.2l-0.1-0.6l0.1-0.3c0,0,0-0.1,0-0.3c0-0.1,0-0.2,0-0.3
		c0-0.1,0.1-0.3,0.2-0.3v-0.1c0-0.2,0-0.3,0.1-0.5h0.1c0.1-0.1,0.2-0.3,0.2-0.4l-0.1-0.1l0.1-0.3v-0.2c0.1-0.2,0.2-0.3,0.2-0.5
		l-0.1-0.3c0-0.1,0-0.2,0.1-0.2c0.2-0.1,0.3-0.2,0.3-0.3c0-0.1,0-0.1-0.1-0.2l0.2-0.4c0-0.1,0.1-0.1,0.1-0.1c0.1,0,0.1-0.1,0.1-0.1
		l0-0.2c0.2,0,0.3-0.1,0.3-0.3c0-0.1,0-0.2-0.1-0.4c0.5,0,0.8-0.2,0.9-0.7h0.1c0.1-0.1,0.2-0.1,0.2-0.1c0,0,0.1,0,0.2,0.1
		c0.1,0,0.3,0.1,0.5,0.1l0.3-0.1v0.1c0.1,0,0.3,0.1,0.5,0.2h0.3c0.1,0.1,0.1,0.2,0.2,0.2l0,0c0.2,0.2,0.3,0.4,0.5,0.5l0.1,0.3
		l0.2,0.1l0.3,0.5l0.3,1v0.2L98.4,40.3z M97.8,40.8c0.1-0.1,0.1-0.2,0.1-0.3c0,0,0-0.1-0.1-0.1c0-0.1-0.1-0.1-0.1-0.1h0.1
		c0-0.1-0.1-0.2-0.1-0.2l0-0.1l-0.1-0.3l0-0.5l-0.2-0.3c-0.2-0.1-0.2-0.2-0.2-0.2v-0.1c0-0.1,0-0.1-0.1-0.1c-0.1,0-0.1,0-0.1-0.1v0
		c0,0,0-0.1,0.1-0.3l-0.1-0.1l-0.2,0l-0.1-0.2l0.1-0.1l-0.3-0.1l-0.2-0.2l-0.6-0.2l-0.2-0.1c-0.4,0-0.6,0.1-0.6,0.3l0,0.7l-0.4,0
		l-0.7,0.4l-0.1,0.2L93.6,39l-0.1,0.6l-0.2,0.1c0,0-0.1,0.1-0.1,0.3c0,0.2,0,0.3,0,0.4L93,40.5c-0.1,0-0.1,0.2-0.1,0.4
		c0,0.1-0.1,0.2-0.2,0.3v0.2l-0.2,0.3v0.2l-0.1,0.1l0,0.3L92.3,43l0.1,0.2v0.5l-0.1,0.3l0,0.5l0.3,0.4c0,0.1,0.2,0.1,0.4,0.2
		l0.1,0.1l0.1,0l0.1,0l0.2-0.1l0.5,0l0.2-0.1l0.1-0.1l0.2,0c0.2,0,0.3-0.1,0.3-0.2l0.3,0.1l0.1-0.2l0.2,0l0.1-0.2
		c0.2-0.1,0.2-0.2,0.2-0.3h0.3l0.1-0.2l0.4-0.3l0.1-0.2c0.1-0.1,0.1-0.1,0.2-0.2l0.3-0.2c0-0.2,0.1-0.4,0.2-0.6l0-0.2l0.3-0.1l0-0.1
		c0.1-0.1,0.2-0.2,0.2-0.3h-0.1c0.1-0.1,0.1-0.1,0.1-0.2c0,0,0-0.1,0-0.2c0-0.1,0-0.1,0-0.1c0-0.1,0-0.2,0.1-0.3
		c0-0.1,0.1-0.2,0.1-0.2C97.9,40.9,97.8,40.9,97.8,40.8z"/>
	<path d="M107,40.3l-0.1,0.4l0.1,0.2l-0.1,0.5c0,0.1-0.1,0.2-0.2,0.3v0.2l-0.2,0.4l-0.1,0.2c0,0-0.1,0.2-0.2,0.5l-0.2,0.1l-0.1,0.3
		l-0.2,0.1l-0.2,0.4l-0.3,0.1l0,0.3l-0.3,0.1c-0.1,0.2-0.2,0.3-0.3,0.3c0,0-0.1,0.1-0.3,0.1c-0.1,0-0.2,0.1-0.3,0.1
		c0,0.2-0.2,0.3-0.6,0.4c-0.1,0.1-0.2,0.2-0.3,0.2c0,0-0.1,0-0.2,0c-0.2,0.2-0.4,0.3-0.5,0.3l-0.2,0.3l-0.3-0.2l-0.1,0.1l-0.3-0.1
		l-0.7-0.1c-0.1-0.2-0.3-0.5-0.5-0.7l0.1-0.3l-0.3-0.8l0.1-0.2l-0.1-0.6l0.1-0.3c0,0,0-0.1,0-0.3c0-0.1,0-0.2,0-0.3
		c0-0.1,0.1-0.3,0.2-0.3v-0.1c0-0.2,0-0.3,0.1-0.5h0.1c0.1-0.1,0.2-0.3,0.2-0.4l-0.1-0.1l0.1-0.3v-0.2c0.1-0.2,0.2-0.3,0.2-0.5
		l-0.1-0.3c0-0.1,0-0.2,0.1-0.2c0.2-0.1,0.3-0.2,0.3-0.3c0-0.1,0-0.1-0.1-0.2l0.2-0.4c0-0.1,0.1-0.1,0.1-0.1c0.1,0,0.1-0.1,0.1-0.1
		l0-0.2c0.2,0,0.3-0.1,0.3-0.3c0-0.1,0-0.2-0.1-0.4c0.5,0,0.8-0.2,0.9-0.7h0.1c0.1-0.1,0.2-0.1,0.2-0.1c0,0,0.1,0,0.2,0.1
		c0.1,0,0.3,0.1,0.5,0.1l0.3-0.1v0.1c0.1,0,0.3,0.1,0.5,0.2h0.3c0.1,0.1,0.1,0.2,0.2,0.2l0,0c0.2,0.2,0.3,0.4,0.5,0.5l0.1,0.3
		l0.2,0.1l0.3,0.5l0.3,1v0.2L107,40.3z M106.4,40.8c0.1-0.1,0.1-0.2,0.1-0.3c0,0,0-0.1-0.1-0.1c0-0.1-0.1-0.1-0.1-0.1h0.1
		c0-0.1-0.1-0.2-0.1-0.2l0-0.1l-0.1-0.3l0-0.5l-0.2-0.3c-0.2-0.1-0.2-0.2-0.2-0.2v-0.1c0-0.1,0-0.1-0.1-0.1c-0.1,0-0.1,0-0.1-0.1v0
		c0,0,0-0.1,0.1-0.3l-0.1-0.1l-0.2,0l-0.1-0.2l0.1-0.1l-0.3-0.1l-0.2-0.2l-0.6-0.2l-0.2-0.1c-0.4,0-0.6,0.1-0.6,0.3l0,0.7l-0.4,0
		l-0.7,0.4l-0.1,0.2l-0.2,0.2l-0.1,0.6l-0.2,0.1c0,0-0.1,0.1-0.1,0.3c0,0.2,0,0.3,0,0.4l-0.3,0.1c-0.1,0-0.1,0.2-0.1,0.4
		c0,0.1-0.1,0.2-0.2,0.3v0.2l-0.2,0.3v0.2l-0.1,0.1l0,0.3l-0.3,0.7l0.1,0.2v0.5l-0.1,0.3l0,0.5l0.3,0.4c0,0.1,0.2,0.1,0.4,0.2
		l0.1,0.1l0.1,0l0.1,0l0.2-0.1l0.5,0l0.2-0.1l0.1-0.1l0.2,0c0.2,0,0.3-0.1,0.3-0.2l0.3,0.1l0.1-0.2l0.2,0l0.1-0.2
		c0.2-0.1,0.2-0.2,0.2-0.3h0.3l0.1-0.2l0.4-0.3l0.1-0.2c0.1-0.1,0.1-0.1,0.2-0.2l0.3-0.2c0-0.2,0.1-0.4,0.2-0.6l0-0.2l0.3-0.1l0-0.1
		c0.1-0.1,0.2-0.2,0.2-0.3h-0.1c0.1-0.1,0.1-0.1,0.1-0.2c0,0,0-0.1,0-0.2c0-0.1,0-0.1,0-0.1c0-0.1,0-0.2,0.1-0.3
		c0-0.1,0.1-0.2,0.1-0.2C106.4,40.9,106.4,40.9,106.4,40.8z"/>
	<path d="M120.5,43.9l-0.1,0.2c0,0.3-0.1,0.5-0.2,0.7c-0.2,0.1-0.3,0.3-0.3,0.3c0,0.1-0.1,0.2-0.2,0.4l-0.2,0.2
		c-0.1,0-0.1,0.1-0.2,0.3l-0.7,0.4c-0.2,0.1-0.5,0.1-0.7,0.1l-0.3-0.2h-0.2l-0.2-0.2l-0.2,0l-0.8-0.4l-1.7-1.5l-0.4-0.7l-0.3-0.3
		c0-0.1-0.2-0.3-0.3-0.5c-0.1-0.1-0.2-0.3-0.4-0.5c-0.2-0.2-0.3-0.4-0.6-0.5l-0.4-0.8c0-0.1,0.1-0.3,0.2-0.6l0.4,0.3l0.2,0.2
		c0.1,0.1,0.3,0.2,0.6,0.4h0.3l0.1,0.1c0,0,0.1,0,0.2,0c0.1,0,0.2,0,0.2,0.1c0.2-0.1,0.3-0.2,0.6-0.3c0.2-0.1,0.4-0.1,0.6-0.2
		l0.1-0.2h0.5c0-0.1,0-0.1,0.1-0.1c0.1,0,0.1-0.1,0.1-0.1h0.1c0.2,0,0.4-0.2,0.4-0.5c0.2-0.1,0.3-0.2,0.4-0.2l0.1-0.1
		c0.1,0,0.2-0.2,0.3-0.5h0c0.1,0,0.3-0.3,0.4-0.8h0.1l0-0.2l0-0.3l0-0.4c0-0.2-0.2-0.3-0.6-0.5c-0.1-0.1-0.2-0.2-0.3-0.2h-0.1
		l-0.1-0.1c-0.3,0-0.6-0.1-0.9-0.1c-0.3,0-0.5-0.1-0.6-0.1c-0.2,0-0.5,0.1-0.8,0.3c-0.2,0-0.4,0-0.6,0.1l0,0c-0.1,0-0.2,0-0.2,0.1
		s-0.1,0.1-0.2,0.1c-0.1,0-0.2,0.1-0.2,0.1c-0.1,0.1-0.2,0.1-0.3,0.1l-0.3,0.1l-0.7,0.6l-0.7,0.8v0.1l-0.3,0.7l-0.2,0.5
		c-0.2,0.4-0.3,0.7-0.3,0.9c0,0.1,0,0.2,0.1,0.3c0,0.1,0,0.2-0.1,0.2c-0.1,0.1-0.1,0.3-0.1,0.4l0,0.2c0,0.1,0,0.2-0.1,0.3
		c-0.1,0.2-0.2,0.3-0.2,0.4l0.1,0.4l-0.1,0.4l0.1,0.3c-0.1,0.2-0.2,0.4-0.2,0.6V45c0,0.1,0,0.1,0,0.2c0,0.2-0.1,0.3-0.4,0.3
		c-0.1,0-0.2-0.2-0.3-0.4l-0.1-0.3l0.1-0.4l-0.1-0.8l0.1-0.2v-0.8l0-0.3v-0.2c0-0.4,0-0.7,0-1s0-0.4,0-0.4v-0.3l0-0.2v-0.6l0.1-0.2
		l-0.1-0.3l0.1-0.7v-0.9l-0.1-0.3l0.1-0.2l0-0.2l-0.1-1.2l-0.1-0.7v-0.2l0.1-0.8l-0.1-0.3l0-0.5c0-0.2,0-0.3,0-0.4
		c0-0.3,0.2-0.4,0.5-0.4l0.1,0.2l0.1-0.1l0,0.3l0.1,0.6l-0.1,0.6l0,0.8l0.1,0.3l-0.1,0.3l0,0.6l-0.1,0.4l0.1,0.4l-0.1,0.1l0.1,0.3
		l-0.1,0.5l-0.1,1.5c0,0.2,0,0.3,0,0.3l0,0.3l0,0.4c0,0.2,0,0.3-0.1,0.4c0.1,0.1,0.2,0.2,0.3,0.2l0.2-0.5l0-0.1c0-0.1,0.1-0.4,0.4-1
		c0.3-0.6,0.6-1.1,0.9-1.5c0.1,0,0.1-0.1,0.1-0.1c0,0,0-0.1,0-0.1c0.3-0.2,0.5-0.3,0.6-0.4c0.1-0.1,0.1-0.1,0.2-0.1
		c0,0,0.1-0.1,0.2-0.1c0.1,0,0.1-0.1,0.2-0.1c0,0,0.1,0,0.1-0.1c0,0,0.1-0.1,0.2-0.1c0.1-0.1,0.2-0.1,0.4-0.2
		c0.1-0.2,0.4-0.3,0.9-0.3l0.8-0.1l1.5,0.1l0.2,0.1c0.1,0,0.2,0.1,0.4,0.1c0.5,0.5,0.8,0.7,0.8,0.7c0,0,0-0.1-0.1-0.1l0.3,0.7
		l-0.1,0.2c0.1,0.1,0.2,0.2,0.2,0.3s-0.1,0.3-0.2,0.5v0.2l-0.2,0.7L118,40l-0.1,0c0,0.1-0.1,0.2-0.2,0.3c-0.1,0.1-0.2,0.2-0.2,0.3
		c-0.2,0-0.3,0.1-0.4,0.2c-0.1,0-0.2,0.1-0.2,0.2c-0.2,0-0.4,0.1-0.5,0.3c0,0,0,0,0.1,0h0c0,0.1-0.7,0.3-2,0.7
		c-0.1-0.1-0.2-0.1-0.3-0.1c-0.1,0-0.2,0.1-0.2,0.2v0l0,0.1l0.2,0.2l0.1,0.3c0,0.1,0.1,0.3,0.3,0.4l0.4,0.7l0.5,0.3l0,0.1l0.2,0.1
		l0.1,0.2l0.1,0l0.6,0.6l0.8,0.3l0.5,0.1l0.4,0l0.2-0.1c0.2,0,0.4-0.1,0.6-0.3s0.3-0.2,0.3-0.2l0.4-0.7l0.2-0.2
		c0.1-0.1,0.1-0.2,0.2-0.4c0.1,0,0.1,0,0.2,0C120.4,43.7,120.4,43.8,120.5,43.9z"/>
	<path d="M136,44.3c-0.2,0.5-0.3,0.9-0.6,1.1c-0.2-0.1-0.3-0.1-0.3-0.2l-0.4-0.6l-0.1-0.3l-0.3-1v-0.9l-0.1-0.8l0.1-0.5l-0.1-0.4V40
		l-0.2-0.3l-0.1,0.2l-0.2,0l-0.3,0.7l-0.4,0.5h-0.2l-0.1,0.2c0,0.1-0.1,0.2-0.1,0.3c-0.1,0.1-0.1,0.2-0.2,0.4l-0.6,0.6l-0.4,0.7
		l-0.5,0.5c-0.1,0.2-0.2,0.4-0.4,0.5l-0.3,0.2c-0.1,0.1-0.2,0.2-0.3,0.4l-0.4,0.1c0,0-0.1,0.1-0.2,0.2l-0.2,0.1
		c-0.1,0-0.2,0.1-0.4,0.2l-0.2,0l-0.1,0.1l-0.2,0l-0.7-0.5c-0.1-0.2-0.2-0.4-0.2-0.6c-0.1-0.3-0.1-0.4-0.2-0.4l-0.1,0l0.2-0.3
		l-0.1-0.3l0.1-0.3l0-0.4l0.1-0.6v-0.6l0.1-0.2v-0.5c0.1-0.2,0.2-0.4,0.2-0.5l0.1-0.1V40l0.2-0.3l0-0.3c0.1-0.1,0.2-0.3,0.2-0.4
		l0.1-0.6c0-0.1,0.1-0.3,0.2-0.4l0-0.2c0-0.1,0.1-0.2,0.1-0.3c0.1-0.1,0.1-0.2,0.1-0.3c0.2-0.2,0.4-0.4,0.5-0.4l0-0.1
		c0.1,0,0.1-0.1,0.2-0.1c0,0,0.1,0,0.1,0c0.1,0,0.1,0,0.1,0l-0.1,0l0.9-0.3c0.1,0,0.2,0,0.4,0s0.2,0,0.2-0.1v0l0.3,0l0.2,0.1l0.1,0
		c0,0.1,0.1,0.1,0.2,0.1c0,0,0.1,0,0.1,0l0.3,0v0.1l0.1,0l0.3,0.3l0.3-0.1l0.2,0.3l0.3,0.3c0,0,0.1,0.1,0.2,0.3l0.3,0.2
		c0.1,0.1,0.2,0.2,0.3,0.2c0,0,0.1,0,0.1-0.1l0.1-0.7l0.2-0.4l-0.1-0.5l0.1-1l-0.1-0.3c0.1-0.1,0.2-0.3,0.2-0.4l-0.1-0.2l0.1-0.6
		l-0.1-0.6l0.1-0.1l-0.1-0.1c0.1-0.1,0.1-0.1,0.1-0.2c0,0,0-0.1,0-0.1c0-0.1,0.1-0.2,0.1-0.3c0-0.1,0-0.2-0.1-0.3h0.1
		c0-0.1,0-0.1,0-0.2c0-0.1,0.1-0.2,0.2-0.2l-0.1-0.1l0.1,0c0.1,0,0.1,0.1,0.2,0.2c0.1,0,0.2,0.1,0.2,0.3h-0.1l0,0.3l0,0.2H135
		l0.2,0.2l-0.1,0.3l0.1,0.3l-0.1,0.1c0.1,0.2,0.1,0.3,0.1,0.4c0,0.1,0,0.2-0.1,0.2l0.2,0.1c-0.1,0-0.1,0.1-0.1,0.1
		c0,0.1,0.1,0.1,0.2,0.2v0.1c0,0.1-0.1,0.2-0.2,0.2v0.2c0,0.3-0.1,0.9-0.2,1.8c0,0,0,0.1,0,0.2c0,0.1,0,0.2-0.1,0.4l0.1,0.2
		l-0.1,0.5l-0.1,0.5c0,0.1-0.1,0.2-0.1,0.3l0.1,0.2l-0.1,0.4l0.1,0.3l-0.2,0.7l0.1,0.5l-0.1,0.3l0,0.3l-0.1,0.1
		c0.1,0.2,0.2,0.3,0.2,0.4c0,0.1,0,0.1-0.1,0.1l0,0.1l0,0.1l0.1,0.1l-0.1,0.3l0.1,0.5l-0.1,0.1l0.1,0.2l-0.1,0.4l0.1,0.1h0.2
		l0.1,0.2l0.3-0.1l0.1,0.2L136,44.3z M134,38.5l-0.1,0l-0.2-0.2l-0.2-0.1c0,0-0.1-0.1-0.2-0.3c-0.1-0.2-0.2-0.3-0.3-0.4
		c-0.1,0-0.1-0.1-0.2-0.1v-0.1l-0.3-0.1l-0.3-0.2c-0.1,0-0.1-0.1-0.3-0.1c-0.1,0-0.2-0.1-0.4-0.1l-0.6,0.1l-0.2,0.1l-0.2-0.1
		l-0.3,0.1h-0.4l-0.1,0.2l-0.1,0.1c0,0.1,0,0.2,0.1,0.2c-0.1,0.1-0.3,0.3-0.5,0.5l-0.1,0.4l-0.2,0.1l-0.2,0.6l-0.1,0.6l-0.2,0.2v0.4
		c-0.2,0.1-0.2,0.3-0.2,0.3l0,0.5l-0.3,0.7l-0.1,0.5l0,0.7l0.1,0.2l-0.1,0.3l0.1,0.2l-0.2,0.3c0.1,0.2,0.2,0.5,0.3,0.8l0.2,0.1
		l0,0.1h0.2c0.1,0.1,0.2,0.1,0.3,0.1c0,0,0,0,0.1-0.1c0.1-0.1,0.2-0.1,0.3-0.1v0.1c0.1-0.1,0.1-0.1,0.2-0.2c0.1,0,0.2,0,0.2-0.1
		l0.2-0.1l0.1,0.1l0.1-0.2L130,44l0-0.2l0.3-0.2v-0.1l0.2-0.2l0.1,0c0.1,0,0.1-0.1,0.1-0.2h0.1V43l0.3-0.1l-0.1-0.3l0.2-0.1
		l-0.1-0.2c0,0,0.1,0,0.1,0c0.1,0,0.2,0,0.3-0.1l0-0.1l0.2,0l0.2-0.6l0.2-0.2l0.1-0.4l0.3-0.1c0.2-0.3,0.3-0.5,0.5-0.6v-0.3l0.2-0.1
		l0.5-1.1L134,38.5z"/>
	<path d="M141.5,31.9c0,0.1-0.2,0.2-0.4,0.3v0.1l-0.2,0.2c-0.1,0.1-0.1,0.1-0.2,0.1c0,0-0.1,0-0.1,0l-0.6,0.7l-0.1,0.2l-0.5,0.2
		l-0.3,0.4l-0.2,0.1c-0.1,0-0.2,0.2-0.5,0.4l-0.1-0.1l0-0.3l0.5-0.2c0.1-0.3,0.2-0.5,0.3-0.6c0.1,0,0.2-0.1,0.2-0.1v-0.1l0.1-0.1
		l0,0l0.1-0.2h0.1l-0.1-0.2h0.3v-0.3l0.2,0l0.1-0.2l0.2-0.1l0.2-0.3c0.1,0,0.1,0,0.1-0.1h0.1l0-0.2c0.1-0.1,0.2-0.3,0.3-0.4
		C141.2,31.5,141.4,31.6,141.5,31.9z M143.6,42.5l0,0.2l-0.2,0.1l-0.1,0.3l-0.3,0.1c-0.1,0.3-0.2,0.4-0.3,0.5l-0.3,0.1l-0.2,0.2
		c-0.1,0-0.2,0.2-0.4,0.4h-0.1c-0.1,0.1-0.3,0.2-0.5,0.2c-0.2,0.2-0.2,0.3-0.3,0.3c-0.1,0.1-0.2,0.1-0.4,0.1c-0.2,0-0.3,0.1-0.3,0.1
		l-0.1,0.1h-0.3l-0.2,0.1l-0.5-0.4l-0.3-0.7l0-1.1l-0.1-0.2l0.2-1.7l0.1-0.1l-0.1-1.1c0-0.1,0-0.3,0.1-0.4c0-0.1,0.1-0.3,0.1-0.5
		l0.1-0.1c0-0.2,0-0.4-0.1-0.6l0.1-0.3v-0.4l0.1-0.1c0-0.1,0-0.2-0.1-0.3c0-0.1-0.1-0.2-0.1-0.2c0-0.1,0-0.2,0.1-0.2c0,0,0,0,0,0
		c-0.1-0.2-0.1-0.4-0.1-0.4c0-0.1,0-0.2,0.1-0.2c0,0,0.1,0,0.1,0.1c0.1,0,0.1,0.1,0.2,0.1c0,0,0,0,0.1,0c0-0.1,0-0.2,0.1-0.2
		c0.1,0,0.1,0,0.1,0c0,0,0,0.2,0.1,0.4l0.2,0.1l-0.2,0.2l-0.2,1.3l0.2,0.3c0,0.2-0.1,0.3-0.2,0.4l-0.1,0.3l0.1,0.2l-0.2,0.9l0,0.1
		l-0.1,0.7v0.5l-0.2,0.3l0,0.3l0,0.5c0,0.4,0.1,0.7,0.2,0.9l0,0.1l0.2,0.1l0.2-0.1l0.2,0.1l0.3-0.1c0.1-0.1,0.2-0.1,0.4-0.2L141,44
		l0,0.1l0.1-0.2l0.2-0.1c0.2-0.1,0.3-0.2,0.5-0.3c0-0.1,0.1-0.1,0.3-0.2l0.1-0.2l0.2,0l-0.1-0.2h0.1l0-0.1l0.4-0.2l0-0.3l0.4,0
		C143.5,42.4,143.6,42.4,143.6,42.5z"/>
	<path d="M152.1,37l-0.1,0.3l-0.6,0.1l-0.4,0.3l-0.3,0l-0.3,0.2l-0.3,0.2c-0.2,0.1-0.3,0.2-0.4,0.3v0.1l-0.3,0.2l-0.2,0.3h-0.2
		l-0.1,0.3l-0.2,0.2c-0.1,0.1-0.2,0.1-0.2,0.2l-0.2,0.4c-0.2,0.1-0.3,0.3-0.3,0.6l-0.1,0l0,0.1l-0.2,0.1l-0.1,0.4
		c-0.2,0.2-0.2,0.4-0.2,0.5l-0.2,0.1v0.4c0,0-0.1,0.1-0.1,0.2l0,0.1l-0.2,0.1l0.1,0.2c0,0.1-0.1,0.4-0.3,0.8l0.1,0.3l-0.2,0.3
		c0,0.1,0,0.2,0,0.3l0,0.3l0.1,0.4c0,0,0,0.1,0.1,0.1l0.2,0.2c-0.1,0.2-0.2,0.3-0.3,0.4l-0.3-0.1l0,0.2l-0.5-0.1v-0.3l-0.1-0.2
		l0.1-0.3l-0.1-0.1l0-0.7l0-0.5c-0.1,0-0.1-0.1-0.1-0.1c0-0.1,0-0.1,0.1-0.3v-0.3c0-0.2,0-0.3,0-0.4l0.1-0.1l-0.1-0.4l0.1-0.3
		l-0.1-0.2l0.1-0.6l-0.1-0.2l0.1-0.2l-0.1-0.4l0-0.3c0-0.1,0-0.2,0-0.4l0.1-0.1l-0.1-0.7l-0.2-0.1l0.2-0.4c-0.1-0.2-0.2-0.4-0.2-0.7
		v-0.3c-0.1-0.1-0.1-0.1-0.1-0.2c0.1-0.1,0.3-0.2,0.5-0.3l0.2,0c0,0.2,0.1,0.3,0.2,0.5l0,0.5l0.2,1.6c0,0.1,0,0.2-0.1,0.3l0.1,0.4
		l-0.1,0.3l0.1,0.3l0,0.3l0.2,0.3l-0.1,0.1l0.1,0.5l0.2,0l0.1-0.4c0,0,0.1-0.2,0.2-0.4c0.2-0.2,0.3-0.3,0.3-0.5v-0.1l0.1-0.1
		c0,0,0,0,0.1-0.1c0-0.1,0-0.1,0.1-0.1h0.1l0.1-0.4l0.3-0.2l0-0.1h0.1l-0.1-0.2l0.3-0.1l0-0.3l0.3,0c0.1-0.1,0.3-0.3,0.3-0.4l0.2,0
		c0-0.1,0.2-0.2,0.4-0.4c0,0,0.1,0,0.1-0.1l0.3-0.2l0.1-0.2l0.2-0.1c0.4-0.3,0.6-0.4,0.7-0.4h0.1c0.1,0,0.2,0,0.3-0.1l0.2,0.1
		c0.1-0.1,0.2-0.1,0.2-0.1C152,37,152.1,37,152.1,37z"/>
	<path d="M158.4,43.4c0.1,0.2,0.2,0.3,0.2,0.3c0,0.1-0.1,0.2-0.2,0.3c-0.1,0.2-0.2,0.4-0.3,0.6l-0.2,0l-0.2,0.4l-0.3,0l-0.6,0.4
		l-0.1,0.2l-0.2,0l-0.2,0.2h-0.3l-0.1,0.1l-0.1,0c-0.2,0-0.3,0.1-0.4,0.2l-0.1-0.1c-0.1,0.1-0.3,0.1-0.3,0.1c-0.2,0-0.3,0-0.4-0.1
		c-0.1,0-0.2,0-0.3,0l-0.1-0.1c-0.4,0-0.6-0.1-0.8-0.3v-0.3l-0.3-0.2l-0.1-0.2c0-0.1-0.1-0.2-0.2-0.3v-0.2l-0.2-1l0-0.7l0.1-0.4
		v-0.4l0.1-0.4l0-0.3c0.1-0.1,0.1-0.1,0.1-0.2c0-0.1,0.1-0.2,0.1-0.3c0-0.1-0.1-0.3-0.1-0.5l0.2-0.2L153,40c0.1-0.2,0.1-0.3,0.1-0.3
		l-0.1-0.6c0-0.2,0-0.3,0.1-0.4c0.1,0.1,0.2,0.2,0.3,0.2c0.1,0,0.2,0,0.4-0.1c0,0,0-0.1,0-0.1c0-0.1,0.1-0.2,0.2-0.3
		c0.1-0.3,0.3-0.7,0.5-1c0.1-0.1,0.2-0.2,0.2-0.4h0.1l0.1-0.2l0.1-0.1c0-0.1,0.1-0.2,0.2-0.3c0.2,0,0.3-0.2,0.6-0.5c0,0,0.1,0,0.2,0
		c0,0,0.1-0.1,0.2-0.2c0.2-0.1,0.4-0.1,0.4-0.1c0.1,0,0.1,0,0.2,0.1l0.2,0l0.1,0.1h0.1c0.1,0.2,0.2,0.3,0.4,0.3h0.1
		c0,0.1,0.1,0.2,0.1,0.2l-0.1,0c0.2,0.1,0.4,0.4,0.4,0.8l-0.1,0.2l0.1,0.6l-0.1,0.1l-0.2,0.6l-0.4,0.5l0,0.3
		c-0.5,0.4-0.9,0.7-1.2,0.8c0,0.1-0.1,0.1-0.1,0.1c0,0-0.1,0-0.2,0l-0.5,0.3h-0.3l-0.4,0.2l-0.2-0.1c0,0-0.2-0.1-0.4-0.1
		c-0.2,0.2-0.3,0.5-0.3,0.8l-0.1,0.2c0,0.3-0.1,0.4-0.1,0.5l-0.1,0.1l0.1,0.8l-0.1,0.1l0,0.2l0,0.3c0,0,0,0.2,0.1,0.4
		s0.1,0.3,0.2,0.4c0,0.1,0,0.2,0.2,0.3c0.2,0.1,0.3,0.2,0.5,0.3v0.1l0.5,0.1l0.8,0l0.5-0.1c0.2-0.2,0.4-0.2,0.5-0.3l0.2-0.2h0.2
		l0-0.1c0.3-0.1,0.5-0.2,0.5-0.2c0,0,0-0.1,0-0.1c0-0.1,0.1-0.1,0.2-0.1l0.1-0.1c0.3,0,0.5-0.3,0.6-0.6
		C158.3,43.4,158.3,43.4,158.4,43.4z M156.7,38.6c0.1,0,0.1-0.1,0.3-0.3l0.1-0.2c0.2-0.3,0.3-0.5,0.3-0.5c0-0.1,0-0.2,0-0.3
		s0-0.3-0.1-0.6l-0.4-0.1c-0.1,0-0.2,0-0.2,0l-0.1,0c-0.1,0-0.2,0.1-0.2,0.2c-0.1,0-0.3,0.1-0.6,0.2l-0.1,0.1c0,0-0.1,0-0.1,0
		c0,0,0,0-0.1,0c0,0,0,0,0,0c0,0,0,0,0,0c0,0,0,0,0,0.1c0,0,0,0.1,0,0.1c0,0,0,0.1,0,0.1c0,0-0.1,0.1-0.1,0.2l-0.2,0.2l-0.3,0.6
		l-0.2,0.1c0,0-0.1,0.1-0.1,0.3s-0.2,0.5-0.6,1l0.1,0.1l0.1,0.2l0.3,0.1c0.2-0.1,0.4-0.2,0.6-0.3l0.1-0.1c0.1,0,0.1,0,0.2,0
		c0.1,0,0.1,0,0.2-0.1l0.2,0l0.2-0.3h0.1l0.1-0.2c0.2,0,0.4-0.1,0.5-0.3V38.6z"/>
	<path d="M167.3,41.9l-0.3,0.4c0,0.1,0,0.2,0,0.3c0,0.1,0,0.2-0.1,0.2c0,0.1-0.1,0.1-0.2,0.2c0,0-0.1,0.2-0.2,0.4
		c-0.1,0.1-0.2,0.3-0.2,0.4c-0.1,0.1-0.2,0.2-0.3,0.3c-0.1,0.1-0.2,0.2-0.4,0.3c-0.2,0.1-0.4,0.2-0.5,0.4l-0.2,0
		c0,0-0.2,0.1-0.4,0.3l-0.2,0l-0.5,0.4l-0.2-0.1l-0.4,0.2l-0.4-0.1l-0.1,0.2l-0.3-0.1l-0.2,0.1l-0.1-0.1l-0.3-0.1
		c-0.1,0-0.2-0.1-0.3-0.1l-0.3-0.3l-0.3-0.5c-0.1-0.2-0.2-0.3-0.2-0.6v-0.1l-0.2-0.4v-0.3l-0.1-0.1l0-0.4l-0.1-0.3l0.1-0.3l-0.1-0.2
		l0.2-0.3l-0.1-0.4l0.1-0.2c0-0.2,0.1-0.3,0.2-0.4l0-0.5l0.2-0.1l-0.1-0.1l0.1-0.2c0-0.3,0.2-0.7,0.4-1.3l0.4-0.4l0.1-0.3l0.2-0.3
		c0-0.2,0.1-0.3,0.2-0.5c0.1,0,0.3-0.1,0.4-0.2c0-0.2,0.2-0.3,0.6-0.3c0.1,0,0.2,0,0.4,0.1s0.3,0.2,0.4,0.3c0.2,0,0.3,0.1,0.3,0.2
		l0.6,0l0,0.2l0.1,0.1l0,0.2l0.2,0.2l0,0.3l0,0.2l0,0.4l0.1,0.1V39l0.1,0.4l-0.4,0.2l-0.4-0.5l0-0.7l-0.1-0.2v-0.3l-0.2-0.3
		c-0.1-0.1-0.2-0.2-0.5-0.4l-0.3,0.1h-0.3c-0.2,0-0.3,0.1-0.4,0.2c-0.1,0.1-0.3,0.3-0.5,0.6c-0.2,0.3-0.3,0.5-0.4,0.6l0,0.3
		l-0.2,0.1v0.4l-0.2,0.3l-0.1,0.3c-0.1,0.2-0.1,0.3-0.2,0.5c0,0.2-0.1,0.3-0.1,0.3l0,0.3l-0.2,0.4l0,0.3l-0.1,0l0,0.8l0,0l0,0.2
		l-0.1,0.1l0.3,0.4c0,0,0.1,0.2,0.1,0.3l-0.1,0.1l0.2,0.3l0.2,0.1l0,0.2l1.1,0.3c0.1-0.1,0.2-0.2,0.3-0.2c0,0,0.1,0,0.2,0.1
		c0.1-0.1,0.2-0.1,0.3-0.1l0.2,0c0,0,0.1,0,0.1-0.1c0.1-0.1,0.2-0.1,0.4-0.1c0.1-0.2,0.3-0.4,0.4-0.4c0.1,0,0.1,0,0.2,0
		c0.4-0.1,0.5-0.3,0.5-0.4c0.1-0.2,0.2-0.2,0.4-0.2h0.1c0.6-0.6,0.8-1,0.8-1c0.2-0.1,0.3-0.3,0.4-0.6l0.2-0.1l0-0.3
		C167.2,41.4,167.3,41.6,167.3,41.9z"/>
	<path d="M170.9,37.4l1.4,0.1l1.4-0.1l0.3,0l0.1,0h0.8c0.1,0,0.2,0.1,0.2,0.2c0,0.1-0.1,0.2-0.3,0.3c0,0-0.1,0-0.2,0
		c-0.1,0-0.2,0-0.3,0.1l-0.3-0.1l-0.6,0c-0.3,0.1-0.5,0.2-0.8,0.2l-0.4-0.1l-0.2,0.2h-0.2v-0.1l-0.4,0.2h-0.2l-0.1,0.2
		c-0.1,0-0.3-0.1-0.6-0.1c0,0.1-0.1,0.1-0.1,0.1c0,0-0.1,0-0.1-0.1l-0.3,0l-0.2,0.2l-0.1,1l0,0.6l-0.1,0.8l0,0.9l0.1,0.4v0.4
		l0.2,0.5v0.1c0,0.2,0.1,0.5,0.4,0.7l0.1,0.2l0.4,0.1l0.3,0.3l0.8,0.1l1-0.2l0.3,0.1l0.7-0.3l0.3,0c0.1,0.1,0.1,0.2,0.1,0.3
		c0,0.1-0.1,0.2-0.3,0.3l-0.2-0.1l-0.3,0.3l-0.7,0.1l-0.2,0.1l-0.2-0.1c-0.2,0.1-0.5,0.2-0.7,0.2l-0.4-0.1h-0.2l-0.8-0.4l-0.4-0.5
		l-0.2-0.3l-0.4-1l-0.2-0.9l0.1-0.4l-0.2-0.2l0.1-0.2l-0.1-0.4l0.2-0.2l-0.1-0.2l0.1-0.2l-0.1-0.3l0-0.4l0-0.2l0.1-0.1v-0.8
		c0-0.2-0.1-0.3-0.2-0.3c0,0-0.1,0-0.1,0.1l-0.2-0.1l-0.3,0.1l-0.3-0.2h-0.2c-0.2,0-0.2-0.1-0.2-0.3l0-0.3l-0.1-0.1l0.1-0.2l0.3,0
		l0.2,0l0.3,0.1h0.9l0-0.5v-0.5l-0.1-0.4l0.2-0.1c0-0.1,0-0.1,0-0.2c0-0.1-0.1-0.2-0.2-0.2l0-0.8l-0.2-0.3l0-0.2
		c-0.1,0-0.2-0.1-0.2-0.2l0.1-0.6c0.1-0.2,0.2-0.2,0.2-0.3c0.4,0.2,0.6,0.3,0.6,0.4v0l-0.1,0.2c0.1,0.2,0.1,0.4,0.1,0.5v0.1
		c0,0.1-0.1,0.2-0.1,0.3c0,0.1,0,0.1,0.1,0.2l0,0.2l0,0.2l-0.2,0.3l0.1,0.5l-0.1,0.6l0.1,0.1l-0.1,0.2l0.2,0.5h0.4L170.9,37.4z"/>
</g>
<g class="st0">
	<path d="M37.6,58l-0.1,0.2l0,0.3l-0.2,0.1l-0.1,0.4c0,0.1-0.1,0.2-0.2,0.3l0,0.3h-0.2c0.1,0.2,0.1,0.3,0.1,0.4
		c0,0.1-0.1,0.2-0.3,0.2v0.2l-0.2,0.7l-0.2,0.3H36c0.1,0.1,0.1,0.2,0.1,0.3L35.9,62l-0.5,1.3L35,64v0.3c0,0,0,0.1-0.1,0.2
		s-0.1,0.2-0.1,0.2c0,0,0,0.1,0.1,0.2c-0.1,0.1-0.3,0.1-0.5,0.1l0.1,0.2c-0.1,0.2-0.2,0.4-0.2,0.4C34,65.9,33.9,66,33.9,66
		c0,0.1,0,0.1,0,0.1h-0.2v0.2l-0.3,0.2l-0.1,0.3L33,67.3l-0.5,0.8c-0.1,0.2-0.3,0.2-0.5,0.2c-0.3,0-0.5-0.1-0.6-0.3L30.7,67l0-0.4
		l-0.1-0.1l0-0.5l-0.2-0.3v-0.5l-0.5-1.3l0-0.3l-0.1-0.2c0-0.1-0.1-0.2-0.1-0.4L29.4,63l-0.1-0.3c0-0.1-0.1-0.2-0.2-0.2l-0.2-0.2
		l-0.2-0.7l-0.2-0.2c-0.1-0.1-0.1-0.2-0.2-0.2l-0.2-0.3c-0.1,0-0.1,0-0.1,0c-0.1,0-0.2-0.2-0.2-0.5c0-0.2,0.1-0.4,0.4-0.5
		c0.2,0.2,0.4,0.4,0.5,0.5c0.1,0.1,0.2,0.3,0.4,0.6c0.2,0.3,0.3,0.5,0.4,0.5c-0.1,0-0.1,0-0.1,0.1c0,0,0,0.1,0.1,0.1v0.2l0.3,0.2
		l-0.1,0.2l0.1,0.4l0.2,0.7l0.1,0.1l0,0.3l0.1,0.1v0.2l0.3,0.9l0.1,0.4l0.3,0.8l0.3,1l0.2,0.2v0c0,0.2,0.1,0.3,0.4,0.3h0.1v-0.1
		c0,0,0,0,0.1-0.1c0.1,0,0.2-0.1,0.3-0.3c0.1,0,0.1,0,0.1,0c0,0,0.1,0,0.1-0.1c0,0,0-0.1,0-0.2l0.5-0.3c0-0.1,0-0.2,0.1-0.2
		s0.1-0.1,0.1-0.2l0.2-0.2l0.4-0.5l0.1-0.4l0.2-0.2l0.1-0.2c0-0.1,0.1-0.2,0.2-0.3l0-0.2l0.1,0l0.1-0.2l0.1,0.1c0-0.1,0-0.1,0-0.2
		c0-0.1,0-0.2,0.1-0.2c0-0.1,0.1-0.2,0.2-0.2c0.1-0.2,0.2-0.4,0.2-0.6h0.2l0-0.3c0.1-0.2,0.2-0.4,0.2-0.6l0.1,0l0.3-0.9l0.1-0.1
		l0,0.1c0.1-0.1,0.2-0.2,0.2-0.4c0-0.1,0.1-0.2,0.1-0.2s0.1,0,0.1,0l0.3-1l0.2-0.3v-0.1l0.1,0l0-0.3c0.2-0.2,0.3-0.4,0.4-0.6
		c0.1-0.2,0.2-0.3,0.2-0.3c0,0,0.1,0,0.1,0l0-0.1L37.6,58z"/>
	<path d="M46.2,67.9L45.9,68l-0.1,0.2c-0.1,0-0.2,0.1-0.3,0.1l-0.1-0.1l-0.2,0.1l-0.3-0.4v-0.5l-0.2-0.1l0-0.6l-0.1-1.3l0.1-0.4
		l-0.1-0.2l0.2-0.1l-0.1-0.2l0-0.2l0.1-0.1l0-0.3h0.1v-0.4l0-0.2c-0.1,0-0.1-0.1-0.2-0.2l-0.3,0.2c-0.1,0.2-0.2,0.3-0.3,0.3l0,0.2
		l-0.2,0.1l0,0.3l-0.1,0.1v0.2c-0.1,0.1-0.2,0.2-0.3,0.4l-0.1,0.1l-0.3,0.6l-0.5,0.5l-0.2,0.3l-0.4,0.5l-0.1,0.2l-0.6,0.4l-0.7,0.8
		l-0.2,0.1c-0.1,0-0.2,0.1-0.3,0.2h-0.1c-0.1,0-0.2-0.1-0.3-0.3c-0.5-0.2-0.8-0.5-0.8-0.9l0.2-0.1c-0.1-0.3-0.2-0.5-0.2-0.8
		l-0.1-0.1l0.1-0.1c0,0,0-0.1,0.1-0.2c0-0.1,0-0.2,0.1-0.4l0.1-0.8c0,0,0-0.1,0-0.1c0-0.1,0-0.2,0.1-0.2c0-0.1,0-0.2,0-0.2
		c0-0.1,0-0.1,0-0.2l0.1,0c0.1-0.2,0.2-0.3,0.2-0.4c0-0.1,0-0.1-0.1-0.2c0,0-0.1-0.1-0.1-0.1c0,0,0-0.1,0.1-0.1
		c-0.1,0-0.2-0.1-0.2-0.1s0.1-0.1,0.2-0.1v0c0-0.2,0-0.3,0.1-0.4c0.1-0.1,0.1-0.2,0.1-0.3l-0.1,0l0.3-0.4v-0.1
		c0-0.3,0.1-0.5,0.3-0.8l0-0.4l0.1-0.1c0-0.1-0.1-0.1-0.1-0.2c0,0,0-0.1,0.1-0.1v-0.3c0.1,0,0.1-0.1,0.1-0.1c0,0,0-0.1,0-0.1
		c0-0.1,0.1-0.2,0.3-0.3s0.2-0.3,0.3-0.4h0.1c0.2,0,0.2,0,0.2-0.1c0,0,0-0.1-0.1-0.1c0.3,0,0.4-0.1,0.4-0.2l0.4-0.2l1.1,0.1v0.1
		l0.9,0.2h0.1c0.1,0,0.2,0.1,0.2,0.2l0.1,0c0,0.1,0.1,0.2,0.2,0.2l0.1,0l0.2,0.2l0.4,0.1v0.2c0.2-0.1,0.5-0.2,0.8-0.3v0.3h-0.1
		l0.2,0.1l0,0l0.2,0.5l-0.2,0.2l-0.1,0.3c0,0.1-0.1,0.3-0.2,0.4l0.1,0.3c0,0-0.1,0.1-0.1,0.2c-0.1,0.1-0.1,0.2-0.1,0.5
		c0,0,0.1,0.1,0.1,0.1l0,0.2l0,0.1l-0.1,0.2l0,0.2l-0.1,0.1l0,0.5l-0.1,0.1l0.1,0.1l-0.1,0.1c0,0,0,0,0,0.1c0,0.1,0,0.1-0.1,0.2
		l0.1,0.1l-0.1,0.2c-0.1,0-0.1,0.1-0.1,0.3l0.1,0.3l-0.2,0.3c0.1,0.1,0.1,0.2,0.2,0.3c-0.1,0.1-0.2,0.4-0.3,0.8l0.2,0l0,0.1
		c0,0,0,0.1,0,0.1c0,0.1-0.1,0.3-0.2,0.4h0.1l0.1,0.3l0.4,0l0.1,0.3c0,0-0.1,0.1-0.1,0.1c0,0.1,0.1,0.1,0.2,0.2h0c0,0,0,0,0,0
		C46,67.7,46,67.8,46.2,67.9z M45.1,60.3L45,59.9l-0.3-0.1L44,59.3c-0.1-0.1-0.2-0.1-0.2-0.1c0,0-0.1,0-0.2,0l-0.1-0.1h-0.3L43.1,59
		l-0.2,0.1L42.8,59l-0.2,0.1L42.3,59c-0.2,0-0.4,0.1-0.7,0.2l0,0.1l-0.2,0.1l0,0.1l-0.2,0v0.1c-0.1,0.1-0.3,0.3-0.5,0.7
		c-0.1,0.4-0.2,0.8-0.4,1.1l0.2,0.1l-0.3,0.2l0.1,0.2c-0.1,0.2-0.2,0.4-0.2,0.6v0.1l-0.2,0.2v0.4c-0.1,0.1-0.2,0.3-0.2,0.4l-0.1,0.1
		v0.4l-0.1,0.1c0,0.1,0,0.3-0.1,0.6l0.1,0.3c-0.1,0-0.2,0.1-0.3,0.3l0.1,0.2l-0.1,0.2l0.2,0.4l-0.2,0.3l0,0.5L39.2,67l0.1,0.1l0,0.1
		c0.1,0,0.2,0.1,0.3,0.2l0.5-0.1c0.1-0.2,0.2-0.3,0.5-0.3l0-0.2c0.2-0.1,0.3-0.1,0.3-0.1c0,0,0,0,0-0.1c0-0.1,0.1-0.1,0.2-0.2h0
		c0,0,0.1,0,0.1-0.1l0.4-0.4h-0.1l0.2-0.2c0.1-0.1,0.2-0.1,0.3-0.2l0.2-0.4c0.3-0.1,0.4-0.3,0.4-0.4h0.1l0.2-0.3l0-0.2l0.2,0
		c0,0,0-0.1,0-0.1c0,0,0-0.1,0.1-0.2c0.1-0.1,0.2-0.2,0.2-0.3l0.1,0c0-0.2,0.1-0.3,0.2-0.4c0-0.1,0.1-0.2,0.2-0.3
		c0.1-0.1,0.1-0.1,0.2-0.1h0.1l0-0.3c0,0,0-0.1,0-0.1c0,0,0-0.1-0.1-0.1c0.1-0.2,0.2-0.3,0.3-0.4l0-0.2l0.1-0.1l0-0.2
		c0.1-0.1,0.1-0.3,0.2-0.4l0.2-0.2L45.1,60.3z"/>
	<path d="M61.1,64.9c0,0.1-0.1,0.2-0.3,0.3l0,0.1c0,0.1-0.1,0.2-0.3,0.4c-0.2,0.2-0.3,0.4-0.3,0.5l-0.2,0.1c0,0.3-0.1,0.5-0.4,0.5
		c0,0.1-0.1,0.1-0.1,0.1h0c0,0.1-0.1,0.2-0.2,0.2l-0.1,0.2L59,67.4l-0.2,0.2c0,0-0.1,0-0.1,0.1l-0.5,0.1l-0.2,0l-0.2,0l-0.1-0.1
		l-0.2,0l-0.2-0.3h-0.1c-0.1-0.1-0.1-0.1-0.1-0.2c-0.2-0.2-0.3-0.4-0.3-0.6v-0.2L56.7,66v-0.1l0.1-0.1l-0.1-0.3l-0.2-0.4l0-0.6
		l-0.2-0.3v-0.5c-0.2-1-0.3-1.6-0.3-1.9v-0.1c0-0.1,0-0.2,0-0.2c0-0.1,0-0.1,0-0.1c-0.2-0.2-0.2-0.4-0.2-0.6l-0.1-0.1l-0.4,0.5
		L55,61.5l-0.7,0.9L54,62.9c-0.1,0.2-0.2,0.4-0.2,0.5c-0.1,0.1-0.2,0.3-0.4,0.5l0.1,0.2l-0.1,0.4l-0.2,0v0.2H53l-0.4,0.5
		c0,0.2-0.1,0.4-0.3,0.4c-0.1,0.1-0.1,0.2-0.2,0.4s-0.1,0.3-0.2,0.3l-0.1,0.1c-0.1,0.2-0.3,0.4-0.4,0.5c-0.1,0.1-0.3,0.3-0.5,0.4
		c0,0.2-0.1,0.4-0.3,0.4l0,0.1c0,0.1,0,0.2-0.1,0.3c-0.1,0.1-0.2,0.2-0.5,0.2c-0.1,0-0.2-0.1-0.2-0.3s-0.1-0.4-0.2-0.4l-0.1-0.1
		l0.2-0.3l0-0.3l0.1-0.1l-0.1-0.2l0-0.3l-0.2-0.5l0.1-0.3l-0.1-0.3c0.1-0.2,0.1-0.5,0.1-0.9v-0.1c0,0,0-0.1-0.1-0.2
		c0.1-0.1,0.2-0.2,0.2-0.3l0-0.3l0.1-0.8l-0.1-0.2l0-0.3L49.7,62l0.1-0.7l0-0.2l0.1-0.4l-0.1-0.5l0.1-0.3c0.3,0.1,0.4,0.1,0.4,0.2
		s0,0.1,0.1,0.2c0,0.1,0,0.3,0,0.5l0.2,0.3l-0.1,0.4l0.1,0.9l-0.1,0.5l0.1,0.5v0.3l-0.2,0.3l0.1,0.4c0,0.1-0.1,0.3-0.2,0.6l0.1,0.2
		c-0.1,0.4-0.2,0.6-0.2,0.8l0,0.8l0.1,0.1l0.3-0.1h0.2l0.1-0.5c0.2,0,0.3-0.1,0.3-0.2c0-0.2,0.1-0.2,0.3-0.2c0-0.2,0.1-0.3,0.1-0.3
		c0.1,0,0.1-0.1,0.2-0.3c0.1-0.1,0.3-0.3,0.3-0.4v-0.3h0c0.1,0,0.1,0,0.2-0.1c0.1-0.1,0.2-0.1,0.3-0.1c0-0.2,0.1-0.3,0.2-0.4
		l0.3-0.4l0.3-0.6c0-0.1,0-0.2,0-0.2c0,0,0-0.1,0.1-0.1c0.3-0.2,0.4-0.4,0.4-0.5v-0.3c0.2-0.1,0.3-0.2,0.3-0.2c0,0,0-0.1,0-0.1
		c0-0.1,0-0.1,0-0.1c0-0.1,0-0.1,0.1-0.1c0,0,0.1,0,0.2,0.1c0.1-0.4,0.3-0.6,0.5-0.6c0,0,0.1,0,0.2,0c0-0.2,0.1-0.4,0.2-0.5
		c0-0.1,0.2-0.2,0.5-0.3l0.1-0.2h0.1c0.1,0.2,0.2,0.3,0.3,0.3l0,0.1l0.1,0l0,0.4l0.3,0.2l-0.1,0.4l0.2,0.7v0.6l0.1,0.7l0.1,0.7
		l0.2,0.7l0,0.7c0,0,0,0.1,0.1,0.2c0.1,0.1,0.1,0.3,0.1,0.5l0.1,0.1v0.3l0.2,0.2l0,0.2l0.1,0.1v0.1c0.1,0.1,0.2,0.1,0.3,0.1
		c0.1,0,0.2,0,0.3-0.1c0,0,0.1,0,0.1,0c0.1,0,0.1-0.1,0.2-0.2c0.2,0,0.3-0.1,0.3-0.2v-0.1c0,0,0.2-0.1,0.4-0.2
		c0.1-0.1,0.1-0.2,0.2-0.2l0-0.1c0,0,0-0.1,0.1-0.1c0,0,0.1-0.1,0.2-0.2c0.1-0.1,0.2-0.2,0.2-0.2l0.1-0.2c0.1-0.1,0.2-0.3,0.4-0.6
		l0.3-0.1h0.2L61.1,64.9z"/>
	<path d="M75.6,67.9c0,0.1,0,0.2,0,0.3c0,0.3-0.2,0.5-0.5,0.5c-0.2,0-0.3-0.2-0.4-0.5l-0.1-0.6v-0.2c0-0.1,0-0.2,0-0.3
		c0-0.2-0.1-0.3-0.2-0.6l0.1-0.3l-0.1-0.5l0.1-0.2V65l0.1-0.3l-0.1-0.3l0.1-0.2v-0.8l0-1l-0.2-0.7l0.1-0.3l-0.2-0.8v-0.3L74,60.2
		l-0.4,0.3c-0.1,0-0.1,0.1-0.2,0.1L73,60.9l-0.6,0.8l-0.2,0.1l-0.5,0.9v0.1h-0.1l-0.1,0.2l-0.2,0.2c-0.1,0.1-0.1,0.2-0.2,0.4
		l-0.2,0.7l-0.3,0.4c0,0-0.1,0.2-0.1,0.3l-0.2,0.2l-0.1,0.5l-0.4,0.4l0,0.6h-0.1l-0.1,0.4L69,67.8c-0.3,0.3-0.4,0.5-0.5,0.6l-0.1,0
		h-0.1l-0.1-0.1l-0.2-0.7l0-1.2L68,66l0.1-0.4l0-0.7l0.1,0l0.1-1.8l0.1-0.3l0-0.3l0.1-0.1l-0.1-0.1l0.1-0.7l0.1-0.3l-0.1-0.3
		l0.1-0.2l-0.1-0.1l0.1-0.7l-0.1-0.1l0.1-0.1l0-0.8l-0.1-0.4h0.1v-0.2l-0.2-0.9v-0.4l-0.1-0.2l-0.1-0.7c-0.1-0.3-0.2-0.6-0.3-0.9
		L68,55l0-0.1c0.2,0,0.2,0.1,0.2,0.3l0.3,0.3l0.1,0.2c0,0.1,0.1,0.2,0.3,0.3l-0.1,0.2l0.1,0.4l-0.1,0.2L69,57l0,0.5l0,1l0.1,0.5
		L69,59.3l0,0.4L69,60.1l0.1,0.5l-0.1,0.5l0.1,0.1l0,1.3l0,0.2l-0.1,0.1l-0.1,0.8l-0.1,0.2l0.1,0.3l0,0.1l0,0.7l-0.2,0.6
		c0.2,0.2,0.2,0.3,0.2,0.4l-0.2,0.3c0.1,0.1,0.1,0.3,0.1,0.5l0.2-0.2l0.1-0.3l0.3-0.7l0.2-0.5c0.2-0.1,0.3-0.2,0.3-0.4
		c0,0,0.1-0.2,0.3-0.5l0.1-0.3c0-0.1,0.1-0.2,0.2-0.3l0-0.3l-0.1-0.1l0.1-0.1l0,0.1l0.3-0.4c0.1-0.1,0.2-0.1,0.2-0.3v-0.1
		c0.2,0,0.3-0.2,0.3-0.4l0.1,0v-0.1l0.2,0l0-0.3h0.1l0-0.2h0.1v-0.1c0.1-0.1,0.2-0.1,0.2-0.1c0,0,0,0,0,0v0l0-0.2h0.1
		c0.2,0,0.2-0.1,0.2-0.4l0.3-0.2l0,0.1c0.1-0.1,0.2-0.3,0.2-0.4L73,60l0.1-0.2l0.2,0c0.1-0.1,0.1-0.1,0.2-0.1c0.1,0,0.2,0,0.2,0
		l0-0.1c0.3-0.2,0.5-0.2,0.5-0.2c0.1,0,0.2,0.1,0.3,0.3c0.1,0,0.2,0.1,0.2,0.2l0.2,0.2c0,0.1,0.1,0.3,0.3,0.7v1.6l0,0.9l0.1,0.2v1.5
		l0,0.3v0.5l0,0.4L75,66.7c0.1,0.1,0.1,0.3,0.1,0.6l0.2,0.3v0.3L75.6,67.9z"/>
	<path d="M83.9,66.2c0.1,0.2,0.2,0.3,0.2,0.3c0,0.1-0.1,0.2-0.2,0.3c-0.1,0.2-0.2,0.4-0.3,0.6l-0.2,0l-0.2,0.4l-0.3,0l-0.6,0.4
		l-0.1,0.2l-0.2,0l-0.2,0.2h-0.3l-0.1,0.1l-0.1,0c-0.2,0-0.3,0.1-0.4,0.2l-0.1-0.1C80.8,69,80.6,69,80.6,69c-0.2,0-0.3,0-0.4-0.1
		c-0.1,0-0.2,0-0.3,0l-0.1-0.1c-0.4,0-0.6-0.1-0.8-0.3v-0.3l-0.3-0.2l-0.1-0.2c0-0.1-0.1-0.2-0.2-0.3v-0.2l-0.2-1l0-0.7l0.1-0.4
		v-0.4l0.1-0.4l0-0.3c0.1-0.1,0.1-0.1,0.1-0.2c0-0.1,0.1-0.2,0.1-0.3c0-0.1-0.1-0.3-0.1-0.5l0.2-0.2l-0.2-0.2
		c0.1-0.2,0.1-0.3,0.1-0.3l-0.1-0.6c0-0.2,0-0.3,0.1-0.4c0.1,0.1,0.2,0.2,0.3,0.2c0.1,0,0.2,0,0.4-0.1c0,0,0-0.1,0-0.1
		c0-0.1,0.1-0.2,0.2-0.3c0.1-0.3,0.3-0.7,0.5-1c0.1-0.1,0.2-0.2,0.2-0.4h0.1l0.1-0.2l0.1-0.1c0-0.1,0.1-0.2,0.2-0.3
		c0.2,0,0.3-0.2,0.6-0.5c0,0,0.1,0,0.2,0c0,0,0.1-0.1,0.2-0.2c0.2-0.1,0.4-0.1,0.4-0.1c0.1,0,0.1,0,0.2,0.1l0.2,0l0.1,0.1h0.1
		c0.1,0.2,0.2,0.3,0.4,0.3H83c0,0.1,0.1,0.2,0.1,0.2l-0.1,0c0.2,0.1,0.4,0.4,0.4,0.8l-0.1,0.2l0.1,0.6l-0.1,0.1l-0.2,0.6L82.6,62
		l0,0.3c-0.5,0.4-0.9,0.7-1.2,0.8c0,0.1-0.1,0.1-0.1,0.1c0,0-0.1,0-0.2,0l-0.5,0.3h-0.3L80,63.7l-0.2-0.1c0,0-0.2-0.1-0.4-0.1
		C79.1,63.7,79,64,79,64.3l-0.1,0.2c0,0.3-0.1,0.4-0.1,0.5l-0.1,0.1l0.1,0.8l-0.1,0.1l0,0.2l0,0.3c0,0,0,0.2,0.1,0.4
		s0.1,0.3,0.2,0.4c0,0.1,0,0.2,0.2,0.3c0.2,0.1,0.3,0.2,0.5,0.3V68l0.5,0.1l0.8,0l0.5-0.1c0.2-0.2,0.4-0.2,0.5-0.3l0.2-0.2h0.2
		l0-0.1c0.3-0.1,0.5-0.2,0.5-0.2c0,0,0-0.1,0-0.1C82.9,67,83,67,83,67l0.1-0.1c0.3,0,0.5-0.3,0.6-0.6C83.8,66.2,83.8,66.2,83.9,66.2
		z M82.2,61.4c0.1,0,0.1-0.1,0.3-0.3l0.1-0.2c0.2-0.3,0.3-0.5,0.3-0.5c0-0.1,0-0.2,0-0.3s0-0.3-0.1-0.6l-0.4-0.1c-0.1,0-0.2,0-0.2,0
		l-0.1,0c-0.1,0-0.2,0.1-0.2,0.2c-0.1,0-0.3,0.1-0.6,0.2l-0.1,0.1c0,0-0.1,0-0.1,0c0,0,0,0-0.1,0c0,0,0,0,0,0c0,0,0,0,0,0
		c0,0,0,0,0,0.1c0,0,0,0.1,0,0.1c0,0,0,0.1,0,0.1c0,0-0.1,0.1-0.1,0.2l-0.2,0.2L80.2,61l-0.2,0.1c0,0-0.1,0.1-0.1,0.3
		s-0.2,0.5-0.6,1l0.1,0.1l0.1,0.2l0.3,0.1c0.2-0.1,0.4-0.2,0.6-0.3l0.1-0.1c0.1,0,0.1,0,0.2,0c0.1,0,0.1,0,0.2-0.1l0.2,0l0.2-0.3
		h0.1l0.1-0.2c0.2,0,0.4-0.1,0.5-0.3V61.4z"/>
	<path d="M87.7,60.2l1.4,0.1l1.4-0.1l0.3,0l0.1,0h0.8c0.1,0,0.2,0.1,0.2,0.2c0,0.1-0.1,0.2-0.3,0.3c0,0-0.1,0-0.2,0
		c-0.1,0-0.2,0-0.3,0.1l-0.3-0.1l-0.6,0c-0.3,0.1-0.5,0.2-0.8,0.2l-0.4-0.1L89,61h-0.2v-0.1L88.4,61h-0.2l-0.1,0.2
		c-0.1,0-0.3-0.1-0.6-0.1c0,0.1-0.1,0.1-0.1,0.1c0,0-0.1,0-0.1-0.1l-0.3,0l-0.2,0.2l-0.1,1l0,0.6l-0.1,0.8l0,0.9l0.1,0.4v0.4
		l0.2,0.5v0.1c0,0.2,0.1,0.5,0.4,0.7l0.1,0.2l0.4,0.1l0.3,0.3l0.8,0.1l1-0.2l0.3,0.1l0.7-0.3l0.3,0c0.1,0.1,0.1,0.2,0.1,0.3
		c0,0.1-0.1,0.2-0.3,0.3L91,67.6l-0.3,0.3L90,68l-0.2,0.1L89.5,68c-0.2,0.1-0.5,0.2-0.7,0.2l-0.4-0.1h-0.2l-0.8-0.4L87,67.2
		l-0.2-0.3l-0.4-1l-0.2-0.9l0.1-0.4l-0.2-0.2l0.1-0.2l-0.1-0.4l0.2-0.2l-0.1-0.2l0.1-0.2l-0.1-0.3l0-0.4l0-0.2l0.1-0.1v-0.8
		c0-0.2-0.1-0.3-0.2-0.3c0,0-0.1,0-0.1,0.1l-0.2-0.1l-0.3,0.1L85.1,61h-0.2c-0.2,0-0.2-0.1-0.2-0.3l0-0.3l-0.1-0.1l0.1-0.2l0.3,0
		l0.2,0l0.3,0.1h0.9l0-0.5v-0.5l-0.1-0.4l0.2-0.1c0-0.1,0-0.1,0-0.2c0-0.1-0.1-0.2-0.2-0.2l0-0.8l-0.2-0.3l0-0.2
		c-0.1,0-0.2-0.1-0.2-0.2l0.1-0.6c0.1-0.2,0.2-0.2,0.2-0.3c0.4,0.2,0.6,0.3,0.6,0.4v0l-0.1,0.2c0.1,0.2,0.1,0.4,0.1,0.5v0.1
		c0,0.1-0.1,0.2-0.1,0.3c0,0.1,0,0.1,0.1,0.2l0,0.2l0,0.2l-0.2,0.3l0.1,0.5l-0.1,0.6l0.1,0.1l-0.1,0.2l0.2,0.5h0.4L87.7,60.2z"/>
	<path d="M107.7,65.4l-0.2,0.8l0,0.2l-0.1,0.1c0.1,0.2,0.1,0.3,0.1,0.5l0,0.2l0,0.4c0,0.3,0,0.6-0.1,1s-0.1,0.7-0.1,0.8l0,0.3
		c0,0.1-0.1,0.3-0.2,0.6h0.1l-0.1,0.3l-0.1,0.2c0,0-0.1,0.2-0.1,0.3c-0.1,0.2-0.1,0.3-0.2,0.5s-0.2,0.3-0.3,0.4
		c-0.1,0.2-0.2,0.3-0.4,0.4c-0.1,0.1-0.3,0.3-0.6,0.5l-0.3,0.1c-0.2,0.1-0.3,0.2-0.4,0.2l-0.1,0.1c-0.5,0.1-0.7,0.1-0.8,0.1h0l0,0.1
		c-0.2,0.1-0.4,0.1-0.7,0.1h-0.7l-0.5-0.1l-0.3,0.1l-0.2-0.1l-0.6-0.1l-0.2-0.2c-0.1-0.1-0.3-0.2-0.5-0.3c-0.4-0.2-0.6-0.4-0.7-0.7
		l0.1-0.1l-0.1-0.4c0-0.1,0.1-0.1,0.2-0.1c0-0.1,0.1-0.1,0.1-0.1c0,0,0.1,0,0.2,0c0.1,0,0.3,0,0.5,0.1l0,0.2c0.1,0,0.2,0,0.3,0.1
		c0,0.1,0,0.1,0,0.2l0,0.1c0,0.2,0.1,0.2,0.2,0.3c0,0.1,0,0.1,0,0.1c0,0,0.1,0,0.1,0.1L102,73l0.2,0l0,0.1h0.5c0.1,0,0.2,0,0.4,0.1
		c0.1-0.1,0.5-0.2,1.1-0.2c0.1,0,0.2-0.1,0.3-0.2c0.3,0,0.4-0.1,0.5-0.2h0.1c0.1,0,0.1,0,0.2,0c0.1,0,0.1-0.1,0.2-0.1l0.7-0.7
		l0.4-0.6l0-0.3l0.2-0.3l0-0.3l0.1-0.3l0.1-0.6l0.2-0.6l0-0.4V68c0-0.3,0.1-0.6,0.2-0.8l-0.1-0.5v-1.1l-0.1-0.4v-0.6l-0.2-0.4l0-0.7
		l-0.3-0.8c0,0-0.1-0.1-0.1-0.1c-0.1,0-0.2,0.1-0.3,0.2l0,0.2l-0.3,0.1l-0.2,0.4l-0.3,0.3l-0.4,0.6l-0.5,0.4l-0.6,0.7
		c-0.2,0.2-0.3,0.3-0.5,0.4c-0.1,0.1-0.3,0.2-0.5,0.4c-0.2,0.1-0.2,0.2-0.3,0.2l-0.1,0.2c0,0-0.1,0.1-0.3,0.2l-0.3,0.2l-0.2,0.2
		c-0.1,0.1-0.2,0.2-0.5,0.3c-0.1,0.1-0.1,0.1-0.3,0.1h-0.1c-0.3,0.2-0.6,0.4-0.9,0.4c-0.1,0-0.2,0-0.3,0l-0.2,0.1
		c-0.1,0-0.2-0.1-0.4-0.1c-0.5-0.5-0.8-0.9-0.9-1.3l-0.1-0.8l0-0.5l0.2-0.8l0-0.2l0.1-0.3c0.1-0.2,0.1-0.4,0.2-0.5S99,63.2,99,63
		l0-0.3l0.4-0.8c0,0,0.1-0.1,0.1-0.1c0.1-0.1,0.2-0.3,0.4-0.5l0.2-0.2c0.1-0.3,0.2-0.4,0.3-0.5c0.1-0.1,0.2-0.2,0.3-0.5
		c0.1-0.1,0.2-0.1,0.4-0.2s0.4-0.2,0.5-0.4l0.1,0l0.4-0.3c0.1-0.2,0.3-0.2,0.4-0.2c0,0,0.1,0,0.2,0l0.6-0.2l0.4,0.1h0.3l0.2,0.1h0.1
		c0,0.1,0.2,0.2,0.4,0.4c0.2,0.2,0.4,0.4,0.4,0.4c0,0.2-0.1,0.4-0.1,0.5h-0.3l-0.3-0.4c-0.3-0.1-0.4-0.2-0.4-0.3l-0.1,0
		c-0.2-0.1-0.3-0.1-0.4-0.1c-0.2,0-0.5,0.1-0.7,0.3l-0.1,0l0,0.1h-0.2l-0.3,0.1c-0.1,0.2-0.2,0.3-0.4,0.3c-0.2,0.2-0.3,0.3-0.4,0.3
		l-0.1,0.3l-0.2,0.1l0,0.1h-0.2l-0.3,0.6l-0.3,0.2l-0.1,0.4l-0.3,0.4c0,0.1-0.1,0.2-0.1,0.5l-0.2,0.2l-0.2,0.9L99,64.5l0,0.4
		l-0.3,0.9l0.1,0.3l0,0.4c0.1,0.1,0.1,0.2,0.2,0.3c0,0.2,0.1,0.3,0.2,0.3l0.1,0.2c0.1,0,0.2,0.1,0.3,0.1c0.1,0,0.2-0.1,0.3-0.1
		l0.2,0c0,0,0.1,0,0.3,0c0.1-0.1,0.4-0.2,1-0.3c0.1-0.1,0.2-0.2,0.2-0.3s0.2-0.2,0.3-0.3c0.1-0.1,0.2-0.1,0.3-0.2
		c0.1-0.1,0.2-0.2,0.3-0.2c0.2-0.1,0.4-0.2,0.4-0.4c0.3-0.1,0.5-0.3,0.6-0.4l0.2-0.1c0,0,0.1-0.1,0.2-0.2c0.1-0.1,0.3-0.3,0.5-0.6
		l0.1,0.1l0.1-0.2l0.2-0.1c0,0,0-0.1,0-0.1c0-0.1,0-0.2,0.1-0.3c0.1,0,0.1,0,0.1,0c0,0,0.1-0.1,0.1-0.1l0.1-0.2l0.4-0.5h0.1l0.1-0.4
		c0.1,0,0.3-0.5,0.6-1.3l0.2-0.1l-0.1-0.3l-0.1-0.3c0-0.1-0.1-0.2-0.1-0.3l-0.2-0.4l0.1-0.3l-0.1-0.4c0.1-0.1,0.1-0.2,0.2-0.2
		c0,0,0.1,0,0.1,0s0.1,0.1,0.2,0.3l0.2,0.1l0,0.4l0.1,0.3c0,0.1,0,0.2,0.1,0.2c0,0.1,0,0.2,0.1,0.3c0,0.1,0.1,0.2,0.1,0.3
		c0,0.1,0,0.1-0.1,0.1c0.1,0.2,0.2,0.4,0.3,0.5l-0.1,0.4c0.2,0.2,0.2,0.3,0.2,0.4c0,0.1,0,0.2-0.1,0.3l0.1,0.3l0.1,0.1l-0.1,0.3
		l0.1,0.5c0.1,0.2,0.1,0.3,0.1,0.5c0,0,0,0,0,0c0,0.1-0.1,0.2-0.1,0.5l0.1,0.1L107.7,65.4z"/>
	<path d="M116.3,66.2c0.1,0.2,0.2,0.3,0.2,0.3c0,0.1-0.1,0.2-0.2,0.3c-0.1,0.2-0.2,0.4-0.3,0.6l-0.2,0l-0.2,0.4l-0.3,0l-0.6,0.4
		l-0.1,0.2l-0.2,0l-0.2,0.2H114l-0.1,0.1l-0.1,0c-0.2,0-0.3,0.1-0.4,0.2l-0.1-0.1c-0.1,0.1-0.3,0.1-0.3,0.1c-0.2,0-0.3,0-0.4-0.1
		c-0.1,0-0.2,0-0.3,0l-0.1-0.1c-0.4,0-0.6-0.1-0.8-0.3v-0.3l-0.3-0.2l-0.1-0.2c0-0.1-0.1-0.2-0.2-0.3v-0.2l-0.2-1l0-0.7l0.1-0.4
		v-0.4l0.1-0.4l0-0.3c0.1-0.1,0.1-0.1,0.1-0.2c0-0.1,0.1-0.2,0.1-0.3c0-0.1-0.1-0.3-0.1-0.5l0.2-0.2l-0.2-0.2
		c0.1-0.2,0.1-0.3,0.1-0.3l-0.1-0.6c0-0.2,0-0.3,0.1-0.4c0.1,0.1,0.2,0.2,0.3,0.2c0.1,0,0.2,0,0.4-0.1c0,0,0-0.1,0-0.1
		c0-0.1,0.1-0.2,0.2-0.3c0.1-0.3,0.3-0.7,0.5-1c0.1-0.1,0.2-0.2,0.2-0.4h0.1l0.1-0.2l0.1-0.1c0-0.1,0.1-0.2,0.2-0.3
		c0.2,0,0.3-0.2,0.6-0.5c0,0,0.1,0,0.2,0c0,0,0.1-0.1,0.2-0.2c0.2-0.1,0.4-0.1,0.4-0.1c0.1,0,0.1,0,0.2,0.1l0.2,0l0.1,0.1h0.1
		c0.1,0.2,0.2,0.3,0.4,0.3h0.1c0,0.1,0.1,0.2,0.1,0.2l-0.1,0c0.2,0.1,0.4,0.4,0.4,0.8l-0.1,0.2l0.1,0.6l-0.1,0.1l-0.2,0.6L115,62
		l0,0.3c-0.5,0.4-0.9,0.7-1.2,0.8c0,0.1-0.1,0.1-0.1,0.1c0,0-0.1,0-0.2,0l-0.5,0.3h-0.3l-0.4,0.2l-0.2-0.1c0,0-0.2-0.1-0.4-0.1
		c-0.2,0.2-0.3,0.5-0.3,0.8l-0.1,0.2c0,0.3-0.1,0.4-0.1,0.5l-0.1,0.1l0.1,0.8l-0.1,0.1l0,0.2l0,0.3c0,0,0,0.2,0.1,0.4
		s0.1,0.3,0.2,0.4c0,0.1,0,0.2,0.2,0.3c0.2,0.1,0.3,0.2,0.5,0.3V68l0.5,0.1l0.8,0l0.5-0.1c0.2-0.2,0.4-0.2,0.5-0.3l0.2-0.2h0.2
		l0-0.1c0.3-0.1,0.5-0.2,0.5-0.2c0,0,0-0.1,0-0.1c0-0.1,0.1-0.1,0.2-0.1l0.1-0.1c0.3,0,0.5-0.3,0.6-0.6
		C116.1,66.2,116.2,66.2,116.3,66.2z M114.6,61.4c0.1,0,0.1-0.1,0.3-0.3l0.1-0.2c0.2-0.3,0.3-0.5,0.3-0.5c0-0.1,0-0.2,0-0.3
		s0-0.3-0.1-0.6l-0.4-0.1c-0.1,0-0.2,0-0.2,0l-0.1,0c-0.1,0-0.2,0.1-0.2,0.2c-0.1,0-0.3,0.1-0.6,0.2l-0.1,0.1c0,0-0.1,0-0.1,0
		c0,0,0,0-0.1,0c0,0,0,0,0,0c0,0,0,0,0,0c0,0,0,0,0,0.1c0,0,0,0.1,0,0.1c0,0,0,0.1,0,0.1c0,0-0.1,0.1-0.1,0.2l-0.2,0.2l-0.3,0.6
		l-0.2,0.1c0,0-0.1,0.1-0.1,0.3s-0.2,0.5-0.6,1l0.1,0.1l0.1,0.2l0.3,0.1c0.2-0.1,0.4-0.2,0.6-0.3l0.1-0.1c0.1,0,0.1,0,0.2,0
		c0.1,0,0.1,0,0.2-0.1l0.2,0l0.2-0.3h0.1l0.1-0.2c0.2,0,0.4-0.1,0.5-0.3V61.4z"/>
	<path d="M134.8,66.3l-0.1,0.2l-0.1,0c0,0.1,0,0.2-0.1,0.3c-0.1,0.1-0.1,0.1-0.1,0.2v0l-0.1,0c0,0.1-0.1,0.2-0.2,0.3
		c-0.1,0.1-0.2,0.1-0.2,0.1l-0.2,0l0,0.2c-0.1,0.1-0.2,0.2-0.2,0.2c0,0-0.1,0-0.3,0c-0.2,0.1-0.3,0.1-0.5,0.1c-0.1,0-0.3,0-0.7-0.1
		c0-0.1-0.1-0.1-0.1-0.1c0,0-0.1,0-0.2,0.1c0-0.1-0.1-0.2-0.3-0.3l0-0.2c-0.2-0.1-0.2-0.2-0.2-0.4l0-0.2l-0.2-0.2l-0.1-0.6l-0.2-0.3
		v-0.1l-0.1-0.7l0-0.3l-0.2-0.7l0-0.3l0-0.6l-0.1-0.8l-0.3,0.3l-0.4,0.8l-0.2,0.4c-0.3,0.2-0.4,0.4-0.5,0.7c-0.1,0-0.2,0.2-0.2,0.5
		c-0.1,0.1-0.2,0.2-0.2,0.3c-0.1,0.1-0.1,0.2-0.2,0.3c0,0.1-0.1,0.1-0.1,0.1v0.1c-0.2,0.2-0.4,0.4-0.4,0.7c0,0-0.1,0.1-0.2,0.3
		c-0.1,0.2-0.3,0.4-0.5,0.7c-0.1,0.1-0.2,0.2-0.3,0.4c-0.1,0.1-0.1,0.2-0.2,0.2s-0.1,0.1-0.1,0.2v0.1c-0.1,0-0.3,0.1-0.6,0.2
		c-0.1,0-0.2-0.1-0.3-0.2l0-0.3l-0.1-0.3v-0.2l-0.2-0.7c0,0,0-0.1,0-0.1c0-0.1,0-0.2-0.1-0.3l0.1-0.7l-0.1-0.2l0.1-0.3l0-0.2v-0.1
		l-0.1-0.2l0.1-0.3l-0.1-0.7l0-0.2l0.1-0.8l-0.1-0.5l0-0.4l-0.1-0.3c-0.1-0.3-0.2-0.5-0.2-0.6c0-0.1-0.1-0.1-0.1-0.1c0,0,0,0-0.1,0
		c0,0-0.2,0.1-0.5,0.3l-0.3,0.4l-0.3,0.3l-0.6,0.8l0,0.2l-0.3,0.4l-0.1,0.4c-0.1,0.1-0.1,0.2-0.2,0.4c-0.1,0.2-0.1,0.3-0.2,0.3
		c-0.1,0-0.2,0.1-0.3,0.2l0,0.4c-0.1,0.1-0.1,0.2-0.2,0.3c-0.1,0.1-0.1,0.2-0.2,0.3c-0.1,0.1-0.2,0.2-0.2,0.4
		c-0.2,0-0.2,0.1-0.2,0.3c0,0.1-0.1,0.2-0.2,0.2c-0.1,0.1-0.1,0.2-0.1,0.3v0.1c-0.2,0.1-0.3,0.2-0.3,0.3c0,0,0,0.1,0.1,0.1
		c-0.2,0.1-0.3,0.2-0.4,0.4c-0.1,0.2-0.2,0.3-0.2,0.3v0.1c0,0.1,0,0.2-0.1,0.2s-0.1,0.1-0.3,0.3c-0.1,0.1-0.2,0.2-0.3,0.2
		c-0.1,0-0.2-0.2-0.2-0.5c0,0,0-0.1,0-0.1c0-0.1,0-0.2-0.1-0.3v-0.3c0-0.1,0-0.2,0.1-0.3l-0.1-0.5l0-0.3l0-0.4v-0.1
		c0-0.2,0-0.3,0.1-0.3l0-0.2c0-0.1,0-0.2,0-0.3s0-0.2,0-0.3v-0.3c0-0.1,0.1-0.2,0.2-0.3l-0.2-0.2c0.1,0,0.1-0.1,0.1-0.1
		c0-0.1,0-0.1,0-0.1c0,0,0-0.1,0.1-0.3c0.1-0.1,0.1-0.2,0.1-0.4l-0.1-0.4l0.1-0.2l-0.1-0.7l0.1-0.3l-0.1-0.6l0-0.4l-0.1-0.3
		c0.1-0.3,0.3-0.5,0.4-0.5l0.1,0l0.1,0.3c0.2,0,0.3,0.2,0.3,0.3l0,0.4c0,0.1,0.1,0.1,0.2,0.2c-0.1,0.2-0.2,0.3-0.2,0.4v0.1l0.1,1.1
		l-0.1,0.8l-0.1,0.2l0.1,0.3l-0.1,0.1l0.1,0.2c-0.1,0.1-0.2,0.2-0.2,0.3l0,0.2c0,0.1,0,0.2-0.1,0.2l0.1,0.6l-0.1,0.2
		c-0.1,0.2-0.1,0.3-0.1,0.4c0,0.1,0,0.2,0,0.2c0,0.1,0,0.1,0,0.2c0.1,0.1,0.1,0.2,0.1,0.2c0,0.1,0,0.1-0.1,0.2l0.2,0.1l0.4-0.5
		l0.1-0.3c0.1,0,0.1-0.1,0.2-0.2c0-0.1,0.1-0.2,0.1-0.3s0.1-0.2,0.2-0.4c0,0,0.1,0,0.1-0.1c0.1-0.1,0.1-0.2,0.2-0.3
		c0.1-0.1,0.2-0.3,0.3-0.4c0-0.1,0.1-0.1,0.1-0.2c0-0.1,0.1-0.1,0.1-0.2s0.1-0.2,0.2-0.4l0.2-0.4l0-0.2c0-0.1,0.1-0.1,0.2-0.3
		l0.4-0.4c0,0,0.1-0.1,0.2-0.4c0.1-0.2,0.2-0.4,0.4-0.6c0.1-0.1,0.2-0.2,0.2-0.3c0.1,0,0.2-0.1,0.2-0.2c0.2-0.1,0.2-0.2,0.3-0.3
		l0.1,0c0.1,0,0.1-0.1,0.2-0.4c0.2-0.2,0.4-0.3,0.4-0.3c0,0,0.2,0,0.5,0.1c0,0.1,0,0.1,0,0.1c0,0,0,0.1,0,0.1l0.1,0
		c0,0.1,0.1,0.2,0.3,0.5v0.3l0.2,0.2v0.3c0.2,0.3,0.2,0.6,0.2,0.8l-0.1,0.3l0.1,0.3l-0.2,0.2l0.1,0.7c0,0.1-0.1,0.3-0.1,0.5l0.1,0.6
		l-0.1,0.2l0.1,0.2l-0.1,0.1c0.1,0.4,0.2,0.8,0.2,1.1l0,0.2l-0.1,0.1c0.1,0.2,0.2,0.3,0.2,0.5l0.4,0.1l1-1.2c0,0,0.1-0.2,0.2-0.4
		c0.1-0.2,0.2-0.3,0.2-0.5c0.1,0,0.1-0.1,0.2-0.3c0-0.2,0.1-0.3,0.2-0.3c0-0.1,0-0.2,0-0.2c0,0,0.1-0.1,0.4-0.3v0
		c0-0.2,0.1-0.4,0.4-0.6c0.1-0.2,0.2-0.4,0.3-0.6c0.2-0.2,0.3-0.3,0.4-0.5l0.2-0.4c0.1-0.2,0.2-0.3,0.2-0.5c0.2-0.1,0.4-0.4,0.6-0.8
		c0.2,0,0.3-0.2,0.3-0.4l0.3-0.2l0.3,0.2l-0.1,0.1l0.1,0.1c-0.1,0-0.2,0.1-0.2,0.2c0,0.1,0,0.1,0.1,0.1l-0.1,0.3l-0.1,1
		c0.1,0,0.1,0.1,0.1,0.1c-0.1,0.2-0.2,0.4-0.2,0.7l0,0.4l0,0.1l0.1,0.3c0,0,0,0-0.1,0.1c0,0-0.1,0.1-0.1,0.1s0,0.1,0.1,0.2
		c0.1,0,0.1,0.1,0.1,0.3c0,0,0,0.1-0.1,0.1c0,0,0,0.1,0,0.1c0,0,0,0.1-0.1,0.1c0,0.3,0.1,0.6,0.2,0.9c0.1,0.1,0.1,0.4,0.2,0.7
		l0.3,0.1l0.1,0.5c0.2,0.1,0.3,0.2,0.3,0.3l0.3,0.1l0.3,0.1c0.1,0,0.2,0,0.2,0c0.1,0,0.2,0,0.3-0.1c0.1,0,0.2-0.1,0.3-0.1
		c0.1-0.1,0.2-0.1,0.4-0.2c0.1-0.2,0.2-0.3,0.3-0.5l0.3-0.1l0.1-0.2l0.3,0C134.8,66.1,134.8,66.2,134.8,66.3z"/>
	<path d="M143.7,67.9l-0.3,0.1l-0.1,0.2c-0.1,0-0.2,0.1-0.3,0.1l-0.1-0.1l-0.2,0.1l-0.3-0.4v-0.5l-0.2-0.1l0-0.6l-0.1-1.3l0.1-0.4
		l-0.1-0.2l0.2-0.1l-0.1-0.2l0-0.2l0.1-0.1l0-0.3h0.1v-0.4l0-0.2c-0.1,0-0.1-0.1-0.2-0.2l-0.3,0.2c-0.1,0.2-0.2,0.3-0.3,0.3l0,0.2
		l-0.2,0.1l0,0.3l-0.1,0.1v0.2c-0.1,0.1-0.2,0.2-0.3,0.4l-0.1,0.1l-0.3,0.6l-0.5,0.5l-0.2,0.3l-0.4,0.5l-0.1,0.2l-0.6,0.4l-0.7,0.8
		l-0.2,0.1c-0.1,0-0.2,0.1-0.3,0.2h-0.1c-0.1,0-0.2-0.1-0.3-0.3c-0.5-0.2-0.8-0.5-0.8-0.9l0.2-0.1c-0.1-0.3-0.2-0.5-0.2-0.8
		l-0.1-0.1l0.1-0.1c0,0,0-0.1,0.1-0.2c0-0.1,0-0.2,0.1-0.4l0.1-0.8c0,0,0-0.1,0-0.1c0-0.1,0-0.2,0.1-0.2c0-0.1,0-0.2,0-0.2
		c0-0.1,0-0.1,0-0.2l0.1,0c0.1-0.2,0.2-0.3,0.2-0.4c0-0.1,0-0.1-0.1-0.2c0,0-0.1-0.1-0.1-0.1c0,0,0-0.1,0.1-0.1
		c-0.1,0-0.2-0.1-0.2-0.1s0.1-0.1,0.2-0.1v0c0-0.2,0-0.3,0.1-0.4c0.1-0.1,0.1-0.2,0.1-0.3l-0.1,0l0.3-0.4v-0.1
		c0-0.3,0.1-0.5,0.3-0.8l0-0.4l0.1-0.1c0-0.1-0.1-0.1-0.1-0.2c0,0,0-0.1,0.1-0.1v-0.3c0.1,0,0.1-0.1,0.1-0.1c0,0,0-0.1,0-0.1
		c0-0.1,0.1-0.2,0.3-0.3s0.2-0.3,0.3-0.4h0.1c0.2,0,0.2,0,0.2-0.1c0,0,0-0.1-0.1-0.1c0.3,0,0.4-0.1,0.4-0.2l0.4-0.2l1.1,0.1v0.1
		l0.9,0.2h0.1c0.1,0,0.2,0.1,0.2,0.2l0.1,0c0,0.1,0.1,0.2,0.2,0.2l0.1,0l0.2,0.2l0.4,0.1v0.2c0.2-0.1,0.5-0.2,0.8-0.3v0.3h-0.1
		l0.2,0.1l0,0l0.2,0.5l-0.2,0.2l-0.1,0.3c0,0.1-0.1,0.3-0.2,0.4l0.1,0.3c0,0-0.1,0.1-0.1,0.2c-0.1,0.1-0.1,0.2-0.1,0.5
		c0,0,0.1,0.1,0.1,0.1l0,0.2l0,0.1l-0.1,0.2l0,0.2l-0.1,0.1l0,0.5l-0.1,0.1l0.1,0.1l-0.1,0.1c0,0,0,0,0,0.1c0,0.1,0,0.1-0.1,0.2
		l0.1,0.1l-0.1,0.2c-0.1,0-0.1,0.1-0.1,0.3l0.1,0.3l-0.2,0.3c0.1,0.1,0.1,0.2,0.2,0.3c-0.1,0.1-0.2,0.4-0.3,0.8l0.2,0l0,0.1
		c0,0,0,0.1,0,0.1c0,0.1-0.1,0.3-0.2,0.4h0.1l0.1,0.3l0.4,0l0.1,0.3c0,0-0.1,0.1-0.1,0.1c0,0.1,0.1,0.1,0.2,0.2h0c0,0,0,0,0,0
		C143.6,67.7,143.6,67.8,143.7,67.9z M142.7,60.3l-0.1-0.4l-0.3-0.1l-0.6-0.5c-0.1-0.1-0.2-0.1-0.2-0.1c0,0-0.1,0-0.2,0l-0.1-0.1
		h-0.3l-0.1-0.1l-0.2,0.1l-0.1-0.1l-0.2,0.1l-0.3-0.1c-0.2,0-0.4,0.1-0.7,0.2l0,0.1l-0.2,0.1l0,0.1l-0.2,0v0.1
		c-0.1,0.1-0.3,0.3-0.5,0.7c-0.1,0.4-0.2,0.8-0.4,1.1l0.2,0.1l-0.3,0.2l0.1,0.2c-0.1,0.2-0.2,0.4-0.2,0.6v0.1l-0.2,0.2v0.4
		c-0.1,0.1-0.2,0.3-0.2,0.4l-0.1,0.1v0.4l-0.1,0.1c0,0.1,0,0.3-0.1,0.6l0.1,0.3c-0.1,0-0.2,0.1-0.3,0.3l0.1,0.2l-0.1,0.2L137,66
		l-0.2,0.3l0,0.5l-0.1,0.2l0.1,0.1l0,0.1c0.1,0,0.2,0.1,0.3,0.2l0.5-0.1c0.1-0.2,0.2-0.3,0.5-0.3l0-0.2c0.2-0.1,0.3-0.1,0.3-0.1
		c0,0,0,0,0-0.1c0-0.1,0.1-0.1,0.2-0.2h0c0,0,0.1,0,0.1-0.1l0.4-0.4h-0.1l0.2-0.2c0.1-0.1,0.2-0.1,0.3-0.2l0.2-0.4
		c0.3-0.1,0.4-0.3,0.4-0.4h0.1l0.2-0.3l0-0.2l0.2,0c0,0,0-0.1,0-0.1c0,0,0-0.1,0.1-0.2c0.1-0.1,0.2-0.2,0.2-0.3l0.1,0
		c0-0.2,0.1-0.3,0.2-0.4c0-0.1,0.1-0.2,0.2-0.3c0.1-0.1,0.1-0.1,0.2-0.1h0.1l0-0.3c0,0,0-0.1,0-0.1c0,0,0-0.1-0.1-0.1
		c0.1-0.2,0.2-0.3,0.3-0.4l0-0.2l0.1-0.1l0-0.2c0.1-0.1,0.1-0.3,0.2-0.4l0.2-0.2L142.7,60.3z"/>
	<path d="M158.1,66.7l-0.1,0.2c0,0.3-0.1,0.5-0.2,0.7c-0.2,0.1-0.3,0.3-0.3,0.3c0,0.1-0.1,0.2-0.2,0.4l-0.2,0.2
		c-0.1,0-0.1,0.1-0.2,0.3l-0.7,0.4c-0.2,0.1-0.5,0.1-0.7,0.1l-0.3-0.2h-0.2l-0.2-0.2l-0.2,0l-0.8-0.4l-1.7-1.5l-0.4-0.7l-0.3-0.3
		c0-0.1-0.2-0.3-0.3-0.5c-0.1-0.1-0.2-0.3-0.4-0.5c-0.2-0.2-0.3-0.4-0.6-0.5l-0.4-0.8c0-0.1,0.1-0.3,0.2-0.6l0.4,0.3l0.2,0.2
		c0.1,0.1,0.3,0.2,0.6,0.4h0.3l0.1,0.1c0,0,0.1,0,0.2,0c0.1,0,0.2,0,0.2,0.1c0.2-0.1,0.3-0.2,0.6-0.3c0.2-0.1,0.4-0.1,0.6-0.2
		l0.1-0.2h0.5c0-0.1,0-0.1,0.1-0.1c0.1,0,0.1-0.1,0.1-0.1h0.1c0.2,0,0.4-0.2,0.4-0.5c0.2-0.1,0.3-0.2,0.4-0.2l0.1-0.1
		c0.1,0,0.2-0.2,0.3-0.5h0c0.1,0,0.3-0.3,0.4-0.8h0.1l0-0.2l0-0.3l0-0.4c0-0.2-0.2-0.3-0.6-0.5c-0.1-0.1-0.2-0.2-0.3-0.2h-0.1
		l-0.1-0.1c-0.3,0-0.6-0.1-0.9-0.1c-0.3,0-0.5-0.1-0.6-0.1c-0.2,0-0.5,0.1-0.8,0.3c-0.2,0-0.4,0-0.6,0.1l0,0c-0.1,0-0.2,0-0.2,0.1
		s-0.1,0.1-0.2,0.1c-0.1,0-0.2,0.1-0.2,0.1c-0.1,0.1-0.2,0.1-0.3,0.1l-0.3,0.1l-0.7,0.6l-0.7,0.8V62l-0.3,0.7l-0.2,0.5
		c-0.2,0.4-0.3,0.7-0.3,0.9c0,0.1,0,0.2,0.1,0.3c0,0.1,0,0.2-0.1,0.2c-0.1,0.1-0.1,0.3-0.1,0.4l0,0.2c0,0.1,0,0.2-0.1,0.3
		c-0.1,0.2-0.2,0.3-0.2,0.4l0.1,0.4l-0.1,0.4L148,67c-0.1,0.2-0.2,0.4-0.2,0.6v0.1c0,0.1,0,0.1,0,0.2c0,0.2-0.1,0.3-0.4,0.3
		c-0.1,0-0.2-0.2-0.3-0.4l-0.1-0.3l0.1-0.4l-0.1-0.8l0.1-0.2v-0.8l0-0.3v-0.2c0-0.4,0-0.7,0-1s0-0.4,0-0.4v-0.3l0-0.2v-0.6l0.1-0.2
		l-0.1-0.3l0.1-0.7v-0.9l-0.1-0.3l0.1-0.2l0-0.2l-0.1-1.2l-0.1-0.7v-0.2l0.1-0.8l-0.1-0.3l0-0.5c0-0.2,0-0.3,0-0.4
		c0-0.3,0.2-0.4,0.5-0.4l0.1,0.2l0.1-0.1l0,0.3l0.1,0.6l-0.1,0.6l0,0.8l0.1,0.3l-0.1,0.3l0,0.6l-0.1,0.4l0.1,0.4l-0.1,0.1l0.1,0.3
		l-0.1,0.5l-0.1,1.5c0,0.2,0,0.3,0,0.3l0,0.3l0,0.4c0,0.2,0,0.3-0.1,0.4c0.1,0.1,0.2,0.2,0.3,0.2l0.2-0.5l0-0.1c0-0.1,0.1-0.4,0.4-1
		c0.3-0.6,0.6-1.1,0.9-1.5c0.1,0,0.1-0.1,0.1-0.1c0,0,0-0.1,0-0.1c0.3-0.2,0.5-0.3,0.6-0.4c0.1-0.1,0.1-0.1,0.2-0.1
		c0,0,0.1-0.1,0.2-0.1c0.1,0,0.1-0.1,0.2-0.1c0,0,0.1,0,0.1-0.1c0,0,0.1-0.1,0.2-0.1c0.1-0.1,0.2-0.1,0.4-0.2
		c0.1-0.2,0.4-0.3,0.9-0.3l0.8-0.1l1.5,0.1l0.2,0.1c0.1,0,0.2,0.1,0.4,0.1c0.5,0.5,0.8,0.7,0.8,0.7c0,0,0-0.1-0.1-0.1l0.3,0.7
		l-0.1,0.2c0.1,0.1,0.2,0.2,0.2,0.3s-0.1,0.3-0.2,0.5v0.2l-0.2,0.7l-0.3,0.5l-0.1,0c0,0.1-0.1,0.2-0.2,0.3c-0.1,0.1-0.2,0.2-0.2,0.3
		c-0.2,0-0.3,0.1-0.4,0.2c-0.1,0-0.2,0.1-0.2,0.2c-0.2,0-0.4,0.1-0.5,0.3c0,0,0,0,0.1,0h0c0,0.1-0.7,0.3-2,0.7
		c-0.1-0.1-0.2-0.1-0.3-0.1c-0.1,0-0.2,0.1-0.2,0.2v0l0,0.1l0.2,0.2l0.1,0.3c0,0.1,0.1,0.3,0.3,0.4l0.4,0.7l0.5,0.3l0,0.1l0.2,0.1
		l0.1,0.2l0.1,0l0.6,0.6l0.8,0.3l0.5,0.1l0.4,0l0.2-0.1c0.2,0,0.4-0.1,0.6-0.3s0.3-0.2,0.3-0.2l0.4-0.7l0.2-0.2
		c0.1-0.1,0.1-0.2,0.2-0.4c0.1,0,0.1,0,0.2,0C158,66.5,158.1,66.6,158.1,66.7z"/>
	<path d="M161.9,57l-0.1,0.1c0,0.1-0.1,0.2-0.1,0.3l0.1,0.6l-0.1,0.2l0.1,0.1l0,0.2l0.1,0.1c-0.1,0-0.2,0.1-0.2,0.2
		c0,0,0,0.2,0.1,0.4l-0.1,0.3l0.1,0.2c-0.1,0.2-0.1,0.3-0.1,0.5l-0.1,1.9l0.1,0.2l-0.1,0.5l0.1,0.4l-0.1,0.3l0.1,0.2l0,0.2l0,0.2
		l-0.1,0c0.1,0.1,0.1,0.3,0.1,0.4c0,0.1-0.1,0.2-0.2,0.2c0.1,0.1,0.1,0.2,0.1,0.3c0,0.1-0.1,0.2-0.2,0.2s-0.2-0.1-0.2-0.4v-0.5
		c-0.1-0.4-0.1-0.7-0.2-0.9l0.1-0.3l-0.1-0.3l0.1-0.8l-0.2-0.1l0.1-0.3l0-0.3v-0.2l0.1,0l-0.1-0.3l0-0.1v0c0-0.1,0-0.2,0.1-0.3
		l-0.1-0.2v-0.3l-0.1,0l0.2-0.2l-0.1-0.3l0.1-0.3l-0.1-0.2l0.1-0.2l0-0.3l0-0.2c0-0.1-0.1-0.1-0.1-0.2c0,0,0-0.1,0.1-0.2l-0.1,0
		v-0.4l-0.2-0.2l0-0.4l0.2,0l0.3-0.1l0.5,0.2L161.9,57z M162.2,67.9l-0.3,0.2l-0.3-0.1l-0.3,0.1l-0.2-0.1H161l-0.1-0.5l0.1-0.3
		l0.2-0.2h0.1c0,0,0,0,0.1-0.1c0,0,0.1-0.1,0.1-0.1c0.2,0.1,0.3,0.1,0.4,0.1h0c0,0,0,0-0.1-0.1h0c0,0,0.1,0,0.2,0.1
		c0.1,0.2,0.2,0.3,0.2,0.5c0,0-0.1,0.1-0.1,0.1C162.1,67.7,162.2,67.8,162.2,67.9z"/>
</g>
</svg>
