<?xml version="1.0" encoding="utf-8"?>
<!-- Generator: Adobe Illustrator 22.0.1, SVG Export Plug-In . SVG Version: 6.00 Build 0)  -->
<svg version="1.1" id="Layer_1" xmlns="http://www.w3.org/2000/svg" xmlns:xlink="http://www.w3.org/1999/xlink" x="0px" y="0px"
	 viewBox="0 0 202.9 160.3" style="enable-background:new 0 0 202.9 160.3;" xml:space="preserve">
<style type="text/css">
	.st0{fill:#ED1A3B;}
	.st1{fill:#231F20;}
	.st2{fill:url(#SVGID_1_);}
	.st3{fill:url(#SVGID_2_);}
	.st4{fill:url(#SVGID_3_);}
	.st5{fill:url(#SVGID_4_);}
	.st6{fill:#404041;}
	.st7{fill:url(#SVGID_5_);}
	.st8{fill:#FFFFFF;}
	.st9{fill:url(#SVGID_6_);}
	.st10{fill:url(#SVGID_7_);}
	.st11{fill:url(#SVGID_8_);}
	.st12{fill:url(#SVGID_9_);}
	.st13{fill:url(#SVGID_10_);}
	.st14{fill:url(#SVGID_11_);}
	.st15{fill:url(#SVGID_12_);}
</style>
<g>
	<g>
		<path class="st0" d="M104.1,135.4c0-8.5,6.9-15.4,15.5-15.5c8.4,0,15.3,6.9,15.5,15.5c-0.2,8.4-7.1,15.3-15.5,15.5
			C111,150.7,104.1,143.8,104.1,135.4L104.1,135.4z M119.6,145.1c4.6-0.1,8.5-4.4,8.5-9.8c0-5.4-3.9-9.8-8.5-9.8
			c-4.8,0-8.7,4.3-8.5,9.8C110.9,140.7,114.7,145,119.6,145.1"/>
		<polyline class="st0" points="152.5,126.4 152.5,150 146,150 146,126.4 136.7,126.4 136.7,121.1 161.5,121.1 161.5,126.4 
			152.5,126.4 		"/>
		<path class="st0" d="M169.2,143.5L169.2,143.5l-2.4,6.5H159l12.2-28.9h8.1l11.8,28.9h-7.7l-2.4-6.5H169.2L169.2,143.5z
			 M175.3,138.6h4.1l-4.1-10.6l-4.1,10.6H175.3"/>
		<polyline class="st0" points="33,126.4 33,150 26.4,150 26.4,126.4 17.5,126.4 17.5,121.1 41.9,121.1 41.9,126.4 33,126.4 		"/>
		<path class="st0" d="M43.5,135.4c0-8.5,6.9-15.4,15.4-15.5c8.4,0,15.3,6.9,15.5,15.5c-0.1,8.4-7,15.3-15.5,15.5
			C50.4,150.7,43.5,143.8,43.5,135.4L43.5,135.4z M59,145.1c4.7-0.1,8.5-4.4,8.5-9.8c0-5.4-3.8-9.8-8.5-9.8c-4.8,0-8.6,4.3-8.5,9.8
			C50.3,140.7,54.2,145,59,145.1"/>
		<polyline class="st0" points="89.1,150 92.3,150 92.3,139 103.7,121.1 96.4,121.1 89.1,133.3 82.2,121.1 74.4,121.1 85.8,139 
			85.8,150 89.1,150 		"/>
	</g>
	<path class="st1" d="M23.6,57.6c0,27.1,35.4,49.1,79,49.1c43.6,0,79-22,79-49.1c0-27.1-35.4-49.1-79-49.1
		C59,8.5,23.6,30.5,23.6,57.6z M24.4,57.6c0-26.7,35.1-48.4,78.2-48.4c43.1,0,78.2,21.7,78.2,48.4c0,26.7-35.1,48.4-78.2,48.4
		C59.5,105.9,24.4,84.3,24.4,57.6z"/>
	<path class="st1" d="M95.1,17.5c-18.1,1.1-31.7,6-33.8,12.1c-0.2,0.6-0.3,1.2-0.3,1.8c0,1,0.3,1.9,0.8,2.8
		c2.5,4.2,10.3,7.7,21.5,9.6l0.4,0.1l0.1-0.4c1.9-11.7,6.2-20.9,11.6-25.3l0.9-0.8L95.1,17.5z M62.4,33.8c-0.5-0.8-0.7-1.6-0.7-2.4
		c0-0.5,0.1-1,0.3-1.5l0,0c2-5.6,15.1-10.3,32.1-11.5c-5.2,4.7-9.1,13.5-11,24.6C72.4,41.1,64.7,37.7,62.4,33.8z M61.3,29.6
		L61.3,29.6L61.3,29.6z"/>
	<path class="st1" d="M92.5,44.5l-0.1,0.4l0.4,0c3.2,0.2,6.5,0.4,9.8,0.4c3.3,0,6.6-0.1,9.8-0.4l0.4,0l-0.1-0.4
		c-1.7-9.8-5.6-15.8-10.1-15.8C98.1,28.7,94.2,34.7,92.5,44.5z M102.6,29.4c4,0,7.6,5.7,9.3,14.8c-3,0.2-6.1,0.3-9.3,0.3
		c-3.1,0-6.3-0.1-9.3-0.3C95,35.1,98.5,29.4,102.6,29.4z"/>
	<path class="st1" d="M109.8,18.2c5.5,4.4,9.7,13.6,11.6,25.3l0.1,0.4l0.4-0.1c11.2-1.9,19.1-5.4,21.5-9.6c0.9-1.5,1.1-3,0.5-4.6
		c-2.2-6.1-15.8-11-33.8-12.1l-1.2-0.1L109.8,18.2z M111.1,18.4c17,1.2,30.1,5.9,32.1,11.5c0.2,0.5,0.3,1,0.3,1.5
		c0,0.8-0.2,1.6-0.7,2.4c-2.3,3.9-10,7.3-20.6,9.2C120.3,31.9,116.3,23.1,111.1,18.4z"/>
	<path class="st1" d="M49.2,34.8c-8.2,6.9-12.5,15-12.5,23.5c0,20.2,24.9,37.3,57.8,39.8l1.2,0.1l-0.9-0.8
		C87.2,91,82.6,75.9,82.6,58l0.1-3.5l-0.3-0.1C64.2,51.2,51.7,43.7,49.8,35l-0.1-0.6L49.2,34.8z M37.4,58.3
		c0-8.1,4.1-15.9,11.8-22.5c2.4,8.7,14.7,16.1,32.6,19.4c0,0.5-0.1,2.9-0.1,2.9c0,17.4,4.4,32.3,11.6,39.2
		C61.4,94.5,37.4,77.9,37.4,58.3z"/>
	<path class="st1" d="M91.5,56.1l0,0.4c0,15.7,4.9,27.9,11.1,27.9c6.2,0,11.1-12.3,11.1-27.9l0-0.9l-0.4,0
		c-3.5,0.3-7.1,0.5-10.7,0.5c-3.6,0-7.2-0.2-10.7-0.5l-0.4,0L91.5,56.1z M92.2,56.5C92.2,56.5,92.2,56.5,92.2,56.5
		c3.4,0.3,6.9,0.4,10.4,0.4c3.5,0,7-0.2,10.4-0.4c0,0,0,0,0,0c0,15.2-4.5,27.2-10.4,27.2C96.8,83.7,92.2,71.8,92.2,56.5z"/>
	<path class="st1" d="M155.4,35c-1.9,8.7-14.3,16.2-32.5,19.5l-0.3,0.1l0.1,3.5c0,17.9-4.7,33-12.2,39.4l-0.9,0.8l1.2-0.1
		c33-2.5,57.8-19.6,57.8-39.8c0-8.5-4.3-16.7-12.5-23.5l-0.5-0.4L155.4,35z M155.9,35.8c7.7,6.6,11.8,14.4,11.8,22.5
		c0,19.6-24,36.2-56,38.9c7.2-6.9,11.6-21.8,11.6-39.2c0,0,0-2.3-0.1-2.9C141.2,51.9,153.6,44.5,155.9,35.8z"/>
	<linearGradient id="SVGID_1_" gradientUnits="userSpaceOnUse" x1="102.5942" y1="95.9959" x2="102.5942" y2="40.4659">
		<stop  offset="0" style="stop-color:#D0D2D3"/>
		<stop  offset="0.1575" style="stop-color:#F1F1F2"/>
		<stop  offset="0.1639" style="stop-color:#F0F0F1"/>
		<stop  offset="0.2592" style="stop-color:#E8E9EA"/>
		<stop  offset="0.44" style="stop-color:#E6E7E8"/>
		<stop  offset="0.5594" style="stop-color:#CFD0D1"/>
		<stop  offset="0.8087" style="stop-color:#949597"/>
		<stop  offset="1" style="stop-color:#626366"/>
	</linearGradient>
	<path class="st2" d="M155.4,28.5c0.1,0.3,0.2,0.6,0.3,1c0.5,1.8,0.4,3.6-0.2,5.4c8,6.6,12.7,14.7,12.7,23.5
		c0,21.9-29.4,39.7-65.6,39.7C66.4,98,37,80.2,37,58.3c0-8.8,4.7-16.9,12.7-23.5c-0.6-1.8-0.7-3.6-0.2-5.4c0.1-0.3,0.2-0.7,0.4-1
		c-10.9,7.7-17.5,17.9-17.5,29c0,24.3,31.4,44,70.2,44c38.8,0,70.2-19.7,70.2-44C172.8,46.4,166.2,36.2,155.4,28.5z"/>
	<linearGradient id="SVGID_2_" gradientUnits="userSpaceOnUse" x1="112.6111" y1="48.1589" x2="93.7666" y2="32.3465">
		<stop  offset="0" style="stop-color:#E6E7E8"/>
		<stop  offset="0.44" style="stop-color:#E6E7E8"/>
		<stop  offset="0.5594" style="stop-color:#CFD0D1"/>
		<stop  offset="0.8087" style="stop-color:#949597"/>
		<stop  offset="1" style="stop-color:#626366"/>
	</linearGradient>
	<path class="st3" d="M92.8,44.6l-2,1.5c1.7-12.6,6.3-20.7,11.8-20.7c5.5,0,10.1,8.1,11.8,20.7l-2-1.5h0c-1.7-9.6-5.4-15.5-9.8-15.5
		C98.3,29.1,94.5,35,92.8,44.6L92.8,44.6z"/>
	<linearGradient id="SVGID_3_" gradientUnits="userSpaceOnUse" x1="114.4277" y1="74.1361" x2="87.1725" y2="58.4004">
		<stop  offset="0" style="stop-color:#E6E7E8"/>
		<stop  offset="0.44" style="stop-color:#E6E7E8"/>
		<stop  offset="0.5594" style="stop-color:#CFD0D1"/>
		<stop  offset="0.8087" style="stop-color:#949597"/>
		<stop  offset="1" style="stop-color:#626366"/>
	</linearGradient>
	<path class="st4" d="M115,53.1l-1.6,3h0c0,0.1,0,0.3,0,0.4c0,15.7-4.8,27.6-10.7,27.6c-5.9,0-10.7-11.9-10.7-27.6
		c0-0.2,0-0.3,0-0.5l-1.6-2.9c0,1.1-0.1,2.2-0.1,3.4c0,17.8,5.6,31.2,12.4,31.2c6.9,0,12.4-13.5,12.4-31.2
		C115,55.4,115,54.3,115,53.1z"/>
	<linearGradient id="SVGID_4_" gradientUnits="userSpaceOnUse" x1="102.5931" y1="53.6802" x2="102.5931" y2="23.5909">
		<stop  offset="0" style="stop-color:#E6E7E8"/>
		<stop  offset="0.44" style="stop-color:#E6E7E8"/>
		<stop  offset="0.5594" style="stop-color:#CFD0D1"/>
		<stop  offset="0.8087" style="stop-color:#949597"/>
		<stop  offset="1" style="stop-color:#626366"/>
	</linearGradient>
	<path class="st5" d="M112.3,44.6c-3.1,0.2-6.4,0.4-9.8,0.4c-3.4,0-6.7-0.1-9.8-0.4l0,0l-2,1.5c3.7,0.3,7.7,0.5,11.8,0.5
		c4.1,0,8.1-0.2,11.8-0.5L112.3,44.6L112.3,44.6z M148.2,29.2c-2.5-8.1-22.8-14.1-45.6-14.1c-22.8,0-43.1,6-45.6,14.1
		c-2.1,7.1,9.5,13.6,28,16.2l-1.6-1.9v0c-14.9-2.5-23.8-7.9-21.7-13.7c2.5-7,20.5-12,41-12c20.5,0,38.5,5.1,41,12
		c2,5.8-6.8,11.2-21.7,13.7l0,0l-1.6,1.9C138.7,42.8,150.3,36.3,148.2,29.2z"/>
	<path class="st6" d="M155.5,34.9c3,2.5,5.6,5.3,7.6,8.2c-0.7-4.7-2.6-9.1-5.4-12.8c-0.8-0.6-1.5-1.2-2.3-1.8c0.1,0.3,0.2,0.6,0.3,1
		C156.2,31.3,156.1,33.1,155.5,34.9z"/>
	<path class="st6" d="M49.7,34.9c-0.6-1.8-0.7-3.6-0.2-5.4c0.1-0.3,0.2-0.7,0.4-1c-0.8,0.6-1.6,1.2-2.4,1.8c-2.8,3.7-4.6,8-5.4,12.8
		C44.1,40.1,46.7,37.4,49.7,34.9z"/>
	<linearGradient id="SVGID_5_" gradientUnits="userSpaceOnUse" x1="102.5932" y1="8.8535" x2="102.5932" y2="106.3252">
		<stop  offset="0" style="stop-color:#C5C7C9"/>
		<stop  offset="4.758810e-02" style="stop-color:#D4D5D7"/>
		<stop  offset="0.12" style="stop-color:#E6E7E8"/>
		<stop  offset="0.1242" style="stop-color:#E8E9EA"/>
		<stop  offset="0.1469" style="stop-color:#EFEFF0"/>
		<stop  offset="0.21" style="stop-color:#F1F1F2"/>
		<stop  offset="0.545" style="stop-color:#F1F1F2"/>
		<stop  offset="0.6115" style="stop-color:#CCCCCE"/>
		<stop  offset="0.692" style="stop-color:#A6A7A9"/>
		<stop  offset="0.7722" style="stop-color:#88898B"/>
		<stop  offset="0.851" style="stop-color:#737477"/>
		<stop  offset="0.9278" style="stop-color:#66676A"/>
		<stop  offset="1" style="stop-color:#626366"/>
	</linearGradient>
	<path class="st7" d="M24,57.6c0-26.9,35.2-48.7,78.6-48.7c43.4,0,78.6,21.8,78.6,48.7c0,26.9-35.2,48.7-78.6,48.7
		C59.2,106.3,24,84.5,24,57.6z M102.6,101.4c38.8,0,70.2-19.7,70.2-44c0-24.3-31.4-44-70.2-44c-38.8,0-70.2,19.7-70.2,44
		C32.4,81.7,63.8,101.4,102.6,101.4z"/>
	<path class="st8" d="M31.9,57.5c0,24.5,31.7,44.4,70.7,44.4c39,0,70.7-19.9,70.7-44.4c0-24.5-31.7-44.4-70.7-44.4
		C63.6,13,31.9,33,31.9,57.5z M32.8,57.5c0-24,31.3-43.5,69.7-43.5c38.5,0,69.7,19.5,69.7,43.5S141.1,101,102.6,101
		C64.1,101,32.8,81.5,32.8,57.5z"/>
	<linearGradient id="SVGID_6_" gradientUnits="userSpaceOnUse" x1="102.5942" y1="8.8495" x2="102.5942" y2="106.3188">
		<stop  offset="0" style="stop-color:#C5C7C9"/>
		<stop  offset="4.758810e-02" style="stop-color:#D4D5D7"/>
		<stop  offset="0.12" style="stop-color:#E6E7E8"/>
		<stop  offset="0.1242" style="stop-color:#E8E9EA"/>
		<stop  offset="0.1469" style="stop-color:#EFEFF0"/>
		<stop  offset="0.21" style="stop-color:#F1F1F2"/>
		<stop  offset="0.545" style="stop-color:#F1F1F2"/>
		<stop  offset="0.6115" style="stop-color:#CCCCCE"/>
		<stop  offset="0.692" style="stop-color:#A6A7A9"/>
		<stop  offset="0.7722" style="stop-color:#88898B"/>
		<stop  offset="0.851" style="stop-color:#737477"/>
		<stop  offset="0.9278" style="stop-color:#66676A"/>
		<stop  offset="1" style="stop-color:#626366"/>
	</linearGradient>
	<path class="st9" d="M84.1,58c0-23.5,8.3-43,18.5-43c10.2,0,18.5,19.5,18.5,43c0,23.7-8.3,43-18.5,43C92.4,101,84.1,81.7,84.1,58z
		 M102.6,87.8c6.9,0,12.4-13.5,12.4-31.2c0-18.4-5.6-31.1-12.4-31.1S90.1,38.1,90.1,56.5C90.1,74.3,95.7,87.8,102.6,87.8z"/>
	<linearGradient id="SVGID_7_" gradientUnits="userSpaceOnUse" x1="102.5931" y1="8.8563" x2="102.5931" y2="106.3269">
		<stop  offset="0" style="stop-color:#C5C7C9"/>
		<stop  offset="4.758810e-02" style="stop-color:#D4D5D7"/>
		<stop  offset="0.12" style="stop-color:#E6E7E8"/>
		<stop  offset="0.1242" style="stop-color:#E8E9EA"/>
		<stop  offset="0.1469" style="stop-color:#EFEFF0"/>
		<stop  offset="0.21" style="stop-color:#F1F1F2"/>
		<stop  offset="0.545" style="stop-color:#F1F1F2"/>
		<stop  offset="0.6115" style="stop-color:#CCCCCE"/>
		<stop  offset="0.692" style="stop-color:#A6A7A9"/>
		<stop  offset="0.7722" style="stop-color:#88898B"/>
		<stop  offset="0.851" style="stop-color:#737477"/>
		<stop  offset="0.9278" style="stop-color:#66676A"/>
		<stop  offset="1" style="stop-color:#626366"/>
	</linearGradient>
	<path class="st10" d="M49.5,29.5c2-8,26.5-19.7,53.1-19.7c26.6,0,50.2,8.3,53.1,19.7c3.2,12.7-20.4,24.2-53.1,24.2
		C69.9,53.7,46.3,42.2,49.5,29.5z M102.6,15.1c-22.8,0-43.1,6-45.6,14.1c-2.8,9.1,17.5,17.4,45.6,17.4c28.1,0,48.4-8.3,45.6-17.4
		C145.7,21,125.4,15.1,102.6,15.1z"/>
	<linearGradient id="SVGID_8_" gradientUnits="userSpaceOnUse" x1="102.5942" y1="29.0645" x2="102.5942" y2="56.8451">
		<stop  offset="5.618000e-03" style="stop-color:#E6E7E8"/>
		<stop  offset="1" style="stop-color:#6D6E70"/>
	</linearGradient>
	<path class="st11" d="M90.2,53.1L90.2,53.1l1.7,3c3.4,0.3,7,0.5,10.7,0.5c3.7,0,7.3-0.2,10.7-0.5l1.6-3l0,0
		c-3.9,0.4-8.1,0.6-12.4,0.6C98.3,53.7,94.1,53.5,90.2,53.1z M156,32.2c-0.4,9.1-14.4,17.2-35.1,20.2l0,0l2,2.4
		C143.2,51.2,156.5,42.3,156,32.2z M49.2,32.2c-0.5,10.1,12.8,19,33.1,22.6l2-2.4l0,0C63.6,49.4,49.6,41.3,49.2,32.2z"/>
	<linearGradient id="SVGID_9_" gradientUnits="userSpaceOnUse" x1="112.2158" y1="8.8523" x2="112.2158" y2="56.5707">
		<stop  offset="0" style="stop-color:#E6E7E8"/>
		<stop  offset="0.44" style="stop-color:#E6E7E8"/>
		<stop  offset="0.5594" style="stop-color:#CFD0D1"/>
		<stop  offset="0.8087" style="stop-color:#949597"/>
		<stop  offset="1" style="stop-color:#626366"/>
	</linearGradient>
	<path class="st12" d="M120.2,45.4L120.2,45.4l1.6-1.9c-2.8-17-10.4-28.4-19.2-28.4C110.9,15.1,117.9,27.9,120.2,45.4z"/>
	<linearGradient id="SVGID_10_" gradientUnits="userSpaceOnUse" x1="92.9712" y1="8.8523" x2="92.9712" y2="56.5707">
		<stop  offset="0" style="stop-color:#E6E7E8"/>
		<stop  offset="0.44" style="stop-color:#E6E7E8"/>
		<stop  offset="0.5594" style="stop-color:#CFD0D1"/>
		<stop  offset="0.8087" style="stop-color:#949597"/>
		<stop  offset="1" style="stop-color:#626366"/>
	</linearGradient>
	<path class="st13" d="M84.9,45.4c2.3-17.4,9.3-30.3,17.6-30.3c-8.9,0-16.5,11.4-19.2,28.4L84.9,45.4L84.9,45.4z"/>
	<linearGradient id="SVGID_11_" gradientUnits="userSpaceOnUse" x1="92.3994" y1="8.8516" x2="92.3994" y2="87.768">
		<stop  offset="0" style="stop-color:#E6E7E8"/>
		<stop  offset="0.44" style="stop-color:#E6E7E8"/>
		<stop  offset="0.5594" style="stop-color:#CFD0D1"/>
		<stop  offset="0.8087" style="stop-color:#949597"/>
		<stop  offset="1" style="stop-color:#626366"/>
	</linearGradient>
	<path class="st14" d="M84.1,58c0-1.9,0.1-3.8,0.2-5.6h0l-2,2.4c0,1-0.1,2.1-0.1,3.2c0,25.1,9,43,20.4,43
		C92.4,101,84.1,81.7,84.1,58z"/>
	<linearGradient id="SVGID_12_" gradientUnits="userSpaceOnUse" x1="112.789" y1="8.8516" x2="112.789" y2="87.768">
		<stop  offset="0" style="stop-color:#E6E7E8"/>
		<stop  offset="0.44" style="stop-color:#E6E7E8"/>
		<stop  offset="0.5594" style="stop-color:#CFD0D1"/>
		<stop  offset="0.8087" style="stop-color:#949597"/>
		<stop  offset="1" style="stop-color:#626366"/>
	</linearGradient>
	<path class="st15" d="M122.9,54.8l-2-2.4h0c0.1,1.8,0.2,3.7,0.2,5.6c0,23.7-8.3,43-18.5,43C114,101,123,83.1,123,58
		C123,56.9,123,55.9,122.9,54.8z"/>
</g>
</svg>
