<svg id="MZ" xmlns="http://www.w3.org/2000/svg" xmlns:xlink="http://www.w3.org/1999/xlink" viewBox="0 0 185 185.1"><style>.st8{fill:#fff}</style><path d="M21.2 156.2l-7.8 21.9H7.8L0 156.2v-.3h4.9l5.7 17.5h.1l5.6-17.5h4.9zm8 22.4c-5.4 0-8.3-3.8-8.3-8.4s2.9-8.4 8.3-8.4 8.3 3.8 8.3 8.4-2.8 8.4-8.3 8.4zm0-3.6c2.3 0 3.8-1.6 3.8-4.7s-1.5-4.7-3.8-4.7-3.8 1.6-3.8 4.7 1.6 4.7 3.8 4.7zm16.6-19.8v19.4c0 .5 0 .6.5.6H48v3c-.9.2-1.7.2-2.6.2-3 0-4-1.5-4-4.6v-18.6h4.4zm10.1 15.6v7.3h-4.4v-22.9h4.4v14.3h.1l5.5-7.1h4.8v.3l-6 7.3 6.3 7.8v.3h-5l-5.6-7.3zm14.1 3.1c1.6.8 3.3 1.3 5.1 1.3 1.7 0 2.5-.5 2.5-1.5s-.8-1.3-2.2-1.7l-2.1-.5c-2.2-.5-4.3-1.8-4.3-4.6 0-3.1 2.4-5.1 6.5-5.1 2 0 4 .3 5.9 1.1l-1.2 3.1c-1.4-.6-3-.9-4.6-.9-1.7 0-2.4.5-2.4 1.4s.7 1.2 2 1.6l2 .5c2.5.6 4.5 1.9 4.5 4.7 0 3.3-2.6 5.2-6.6 5.2-2.3.1-4.5-.5-6.5-1.5l1.4-3.1zm40.4-11.2l-4.7 15.4h-4.8l-3.6-11.3h-.1l-3.6 11.3h-4.8l-4.7-15.4v-.3h4.4l2.9 10.9h.1l3.4-10.9h4.8l3.3 10.9h.1l2.9-10.9h4.4zm16.3 12c0 .5 0 .6.5.6h1.1v3c-.8.2-1.5.2-2.3.2-1.3.2-2.6-.6-3.1-1.9h-.1c-1.4 1.2-3.2 1.9-5.1 2-3.5 0-5.3-2.1-5.3-5 0-3.5 2.2-5.2 7.8-5.2h2.1v-.7c0-2-1.7-2.3-2.7-2.3-1.8 0-3.6.4-5.2 1.1l-1-3.4c2.1-.9 4.3-1.4 6.5-1.4 4.5 0 6.8 2.3 6.8 6.4v6.6zm-6-3.4c-2.9 0-4 .8-4 1.9s.8 1.9 2.1 1.9 2.5-.4 3.6-1.1v-2.8l-1.7.1zm26 5.8c0 5.3-3 8-8.1 8-2.2 0-4.3-.5-6.2-1.5l1.3-3.2c1.5.8 3.2 1.2 4.9 1.1 2.6 0 3.7-.9 3.7-3.5v-1.2h-.1c-1.3 1-2.9 1.6-4.5 1.6-4.5 0-6.9-3.6-6.9-8.2s2.3-8.3 6.9-8.3c1.8.1 3.5.7 4.9 1.9h.1l.6-1.4h3.4v14.7zm-4.4-10.6c-1-.6-2-.9-3.2-1-2.6 0-3.7 1.8-3.7 4.6s1.1 4.5 3.7 4.5c1.1 0 2.2-.3 3.2-.9v-7.2zm12.7 5c0 2 1.6 3.6 3.6 3.6h.4c1.7 0 3.4-.4 5-1l1 3.2c-2 .9-4.2 1.4-6.4 1.3-5.5 0-8.1-3.8-8.1-8.4 0-4.5 2.8-8.3 7.9-8.3s7.4 3.1 7.4 6.8c0 1-.1 1.9-.2 2.9l-10.6-.1zm6.7-2.7v-.5c0-1.8-.8-3.2-3.3-3.2-2.2 0-3.3 1.8-3.4 3.7h6.7zm11.8-6.4l.6 1.5h.1c1.4-1.3 3.1-2 5-2 3.7 0 5.8 2.5 5.8 6.3v9.9h-4.4v-9.5c0-2.1-.9-3.1-2.8-3.1-1.2.1-2.4.5-3.4 1.3v11.3H170v-15.8h3.5z" fill="#1d1d1b"/><radialGradient id="SVGID_1_" cx="68.341" cy="-2567.746" r="82.99" gradientTransform="matrix(1 0 0 -1 0 -2528.72)" gradientUnits="userSpaceOnUse"><stop offset="0" stop-color="#386eab"/><stop offset=".242" stop-color="#366ca8"/><stop offset=".397" stop-color="#3164a0"/><stop offset=".527" stop-color="#275791"/><stop offset=".644" stop-color="#19447c"/><stop offset=".751" stop-color="#072c61"/><stop offset=".788" stop-color="#002256"/></radialGradient><path d="M93.7 3.2c-35.1 0-63.5 28.4-63.5 63.5s28.4 63.5 63.5 63.5 63.5-28.4 63.5-63.5S128.8 3.2 93.7 3.2zm0 112.1c-26.7 0-48.4-21.7-48.4-48.4S67 18.4 93.7 18.4s48.4 21.7 48.4 48.4-21.7 48.5-48.4 48.5z" fill="url(#SVGID_1_)" stroke="#1a171b" stroke-width=".984" stroke-miterlimit="10"/><radialGradient id="SVGID_2_" cx="73.677" cy="-2573.913" r="60.854" gradientTransform="matrix(1 0 0 -1 0 -2528.72)" gradientUnits="userSpaceOnUse"><stop offset="0" stop-color="#6894c6"/><stop offset=".151" stop-color="#6490c2"/><stop offset=".315" stop-color="#5882b5"/><stop offset=".486" stop-color="#446d9f"/><stop offset=".662" stop-color="#284e81"/><stop offset=".84" stop-color="#05275b"/><stop offset=".861" stop-color="#002256"/></radialGradient><circle cx="93.9" cy="66.8" r="48.1" fill="url(#SVGID_2_)"/><path fill="#bebab8" d="M90.3 65.6h-3.4L71.5 30.8l1.2-3.6 17.6 38.4"/><linearGradient id="SVGID_3_" gradientUnits="userSpaceOnUse" x1="93.92" y1="-2544.085" x2="93.834" y2="-2647.395" gradientTransform="matrix(1 0 0 -1 0 -2528.72)"><stop offset="0" stop-color="#f7f7f6"/><stop offset=".19" stop-color="#f4f4f3"/><stop offset=".311" stop-color="#ececeb"/><stop offset=".414" stop-color="#dedddc"/><stop offset=".505" stop-color="#cac8c8"/><stop offset=".589" stop-color="#b0adae"/><stop offset=".633" stop-color="#9f9c9d"/><stop offset=".712" stop-color="#b5b2b3"/><stop offset=".812" stop-color="#cbc8c9"/><stop offset=".909" stop-color="#d8d5d6"/><stop offset="1" stop-color="#dcd9da"/></linearGradient><path d="M93.9 15.4c-28.5 0-51.7 23.1-51.7 51.7s23.1 51.7 51.7 51.7 51.7-23.1 51.7-51.7c-.1-28.7-23.2-51.7-51.7-51.7zm12.2 8.1L93.8 51.6l-12.7-28c4-1.2 8.4-1.8 12.8-1.8 4.2 0 8.3.6 12.2 1.7zM72.7 27l17.5 38.6H97l17.7-38.7c6.7 3.5 12.3 8.5 16.6 14.7l-22.9 51-11.3-24.9h-6.9L79.4 92.3 56.5 41.5c4.2-6.1 9.7-11.1 16.2-14.5zm-24 39.9c0-5.4 1-10.5 2.7-15.4l25.4 57.1C60.3 102 48.7 85.8 48.7 66.9zm31.9 43.2l13-28.4 13.1 28.6c-4 1.2-8.4 1.9-12.9 1.9-4.5-.1-9-.7-13.2-2.1zm30.1-1.2L136.1 51c1.9 5 2.9 10.4 2.9 15.9.1 19-11.6 35.3-28.3 42z" fill="url(#SVGID_3_)"/><path id="XMLID_1_" d="M71.5 30.8l1.3-3.7V27c-6.5 3.4-12.1 8.5-16.2 14.5l3.2.1c3.1-4.5 7.1-8.1 11.7-10.8z" fill="#544e4e"/><defs><path id="SVGID_4_" d="M71.5 30.8l1.3-3.7V27c-6.5 3.4-12.1 8.5-16.2 14.5l3.2.1c3.1-4.5 7.1-8.1 11.7-10.8z"/></defs><clipPath id="SVGID_5_"><use xlink:href="#SVGID_4_" overflow="visible"/></clipPath><path d="M73.4 27.6c-8 4.9-11.2 7.2-16.1 14.6l-2.5-.3.1-1 5.2-5.8 5.6-5.4 4.2-3 2.8-.6 1 .8-.3.7z" clip-path="url(#SVGID_5_)" fill="#352d2b"/><linearGradient id="SVGID_6_" gradientUnits="userSpaceOnUse" x1="82.125" y1="-2607.784" x2="84.231" y2="-2608.644" gradientTransform="matrix(1 0 0 -1 0 -2528.72)"><stop offset=".76" stop-color="#fff"/><stop offset=".845" stop-color="#fdfdfd"/><stop offset=".885" stop-color="#f5f5f6"/><stop offset=".915" stop-color="#e9e9e9"/><stop offset=".941" stop-color="#d6d7d7"/><stop offset=".963" stop-color="#bebfc0"/><stop offset=".983" stop-color="#a2a2a4"/><stop offset="1" stop-color="#838486"/></linearGradient><path fill="url(#SVGID_6_)" d="M90.1 67.8h-3.6l-7.3 16.9.1 7.7z"/><path id="XMLID_2_" class="st8" d="M79.4 84.7l-.2-.1-19.4-43-2.1-.1h-.9c-.1.1-.2-.1-.3 0l22.8 50.9.1-7.7z"/><defs><path id="SVGID_7_" d="M79.4 84.7l-.2-.1-19.4-43-2.1-.1h-.9c-.1.1-.2-.1-.3 0l22.8 50.9.1-7.7z"/></defs><clipPath id="SVGID_8_"><use xlink:href="#SVGID_7_" overflow="visible"/></clipPath><path clip-path="url(#SVGID_8_)" fill="#96908f" d="M79.6 92.7L57.4 40.9l-1.9.2-.9 11.3 4.3 23.3 4.5 6.1 6 5.1 8.9 5.2z"/><linearGradient id="XMLID_8_" gradientUnits="userSpaceOnUse" x1="48.492" y1="-2610.319" x2="138.933" y2="-2610.319" gradientTransform="matrix(1 0 0 -1 0 -2528.72)"><stop offset="0" stop-color="#7c7571"/><stop offset=".016" stop-color="#8d8783"/><stop offset=".051" stop-color="#aba7a4"/><stop offset=".089" stop-color="#c6c2c1"/><stop offset=".132" stop-color="#dbd9d8"/><stop offset=".181" stop-color="#ebeae9"/><stop offset=".241" stop-color="#f7f6f6"/><stop offset=".321" stop-color="#fdfdfd"/><stop offset=".511" stop-color="#fff"/><stop offset=".716" stop-color="#fdfdfd"/><stop offset=".79" stop-color="#f7f7f6"/><stop offset=".842" stop-color="#ecebeb"/><stop offset=".885" stop-color="#dddbda"/><stop offset=".921" stop-color="#c8c5c4"/><stop offset=".954" stop-color="#afaba8"/><stop offset=".982" stop-color="#928c89"/><stop offset="1" stop-color="#7c7571"/></linearGradient><path id="XMLID_4_" d="M93.9 109.1c4 0 7.9-.5 11.6-1.6l1.3 2.8c-4 1.2-8.4 1.9-12.9 1.9-4.6 0-9.1-.7-13.2-2l1.3-2.8c3.7 1.1 7.7 1.7 11.9 1.7zm-17.1-.3l-1.9-4.1C61.1 97.8 51.7 83.5 51.7 67c0-3.9.5-7.6 1.5-11.2l-1.9-4.1c-1.7 4.8-2.7 10-2.7 15.4.1 18.7 11.7 34.9 28.2 41.7zm62.3-41.9c0-5.6-1-11-2.9-15.9l-1.8 4.1v.2C135.5 59 136 63 136 67c0 16.6-9.5 31-23.5 37.8l-1.8 4.1c16.7-6.7 28.4-23 28.4-42z" fill="url(#XMLID_8_)"/><defs><path id="SVGID_9_" d="M93.9 109.1c4 0 7.9-.5 11.6-1.6l1.3 2.8c-4 1.2-8.4 1.9-12.9 1.9-4.6 0-9.1-.7-13.2-2l1.3-2.8c3.7 1.1 7.7 1.7 11.9 1.7zm-17.1-.3l-1.9-4.1C61.1 97.8 51.7 83.5 51.7 67c0-3.9.5-7.6 1.5-11.2l-1.9-4.1c-1.7 4.8-2.7 10-2.7 15.4.1 18.7 11.7 34.9 28.2 41.7zm62.3-41.9c0-5.6-1-11-2.9-15.9l-1.8 4.1v.2C135.5 59 136 63 136 67c0 16.6-9.5 31-23.5 37.8l-1.8 4.1c16.7-6.7 28.4-23 28.4-42z"/></defs><clipPath id="SVGID_10_"><use xlink:href="#SVGID_9_" overflow="visible"/></clipPath><linearGradient id="SVGID_11_" gradientUnits="userSpaceOnUse" x1="48.611" y1="-2610.273" x2="139.052" y2="-2610.273" gradientTransform="matrix(1 0 0 -1 0 -2528.72)"><stop offset="0" stop-color="#191515"/><stop offset=".048" stop-color="#312d2d"/><stop offset=".151" stop-color="#5f5a5a"/><stop offset=".25" stop-color="#847e7d"/><stop offset=".342" stop-color="#9e9796"/><stop offset=".424" stop-color="#ada7a6"/><stop offset=".489" stop-color="#b3acab"/><stop offset=".558" stop-color="#aba4a3"/><stop offset=".664" stop-color="#968f8e"/><stop offset=".793" stop-color="#726c6c"/><stop offset=".941" stop-color="#423b3d"/><stop offset="1" stop-color="#2c2628"/></linearGradient><path d="M139.1 66.9c0 19-11.7 35.3-28.3 41.9l.4-1c15.9-6.7 27.1-22.5 27.1-40.9 0-5.2-.9-10.3-2.6-14.9l.4-1c1.9 5 3 10.4 3 15.9zm-89.7 0c0-5 .8-9.8 2.3-14.3l-.4-1c-1.7 4.8-2.7 10-2.7 15.4 0 18.9 11.6 35.1 28.1 41.8l-.4-1c-15.8-6.9-26.9-22.5-26.9-40.9zm44.5 45.2c-4.6 0-9.1-.7-13.2-2l.4-.7c4 1.3 8.5 1.9 13 1.9 4.3 0 8.5-.6 12.5-1.8l.4.7c-4.4 1.3-8.7 1.9-13.1 1.9z" clip-path="url(#SVGID_10_)" fill="url(#SVGID_11_)"/><circle cx="93.9" cy="66.9" r="51.7" fill="none" stroke="#1a171b" stroke-width=".897" stroke-miterlimit="10"/><path id="XMLID_5_" d="M127.8 41.3l3.4.2c-4.1-6.1-9.8-11.2-16.5-14.6l.3.7 1.1 3c4.5 2.8 8.5 6.5 11.7 10.7z" fill="#5f585a"/><defs><path id="SVGID_12_" d="M127.8 41.3l3.4.2c-4.1-6.1-9.8-11.2-16.5-14.6l.3.7 1.1 3c4.5 2.8 8.5 6.5 11.7 10.7z"/></defs><clipPath id="SVGID_13_"><use xlink:href="#SVGID_12_" overflow="visible"/></clipPath><path d="M130.7 41.9c-3.7-5.7-12.1-13-17.3-14.6l1.3-3.1 6.6 1.3 8.2 8.7 4.3 5.3-.1 2.6-3-.2z" clip-path="url(#SVGID_13_)" fill="#282423"/><path id="XMLID_3_" d="M81.1 23.6l1.1 2.3c3.7-1.1 7.6-1.6 11.7-1.6 3.9 0 7.6.5 11.2 1.5l1-2.3c-3.9-1.1-8-1.7-12.2-1.7-4.5 0-8.8.6-12.8 1.8z" fill="#544c4f"/><defs><path id="SVGID_14_" d="M81.1 23.6l1.1 2.3c3.7-1.1 7.6-1.6 11.7-1.6 3.9 0 7.6.5 11.2 1.5l1-2.3c-3.9-1.1-8-1.7-12.2-1.7-4.5 0-8.8.6-12.8 1.8z"/></defs><clipPath id="SVGID_15_"><use xlink:href="#SVGID_14_" overflow="visible"/></clipPath><path d="M106.2 24.2c-7.8-2.5-19.9-2-25.5.4l-.8-1.6 2.2-1.9s4.1-.3 4.4-.4c.3-.1 7 0 7 0l4.1.1 5 .4 4 1.3.8.9-1.2.8z" clip-path="url(#SVGID_15_)" fill="#352d2b"/><path id="XMLID_6_" class="st8" d="M97 67.8h3.7l7.3 16.7 19.8-43.2 3.4.2-22.7 51.1z"/><defs><path id="SVGID_16_" d="M97 67.8h3.7l7.3 16.7 19.8-43.2 3.4.2-22.7 51.1z"/></defs><clipPath id="SVGID_17_"><use xlink:href="#SVGID_16_" overflow="visible"/></clipPath><linearGradient id="SVGID_18_" gradientUnits="userSpaceOnUse" x1="102.611" y1="-2608.431" x2="106.536" y2="-2606.677" gradientTransform="matrix(1 0 0 -1 0 -2528.72)"><stop offset="0" stop-color="#89807f"/><stop offset=".074" stop-color="#938b8a"/><stop offset=".512" stop-color="#cdc9c9"/><stop offset=".833" stop-color="#f1f0f0"/><stop offset="1" stop-color="#fff"/></linearGradient><path clip-path="url(#SVGID_17_)" fill="url(#SVGID_18_)" d="M108.1 83.1l.3 10.1-11.1-14.3-1.2-9.8.6-2.8 4.1.5 3 1.8z"/><defs><path id="SVGID_19_" d="M97 67.8h3.7l7.3 16.7 19.8-43.2 3.4.2-22.7 51.1z"/></defs><clipPath id="SVGID_20_"><use xlink:href="#SVGID_19_" overflow="visible"/></clipPath><linearGradient id="SVGID_21_" gradientUnits="userSpaceOnUse" x1="95.372" y1="-2596.28" x2="130.792" y2="-2596.28" gradientTransform="matrix(1 0 0 -1 0 -2528.72)"><stop offset="0" stop-color="#332726"/><stop offset=".281" stop-color="#524946"/><stop offset=".549" stop-color="#69615e"/><stop offset=".796" stop-color="#77706c"/><stop offset="1" stop-color="#7c7571"/></linearGradient><path clip-path="url(#SVGID_20_)" fill="url(#SVGID_21_)" d="M97.2 67.6l11 24 22.9-51 .5 1.5-8.5 21.5-13.7 31-3.2-1.1-9.7-24.9-.4-1.6z"/><path d="M97 65.6l17.7-38.7 1.3 3.7-15.7 35c.1 0-3.1-.2-3.3 0z" fill="#aca5a4"/><path d="M93.7 3.8c-34.8 0-63 28.2-63 63s28.2 63 63 63 63-28.2 63-63-28.2-63-63-63zm0 124.1c-33.7 0-61.1-27.4-61.1-61.1s27.4-61 61.1-61 61.1 27.4 61.1 61.1-27.4 61-61.1 61z" fill="#1a171b"/><linearGradient id="SVGID_22_" gradientUnits="userSpaceOnUse" x1="46.816" y1="-2556.194" x2="144.226" y2="-2637.803" gradientTransform="matrix(1 0 0 -1 0 -2528.72)"><stop offset="0" stop-color="#edeeed"/><stop offset=".039" stop-color="#e3e4e3"/><stop offset=".149" stop-color="#cbcccb"/><stop offset=".275" stop-color="#b9b9b9"/><stop offset=".423" stop-color="#acacac"/><stop offset=".614" stop-color="#a4a4a4"/><stop offset="1" stop-color="#a2a2a2"/></linearGradient><path d="M93.7 3.2c-35.1 0-63.5 28.4-63.5 63.5s28.4 63.5 63.5 63.5 63.5-28.4 63.5-63.5S128.8 3.2 93.7 3.2zm0 125.2c-34 0-61.6-27.5-61.6-61.6S59.7 5.2 93.7 5.2s61.6 27.5 61.6 61.6-27.6 61.6-61.6 61.6z" fill="url(#SVGID_22_)"/></svg>